<svg width="1213" height="112" viewBox="0 0 1213 112" fill="none" xmlns="http://www.w3.org/2000/svg">
<g filter="url(#filter0_d_35_331)">
<g filter="url(#filter1_d_35_331)">
<rect x="4" y="0.120728" width="1205" height="103.879" rx="9" fill="#F3F2EE"/>
</g>
<line x1="299.5" x2="299.5" y2="103.879" stroke="black"/>
<line x1="611.5" y1="0.120728" x2="611.5" y2="104" stroke="black"/>
<line x1="923.5" y1="0.120728" x2="923.5" y2="104" stroke="black"/>
<path d="M248.824 13.7386H219.608C214.229 13.7386 209.869 18.0988 209.869 23.4773V47.824C209.869 53.2026 214.229 57.5627 219.608 57.5627H248.824C254.202 57.5627 258.563 53.2026 258.563 47.824V23.4773C258.563 18.0988 254.202 13.7386 248.824 13.7386Z" stroke="black" stroke-width="2" stroke-linecap="round" stroke-linejoin="round"/>
<path d="M224.477 8.86932V18.608" stroke="black" stroke-width="2" stroke-linecap="round" stroke-linejoin="round"/>
<path d="M243.955 8.86932V18.608" stroke="black" stroke-width="2" stroke-linecap="round" stroke-linejoin="round"/>
<path d="M209.869 28.3467H258.563" stroke="black" stroke-width="2" stroke-linecap="round" stroke-linejoin="round"/>
<path d="M47.9691 39.0271C46.3557 39.0271 44.9697 38.7045 43.8111 38.0591C42.6671 37.3991 41.7871 36.4751 41.1711 35.2871C40.5551 34.0845 40.2471 32.6691 40.2471 31.0411C40.2471 29.4131 40.5551 28.0051 41.1711 26.8171C41.7871 25.6291 42.6671 24.7125 43.8111 24.0671C44.9697 23.4071 46.3557 23.0771 47.9691 23.0771C49.0104 23.0771 49.9931 23.2385 50.9171 23.5611C51.8557 23.8838 52.6257 24.3458 53.2271 24.9471L52.3031 27.1911C51.6431 26.6338 50.9684 26.2305 50.2791 25.9811C49.5897 25.7171 48.8491 25.5851 48.0571 25.5851C46.4877 25.5851 45.2924 26.0618 44.4711 27.0151C43.6497 27.9538 43.2391 29.2958 43.2391 31.0411C43.2391 32.7865 43.6497 34.1358 44.4711 35.0891C45.2924 36.0425 46.4877 36.5191 48.0571 36.5191C48.8491 36.5191 49.5897 36.3945 50.2791 36.1451C50.9684 35.8811 51.6431 35.4705 52.3031 34.9131L53.2271 37.1571C52.6257 37.7438 51.8557 38.2058 50.9171 38.5431C49.9931 38.8658 49.0104 39.0271 47.9691 39.0271ZM56.0807 38.8071V23.2971H58.8307V29.6111C59.1974 29.0245 59.6887 28.5845 60.3047 28.2911C60.9207 27.9831 61.6027 27.8291 62.3507 27.8291C64.8881 27.8291 66.1567 29.3031 66.1567 32.2511V38.8071H63.4067V32.3831C63.4067 31.5471 63.2454 30.9385 62.9227 30.5571C62.6147 30.1758 62.1307 29.9851 61.4707 29.9851C60.6641 29.9851 60.0187 30.2418 59.5347 30.7551C59.0654 31.2538 58.8307 31.9211 58.8307 32.7571V38.8071H56.0807ZM74.9119 39.0271C73.6945 39.0271 72.6459 38.7998 71.7659 38.3451C70.8859 37.8905 70.2039 37.2451 69.7199 36.4091C69.2505 35.5731 69.0159 34.5831 69.0159 33.4391C69.0159 32.3245 69.2432 31.3491 69.6979 30.5131C70.1672 29.6771 70.8052 29.0245 71.6119 28.5551C72.4332 28.0711 73.3645 27.8291 74.4059 27.8291C75.9312 27.8291 77.1339 28.3131 78.0139 29.2811C78.9085 30.2491 79.3559 31.5691 79.3559 33.2411V34.0551H71.6559C71.8612 35.9765 72.9612 36.9371 74.9559 36.9371C75.5572 36.9371 76.1585 36.8491 76.7599 36.6731C77.3612 36.4825 77.9112 36.1891 78.4099 35.7931L79.1799 37.6411C78.6665 38.0665 78.0212 38.4038 77.2439 38.6531C76.4665 38.9025 75.6892 39.0271 74.9119 39.0271ZM74.5159 29.6991C73.7092 29.6991 73.0565 29.9485 72.5579 30.4471C72.0592 30.9458 71.7585 31.6205 71.6559 32.4711H77.0679C77.0092 31.5765 76.7599 30.8945 76.3199 30.4251C75.8945 29.9411 75.2932 29.6991 74.5159 29.6991ZM87.1657 39.0271C86.0364 39.0271 85.0537 38.7998 84.2177 38.3451C83.3817 37.8758 82.7364 37.2158 82.2817 36.3651C81.827 35.5145 81.5997 34.5171 81.5997 33.3731C81.5997 32.2291 81.827 31.2465 82.2817 30.4251C82.7364 29.5891 83.3817 28.9511 84.2177 28.5111C85.0537 28.0565 86.0364 27.8291 87.1657 27.8291C87.855 27.8291 88.537 27.9391 89.2117 28.1591C89.8864 28.3791 90.4437 28.6871 90.8837 29.0831L90.0697 30.9971C89.6884 30.6598 89.2557 30.4031 88.7717 30.2271C88.3024 30.0511 87.8477 29.9631 87.4077 29.9631C86.4544 29.9631 85.7137 30.2638 85.1857 30.8651C84.6724 31.4518 84.4157 32.2951 84.4157 33.3951C84.4157 34.4805 84.6724 35.3385 85.1857 35.9691C85.7137 36.5851 86.4544 36.8931 87.4077 36.8931C87.833 36.8931 88.2877 36.8051 88.7717 36.6291C89.2557 36.4531 89.6884 36.1891 90.0697 35.8371L90.8837 37.7731C90.4437 38.1545 89.879 38.4625 89.1897 38.6971C88.515 38.9171 87.8404 39.0271 87.1657 39.0271ZM93.2306 38.8071V23.2971H95.9806V32.6251H96.0246L100.359 28.0491H103.681L98.7966 33.1971L103.989 38.8071H100.623L96.0246 34.0111H95.9806V38.8071H93.2306ZM105.129 34.0111V31.8111H111.685V34.0111H105.129ZM115.086 25.7391V23.0551H118.166V25.7391H115.086ZM115.262 38.8071V28.0491H118.012V38.8071H115.262ZM121.529 38.8071V28.0491H124.213V29.7211C124.58 29.1051 125.071 28.6358 125.687 28.3131C126.318 27.9905 127.022 27.8291 127.799 27.8291C130.336 27.8291 131.605 29.3031 131.605 32.2511V38.8071H128.855V32.3831C128.855 31.5471 128.694 30.9385 128.371 30.5571C128.063 30.1758 127.579 29.9851 126.919 29.9851C126.112 29.9851 125.467 30.2418 124.983 30.7551C124.514 31.2538 124.279 31.9211 124.279 32.7571V38.8071H121.529Z" fill="black"/>
<path d="M43.4603 85.5529V70.0429H48.9383C51.4903 70.0429 53.4556 70.7102 54.8343 72.0449C56.2276 73.3795 56.9243 75.2935 56.9243 77.7869C56.9243 80.2802 56.2276 82.2015 54.8343 83.5509C53.4556 84.8855 51.4903 85.5529 48.9383 85.5529H43.4603ZM45.7483 83.6389H48.8063C52.6343 83.6389 54.5483 81.6882 54.5483 77.7869C54.5483 73.9002 52.6343 71.9569 48.8063 71.9569H45.7483V83.6389ZM65.4377 85.7509C63.6777 85.7509 62.2917 85.2595 61.2797 84.2769C60.2677 83.2795 59.7617 81.9229 59.7617 80.2069C59.7617 79.1069 59.9817 78.1389 60.4217 77.3029C60.8764 76.4522 61.4997 75.7922 62.2917 75.3229C63.0837 74.8535 63.9931 74.6189 65.0197 74.6189C66.5011 74.6189 67.6671 75.0955 68.5177 76.0489C69.3684 76.9875 69.7937 78.2855 69.7937 79.9429V80.6909H61.9177C62.0791 82.9202 63.2597 84.0349 65.4597 84.0349C66.0757 84.0349 66.6771 83.9395 67.2637 83.7489C67.8651 83.5582 68.4297 83.2429 68.9577 82.8029L69.6177 84.3429C69.1337 84.7829 68.5104 85.1275 67.7477 85.3769C66.9851 85.6262 66.2151 85.7509 65.4377 85.7509ZM65.1077 76.1809C64.1837 76.1809 63.4504 76.4669 62.9077 77.0389C62.3651 77.6109 62.0351 78.3735 61.9177 79.3269H67.9237C67.8797 78.3295 67.6157 77.5595 67.1317 77.0169C66.6477 76.4595 65.9731 76.1809 65.1077 76.1809ZM77.6061 85.7509C76.5061 85.7509 75.5528 85.5235 74.7461 85.0689C73.9541 84.5995 73.3381 83.9469 72.8981 83.1109C72.4581 82.2602 72.2381 81.2629 72.2381 80.1189C72.2381 78.4175 72.7221 77.0755 73.6901 76.0929C74.6581 75.1102 75.9635 74.6189 77.6061 74.6189C78.2808 74.6189 78.9481 74.7362 79.6081 74.9709C80.2681 75.2055 80.8108 75.5282 81.2361 75.9389L80.5321 77.5009C80.1215 77.1195 79.6668 76.8409 79.1681 76.6649C78.6841 76.4742 78.2221 76.3789 77.7821 76.3789C76.7408 76.3789 75.9341 76.7089 75.3621 77.3689C74.8048 78.0142 74.5261 78.9382 74.5261 80.1409C74.5261 81.3435 74.8048 82.2895 75.3621 82.9789C75.9341 83.6535 76.7408 83.9909 77.7821 83.9909C78.2221 83.9909 78.6841 83.9029 79.1681 83.7269C79.6668 83.5362 80.1215 83.2502 80.5321 82.8689L81.2361 84.4529C80.8108 84.8489 80.2608 85.1642 79.5861 85.3989C78.9261 85.6335 78.2661 85.7509 77.6061 85.7509ZM90.553 85.5529V83.8589L95.723 78.3149C96.4416 77.5375 96.955 76.8335 97.263 76.2029C97.5856 75.5722 97.747 74.9342 97.747 74.2889C97.747 72.6169 96.7643 71.7809 94.799 71.7809C93.303 71.7809 91.961 72.3455 90.773 73.4749L89.959 71.7369C90.5456 71.1649 91.2936 70.7102 92.203 70.3729C93.1123 70.0209 94.0583 69.8449 95.041 69.8449C96.6396 69.8449 97.8643 70.2115 98.715 70.9449C99.5803 71.6782 100.013 72.7269 100.013 74.0909C100.013 75.0149 99.7856 75.9169 99.331 76.7969C98.891 77.6769 98.1943 78.6155 97.241 79.6129L93.413 83.6389H100.629V85.5529H90.553ZM104.404 85.5529V83.8589L109.574 78.3149C110.293 77.5375 110.806 76.8335 111.114 76.2029C111.437 75.5722 111.598 74.9342 111.598 74.2889C111.598 72.6169 110.616 71.7809 108.65 71.7809C107.154 71.7809 105.812 72.3455 104.624 73.4749L103.81 71.7369C104.397 71.1649 105.145 70.7102 106.054 70.3729C106.964 70.0209 107.91 69.8449 108.892 69.8449C110.491 69.8449 111.716 70.2115 112.566 70.9449C113.432 71.6782 113.864 72.7269 113.864 74.0909C113.864 75.0149 113.637 75.9169 113.182 76.7969C112.742 77.6769 112.046 78.6155 111.092 79.6129L107.264 83.6389H114.48V85.5529H104.404Z" fill="black"/>
<path d="M576.824 9.73865H547.608C542.229 9.73865 537.869 14.0988 537.869 19.4773V43.824C537.869 49.2026 542.229 53.5627 547.608 53.5627H576.824C582.202 53.5627 586.563 49.2026 586.563 43.824V19.4773C586.563 14.0988 582.202 9.73865 576.824 9.73865Z" stroke="black" stroke-width="2" stroke-linecap="round" stroke-linejoin="round"/>
<path d="M552.478 4.86932V14.608" stroke="black" stroke-width="2" stroke-linecap="round" stroke-linejoin="round"/>
<path d="M571.954 4.86932V14.608" stroke="black" stroke-width="2" stroke-linecap="round" stroke-linejoin="round"/>
<path d="M537.869 24.3467H586.563" stroke="black" stroke-width="2" stroke-linecap="round" stroke-linejoin="round"/>
<path d="M357.264 39.0271C355.65 39.0271 354.264 38.7045 353.106 38.0591C351.962 37.3991 351.082 36.4751 350.466 35.2871C349.85 34.0845 349.542 32.6691 349.542 31.0411C349.542 29.4131 349.85 28.0051 350.466 26.8171C351.082 25.6291 351.962 24.7125 353.106 24.0671C354.264 23.4071 355.65 23.0771 357.264 23.0771C358.305 23.0771 359.288 23.2385 360.212 23.5611C361.15 23.8838 361.92 24.3458 362.522 24.9471L361.598 27.1911C360.938 26.6338 360.263 26.2305 359.574 25.9811C358.884 25.7171 358.144 25.5851 357.352 25.5851C355.782 25.5851 354.587 26.0618 353.766 27.0151C352.944 27.9538 352.534 29.2958 352.534 31.0411C352.534 32.7865 352.944 34.1358 353.766 35.0891C354.587 36.0425 355.782 36.5191 357.352 36.5191C358.144 36.5191 358.884 36.3945 359.574 36.1451C360.263 35.8811 360.938 35.4705 361.598 34.9131L362.522 37.1571C361.92 37.7438 361.15 38.2058 360.212 38.5431C359.288 38.8658 358.305 39.0271 357.264 39.0271ZM365.375 38.8071V23.2971H368.125V29.6111C368.492 29.0245 368.983 28.5845 369.599 28.2911C370.215 27.9831 370.897 27.8291 371.645 27.8291C374.182 27.8291 375.451 29.3031 375.451 32.2511V38.8071H372.701V32.3831C372.701 31.5471 372.54 30.9385 372.217 30.5571C371.909 30.1758 371.425 29.9851 370.765 29.9851C369.958 29.9851 369.313 30.2418 368.829 30.7551C368.36 31.2538 368.125 31.9211 368.125 32.7571V38.8071H365.375ZM384.206 39.0271C382.989 39.0271 381.94 38.7998 381.06 38.3451C380.18 37.8905 379.498 37.2451 379.014 36.4091C378.545 35.5731 378.31 34.5831 378.31 33.4391C378.31 32.3245 378.538 31.3491 378.992 30.5131C379.462 29.6771 380.1 29.0245 380.906 28.5551C381.728 28.0711 382.659 27.8291 383.7 27.8291C385.226 27.8291 386.428 28.3131 387.308 29.2811C388.203 30.2491 388.65 31.5691 388.65 33.2411V34.0551H380.95C381.156 35.9765 382.256 36.9371 384.25 36.9371C384.852 36.9371 385.453 36.8491 386.054 36.6731C386.656 36.4825 387.206 36.1891 387.704 35.7931L388.474 37.6411C387.961 38.0665 387.316 38.4038 386.538 38.6531C385.761 38.9025 384.984 39.0271 384.206 39.0271ZM383.81 29.6991C383.004 29.6991 382.351 29.9485 381.852 30.4471C381.354 30.9458 381.053 31.6205 380.95 32.4711H386.362C386.304 31.5765 386.054 30.8945 385.614 30.4251C385.189 29.9411 384.588 29.6991 383.81 29.6991ZM396.46 39.0271C395.331 39.0271 394.348 38.7998 393.512 38.3451C392.676 37.8758 392.031 37.2158 391.576 36.3651C391.121 35.5145 390.894 34.5171 390.894 33.3731C390.894 32.2291 391.121 31.2465 391.576 30.4251C392.031 29.5891 392.676 28.9511 393.512 28.5111C394.348 28.0565 395.331 27.8291 396.46 27.8291C397.149 27.8291 397.831 27.9391 398.506 28.1591C399.181 28.3791 399.738 28.6871 400.178 29.0831L399.364 30.9971C398.983 30.6598 398.55 30.4031 398.066 30.2271C397.597 30.0511 397.142 29.9631 396.702 29.9631C395.749 29.9631 395.008 30.2638 394.48 30.8651C393.967 31.4518 393.71 32.2951 393.71 33.3951C393.71 34.4805 393.967 35.3385 394.48 35.9691C395.008 36.5851 395.749 36.8931 396.702 36.8931C397.127 36.8931 397.582 36.8051 398.066 36.6291C398.55 36.4531 398.983 36.1891 399.364 35.8371L400.178 37.7731C399.738 38.1545 399.173 38.4625 398.484 38.6971C397.809 38.9171 397.135 39.0271 396.46 39.0271ZM402.525 38.8071V23.2971H405.275V32.6251H405.319L409.653 28.0491H412.975L408.091 33.1971L413.283 38.8071H409.917L405.319 34.0111H405.275V38.8071H402.525ZM414.423 34.0111V31.8111H420.979V34.0111H414.423ZM429.784 39.0271C428.67 39.0271 427.702 38.7998 426.88 38.3451C426.059 37.8905 425.421 37.2451 424.966 36.4091C424.512 35.5585 424.284 34.5611 424.284 33.4171C424.284 32.2731 424.512 31.2831 424.966 30.4471C425.421 29.6111 426.059 28.9658 426.88 28.5111C427.702 28.0565 428.67 27.8291 429.784 27.8291C430.899 27.8291 431.867 28.0565 432.688 28.5111C433.51 28.9658 434.148 29.6111 434.602 30.4471C435.057 31.2831 435.284 32.2731 435.284 33.4171C435.284 34.5611 435.057 35.5585 434.602 36.4091C434.148 37.2451 433.51 37.8905 432.688 38.3451C431.867 38.7998 430.899 39.0271 429.784 39.0271ZM429.784 36.9371C430.606 36.9371 431.266 36.6438 431.764 36.0571C432.263 35.4558 432.512 34.5758 432.512 33.4171C432.512 32.2438 432.263 31.3711 431.764 30.7991C431.266 30.2125 430.606 29.9191 429.784 29.9191C428.963 29.9191 428.303 30.2125 427.804 30.7991C427.306 31.3711 427.056 32.2438 427.056 33.4171C427.056 34.5758 427.306 35.4558 427.804 36.0571C428.303 36.6438 428.963 36.9371 429.784 36.9371ZM442.108 39.0271C439.468 39.0271 438.148 37.5458 438.148 34.5831V28.0491H440.898V34.6271C440.898 35.3898 441.052 35.9545 441.36 36.3211C441.668 36.6878 442.159 36.8711 442.834 36.8711C443.567 36.8711 444.169 36.6218 444.638 36.1231C445.107 35.6098 445.342 34.9351 445.342 34.0991V28.0491H448.092V38.8071H445.408V37.2011C444.689 38.4185 443.589 39.0271 442.108 39.0271ZM456.542 39.0271C453.697 39.0271 452.274 37.6191 452.274 34.8031V30.1171H450.206V28.0491H452.274V24.8371H455.024V28.0491H458.28V30.1171H455.024V34.6491C455.024 35.3531 455.178 35.8811 455.486 36.2331C455.794 36.5851 456.293 36.7611 456.982 36.7611C457.188 36.7611 457.4 36.7391 457.62 36.6951C457.84 36.6365 458.068 36.5778 458.302 36.5191L458.72 38.5431C458.456 38.6898 458.119 38.8071 457.708 38.8951C457.312 38.9831 456.924 39.0271 456.542 39.0271Z" fill="black"/>
<path d="M350.158 85.5529V70.0429H355.636C358.188 70.0429 360.153 70.7102 361.532 72.0449C362.925 73.3795 363.622 75.2935 363.622 77.7869C363.622 80.2802 362.925 82.2015 361.532 83.5509C360.153 84.8855 358.188 85.5529 355.636 85.5529H350.158ZM352.446 83.6389H355.504C359.332 83.6389 361.246 81.6882 361.246 77.7869C361.246 73.9002 359.332 71.9569 355.504 71.9569H352.446V83.6389ZM372.135 85.7509C370.375 85.7509 368.989 85.2595 367.977 84.2769C366.965 83.2795 366.459 81.9229 366.459 80.2069C366.459 79.1069 366.679 78.1389 367.119 77.3029C367.574 76.4522 368.197 75.7922 368.989 75.3229C369.781 74.8535 370.69 74.6189 371.717 74.6189C373.198 74.6189 374.364 75.0955 375.215 76.0489C376.066 76.9875 376.491 78.2855 376.491 79.9429V80.6909H368.615C368.776 82.9202 369.957 84.0349 372.157 84.0349C372.773 84.0349 373.374 83.9395 373.961 83.7489C374.562 83.5582 375.127 83.2429 375.655 82.8029L376.315 84.3429C375.831 84.7829 375.208 85.1275 374.445 85.3769C373.682 85.6262 372.912 85.7509 372.135 85.7509ZM371.805 76.1809C370.881 76.1809 370.148 76.4669 369.605 77.0389C369.062 77.6109 368.732 78.3735 368.615 79.3269H374.621C374.577 78.3295 374.313 77.5595 373.829 77.0169C373.345 76.4595 372.67 76.1809 371.805 76.1809ZM384.303 85.7509C383.203 85.7509 382.25 85.5235 381.443 85.0689C380.651 84.5995 380.035 83.9469 379.595 83.1109C379.155 82.2602 378.935 81.2629 378.935 80.1189C378.935 78.4175 379.419 77.0755 380.387 76.0929C381.355 75.1102 382.661 74.6189 384.303 74.6189C384.978 74.6189 385.645 74.7362 386.305 74.9709C386.965 75.2055 387.508 75.5282 387.933 75.9389L387.229 77.5009C386.819 77.1195 386.364 76.8409 385.865 76.6649C385.381 76.4742 384.919 76.3789 384.479 76.3789C383.438 76.3789 382.631 76.7089 382.059 77.3689C381.502 78.0142 381.223 78.9382 381.223 80.1409C381.223 81.3435 381.502 82.2895 382.059 82.9789C382.631 83.6535 383.438 83.9909 384.479 83.9909C384.919 83.9909 385.381 83.9029 385.865 83.7269C386.364 83.5362 386.819 83.2502 387.229 82.8689L387.933 84.4529C387.508 84.8489 386.958 85.1642 386.283 85.3989C385.623 85.6335 384.963 85.7509 384.303 85.7509ZM397.25 85.5529V83.8589L402.42 78.3149C403.139 77.5375 403.652 76.8335 403.96 76.2029C404.283 75.5722 404.444 74.9342 404.444 74.2889C404.444 72.6169 403.462 71.7809 401.496 71.7809C400 71.7809 398.658 72.3455 397.47 73.4749L396.656 71.7369C397.243 71.1649 397.991 70.7102 398.9 70.3729C399.81 70.0209 400.756 69.8449 401.738 69.8449C403.337 69.8449 404.562 70.2115 405.412 70.9449C406.278 71.6782 406.71 72.7269 406.71 74.0909C406.71 75.0149 406.483 75.9169 406.028 76.7969C405.588 77.6769 404.892 78.6155 403.938 79.6129L400.11 83.6389H407.326V85.5529H397.25ZM416.382 85.7509C414.504 85.7509 413.052 85.0835 412.026 83.7489C411.014 82.4142 410.508 80.5442 410.508 78.1389C410.508 75.4842 411.08 73.4382 412.224 72.0009C413.368 70.5635 414.952 69.8449 416.976 69.8449C417.768 69.8449 418.567 70.0062 419.374 70.3289C420.18 70.6369 420.855 71.0769 421.398 71.6489L420.606 73.3649C420.078 72.8369 419.491 72.4409 418.846 72.1769C418.215 71.9129 417.577 71.7809 416.932 71.7809C415.568 71.7809 414.519 72.2795 413.786 73.2769C413.067 74.2595 412.708 75.7335 412.708 77.6989V78.5789C413.001 77.6842 413.507 76.9875 414.226 76.4889C414.959 75.9755 415.802 75.7189 416.756 75.7189C417.665 75.7189 418.464 75.9315 419.154 76.3569C419.858 76.7822 420.408 77.3689 420.804 78.1169C421.2 78.8502 421.398 79.6935 421.398 80.6469C421.398 81.6442 421.185 82.5315 420.76 83.3089C420.334 84.0715 419.74 84.6729 418.978 85.1129C418.23 85.5382 417.364 85.7509 416.382 85.7509ZM416.25 83.9029C417.144 83.9029 417.87 83.6095 418.428 83.0229C418.985 82.4362 419.264 81.6735 419.264 80.7349C419.264 79.7962 418.985 79.0335 418.428 78.4469C417.87 77.8602 417.144 77.5669 416.25 77.5669C415.355 77.5669 414.629 77.8602 414.072 78.4469C413.514 79.0335 413.236 79.7962 413.236 80.7349C413.236 81.6735 413.514 82.4362 414.072 83.0229C414.629 83.6095 415.355 83.9029 416.25 83.9029Z" fill="black"/>
<path d="M676.621 32.5347C674.905 32.5347 673.453 32.212 672.265 31.5667C671.091 30.9214 670.197 30.0047 669.581 28.8167C668.965 27.6287 668.657 26.2207 668.657 24.5927C668.657 22.95 668.972 21.5347 669.603 20.3467C670.233 19.144 671.143 18.22 672.331 17.5747C673.519 16.9147 674.941 16.5847 676.599 16.5847C677.684 16.5847 678.703 16.746 679.657 17.0687C680.61 17.3767 681.402 17.8094 682.033 18.3667L681.087 20.5667C680.397 20.024 679.693 19.6354 678.975 19.4007C678.256 19.166 677.464 19.0487 676.599 19.0487C674.956 19.0487 673.709 19.5254 672.859 20.4787C672.023 21.432 671.605 22.8034 671.605 24.5927C671.605 26.3967 672.037 27.768 672.903 28.7067C673.768 29.6454 675.051 30.1147 676.753 30.1147C677.237 30.1147 677.728 30.078 678.227 30.0047C678.74 29.9167 679.246 29.792 679.745 29.6307V26.0227H676.181V23.9327H682.099V31.3907C681.38 31.7427 680.529 32.0214 679.547 32.2267C678.564 32.432 677.589 32.5347 676.621 32.5347ZM689.652 32.5347C687.012 32.5347 685.692 31.0534 685.692 28.0907V21.5567H688.442V28.1347C688.442 28.8974 688.596 29.462 688.904 29.8287C689.212 30.1954 689.703 30.3787 690.378 30.3787C691.111 30.3787 691.713 30.1294 692.182 29.6307C692.651 29.1174 692.886 28.4427 692.886 27.6067V21.5567H695.636V32.3147H692.952V30.7087C692.233 31.926 691.133 32.5347 689.652 32.5347ZM704.46 32.5347C703.243 32.5347 702.194 32.3074 701.314 31.8527C700.434 31.398 699.752 30.7527 699.268 29.9167C698.799 29.0807 698.564 28.0907 698.564 26.9467C698.564 25.832 698.792 24.8567 699.246 24.0207C699.716 23.1847 700.354 22.532 701.16 22.0627C701.982 21.5787 702.913 21.3367 703.954 21.3367C705.48 21.3367 706.682 21.8207 707.562 22.7887C708.457 23.7567 708.904 25.0767 708.904 26.7487V27.5627H701.204C701.41 29.484 702.51 30.4447 704.504 30.4447C705.106 30.4447 705.707 30.3567 706.308 30.1807C706.91 29.99 707.46 29.6967 707.958 29.3007L708.728 31.1487C708.215 31.574 707.57 31.9114 706.792 32.1607C706.015 32.41 705.238 32.5347 704.46 32.5347ZM704.064 23.2067C703.258 23.2067 702.605 23.456 702.106 23.9547C701.608 24.4534 701.307 25.128 701.204 25.9787H706.616C706.558 25.084 706.308 24.402 705.868 23.9327C705.443 23.4487 704.842 23.2067 704.064 23.2067ZM715.68 32.5347C714.771 32.5347 713.92 32.4247 713.128 32.2047C712.336 31.9847 711.676 31.6694 711.148 31.2587L711.852 29.4547C712.395 29.8214 713.003 30.1074 713.678 30.3127C714.353 30.5034 715.027 30.5987 715.702 30.5987C716.406 30.5987 716.927 30.4814 717.264 30.2467C717.616 29.9974 717.792 29.6747 717.792 29.2787C717.792 28.6627 717.337 28.2667 716.428 28.0907L714.228 27.6727C712.365 27.3207 711.434 26.3527 711.434 24.7687C711.434 24.0647 711.625 23.456 712.006 22.9427C712.402 22.4294 712.945 22.0334 713.634 21.7547C714.323 21.476 715.115 21.3367 716.01 21.3367C716.773 21.3367 717.506 21.4467 718.21 21.6667C718.914 21.872 719.515 22.1874 720.014 22.6127L719.266 24.4167C718.841 24.0647 718.327 23.786 717.726 23.5807C717.139 23.3754 716.575 23.2727 716.032 23.2727C715.313 23.2727 714.778 23.3974 714.426 23.6467C714.089 23.896 713.92 24.226 713.92 24.6367C713.92 25.282 714.338 25.678 715.174 25.8247L717.374 26.2427C718.327 26.4187 719.046 26.7414 719.53 27.2107C720.029 27.68 720.278 28.3107 720.278 29.1027C720.278 30.1734 719.86 31.0167 719.024 31.6327C718.188 32.234 717.073 32.5347 715.68 32.5347ZM727.965 32.5347C725.119 32.5347 723.697 31.1267 723.697 28.3107V23.6247H721.629V21.5567H723.697V18.3447H726.447V21.5567H729.703V23.6247H726.447V28.1567C726.447 28.8607 726.601 29.3887 726.909 29.7407C727.217 30.0927 727.715 30.2687 728.405 30.2687C728.61 30.2687 728.823 30.2467 729.043 30.2027C729.263 30.144 729.49 30.0854 729.725 30.0267L730.143 32.0507C729.879 32.1974 729.541 32.3147 729.131 32.4027C728.735 32.4907 728.346 32.5347 727.965 32.5347ZM736.078 32.5347C735.169 32.5347 734.318 32.4247 733.526 32.2047C732.734 31.9847 732.074 31.6694 731.546 31.2587L732.25 29.4547C732.793 29.8214 733.401 30.1074 734.076 30.3127C734.751 30.5034 735.425 30.5987 736.1 30.5987C736.804 30.5987 737.325 30.4814 737.662 30.2467C738.014 29.9974 738.19 29.6747 738.19 29.2787C738.19 28.6627 737.735 28.2667 736.826 28.0907L734.626 27.6727C732.763 27.3207 731.832 26.3527 731.832 24.7687C731.832 24.0647 732.023 23.456 732.404 22.9427C732.8 22.4294 733.343 22.0334 734.032 21.7547C734.721 21.476 735.513 21.3367 736.408 21.3367C737.171 21.3367 737.904 21.4467 738.608 21.6667C739.312 21.872 739.913 22.1874 740.412 22.6127L739.664 24.4167C739.239 24.0647 738.725 23.786 738.124 23.5807C737.537 23.3754 736.973 23.2727 736.43 23.2727C735.711 23.2727 735.176 23.3974 734.824 23.6467C734.487 23.896 734.318 24.226 734.318 24.6367C734.318 25.282 734.736 25.678 735.572 25.8247L737.772 26.2427C738.725 26.4187 739.444 26.7414 739.928 27.2107C740.427 27.68 740.676 28.3107 740.676 29.1027C740.676 30.1734 740.258 31.0167 739.422 31.6327C738.586 32.234 737.471 32.5347 736.078 32.5347Z" fill="black"/>
<g clip-path="url(#clip0_35_331)">
<path d="M881.781 36.4784V33.8815C881.781 32.5039 881.234 31.1828 880.259 30.2088C879.285 29.2347 877.964 28.6875 876.587 28.6875H866.199C864.821 28.6875 863.5 29.2347 862.526 30.2088C861.552 31.1828 861.005 32.5039 861.005 33.8815V36.4784" stroke="black" stroke-width="2" stroke-linecap="round" stroke-linejoin="round"/>
<path d="M871.393 23.4935C874.262 23.4935 876.587 21.1681 876.587 18.2996C876.587 15.431 874.262 13.1056 871.393 13.1056C868.525 13.1056 866.199 15.431 866.199 18.2996C866.199 21.1681 868.525 23.4935 871.393 23.4935Z" stroke="black" stroke-width="2" stroke-linecap="round" stroke-linejoin="round"/>
<path d="M889.571 36.4784V33.8814C889.57 32.7306 889.187 31.6127 888.482 30.7031C887.777 29.7936 886.79 29.144 885.676 28.8563" stroke="black" stroke-width="2" stroke-linecap="round" stroke-linejoin="round"/>
<path d="M880.482 13.2744C881.6 13.5605 882.59 14.2102 883.297 15.1213C884.004 16.0323 884.388 17.1528 884.388 18.3061C884.388 19.4593 884.004 20.5798 883.297 21.4909C882.59 22.4019 881.6 23.0517 880.482 23.3377" stroke="black" stroke-width="2" stroke-linecap="round" stroke-linejoin="round"/>
</g>
<path d="M671.342 77.7619V75.8479H674.862V64.8919L672.112 66.6079L671.188 64.9139L675.522 62.2519H677.128V75.8479H680.428V77.7619H671.342ZM695.482 81.9199C694.514 81.9199 693.612 81.8026 692.776 81.5679C691.94 81.3479 691.2 80.9959 690.554 80.5119L691.236 78.9279C691.882 79.3679 692.542 79.6906 693.216 79.8959C693.891 80.1012 694.595 80.2039 695.328 80.2039C697.382 80.2039 698.408 79.1772 698.408 77.1239V75.4299C698.1 76.0752 697.616 76.5812 696.956 76.9479C696.311 77.3146 695.585 77.4979 694.778 77.4979C693.81 77.4979 692.967 77.2779 692.248 76.8379C691.53 76.3832 690.972 75.7599 690.576 74.9679C690.18 74.1612 689.982 73.2226 689.982 72.1519C689.982 71.0959 690.18 70.1719 690.576 69.3799C690.972 68.5732 691.53 67.9499 692.248 67.5099C692.967 67.0552 693.81 66.8279 694.778 66.8279C695.6 66.8279 696.333 67.0112 696.978 67.3779C697.624 67.7446 698.1 68.2506 698.408 68.8959V67.0259H700.564V76.8599C700.564 78.5466 700.132 79.8079 699.266 80.6439C698.401 81.4946 697.14 81.9199 695.482 81.9199ZM695.306 75.7599C696.245 75.7599 696.993 75.4372 697.55 74.7919C698.108 74.1466 698.386 73.2666 698.386 72.1519C698.386 71.0372 698.108 70.1646 697.55 69.5339C696.993 68.8886 696.245 68.5659 695.306 68.5659C694.368 68.5659 693.62 68.8886 693.062 69.5339C692.505 70.1646 692.226 71.0372 692.226 72.1519C692.226 73.2666 692.505 74.1466 693.062 74.7919C693.62 75.4372 694.368 75.7599 695.306 75.7599ZM708.171 77.9599C705.575 77.9599 704.277 76.5152 704.277 73.6259V67.0259H706.499V73.6479C706.499 74.5132 706.675 75.1512 707.027 75.5619C707.379 75.9726 707.936 76.1779 708.699 76.1779C709.535 76.1779 710.209 75.8992 710.723 75.3419C711.251 74.7846 711.515 74.0366 711.515 73.0979V67.0259H713.737V77.7619H711.581V76.0459C711.229 76.6766 710.759 77.1532 710.173 77.4759C709.586 77.7986 708.919 77.9599 708.171 77.9599ZM722.566 77.9599C720.806 77.9599 719.42 77.4686 718.408 76.4859C717.396 75.4886 716.89 74.1319 716.89 72.4159C716.89 71.3159 717.11 70.3479 717.55 69.5119C718.005 68.6612 718.628 68.0012 719.42 67.5319C720.212 67.0626 721.122 66.8279 722.148 66.8279C723.63 66.8279 724.796 67.3046 725.646 68.2579C726.497 69.1966 726.922 70.4946 726.922 72.1519V72.8999H719.046C719.208 75.1292 720.388 76.2439 722.588 76.2439C723.204 76.2439 723.806 76.1486 724.392 75.9579C724.994 75.7672 725.558 75.4519 726.086 75.0119L726.746 76.5519C726.262 76.9919 725.639 77.3366 724.876 77.5859C724.114 77.8352 723.344 77.9599 722.566 77.9599ZM722.236 68.3899C721.312 68.3899 720.579 68.6759 720.036 69.2479C719.494 69.8199 719.164 70.5826 719.046 71.5359H725.052C725.008 70.5386 724.744 69.7686 724.26 69.2259C723.776 68.6686 723.102 68.3899 722.236 68.3899ZM733.767 77.9599C732.887 77.9599 732.065 77.8499 731.303 77.6299C730.54 77.3952 729.902 77.0726 729.389 76.6619L730.027 75.1659C730.569 75.5472 731.163 75.8406 731.809 76.0459C732.469 76.2512 733.129 76.3539 733.789 76.3539C734.566 76.3539 735.153 76.2146 735.549 75.9359C735.945 75.6572 736.143 75.2832 736.143 74.8139C736.143 74.4326 736.011 74.1392 735.747 73.9339C735.483 73.7139 735.087 73.5452 734.559 73.4279L732.469 73.0099C730.621 72.6286 729.697 71.6752 729.697 70.1499C729.697 69.1379 730.1 68.3312 730.907 67.7299C731.713 67.1286 732.769 66.8279 734.075 66.8279C734.823 66.8279 735.534 66.9379 736.209 67.1579C736.898 67.3779 737.47 67.7079 737.925 68.1479L737.287 69.6439C736.847 69.2626 736.341 68.9692 735.769 68.7639C735.197 68.5586 734.632 68.4559 734.075 68.4559C733.312 68.4559 732.733 68.6026 732.337 68.8959C731.941 69.1746 731.743 69.5559 731.743 70.0399C731.743 70.7732 732.227 71.2426 733.195 71.4479L735.285 71.8659C736.238 72.0566 736.957 72.3792 737.441 72.8339C737.939 73.2886 738.189 73.9046 738.189 74.6819C738.189 75.7086 737.785 76.5152 736.979 77.1019C736.172 77.6739 735.101 77.9599 733.767 77.9599ZM745.789 77.9599C744.44 77.9599 743.435 77.6152 742.775 76.9259C742.115 76.2366 741.785 75.2392 741.785 73.9339V68.7419H739.695V67.0259H741.785V63.7919H744.007V67.0259H747.329V68.7419H744.007V73.7579C744.007 74.5352 744.169 75.1219 744.491 75.5179C744.829 75.9139 745.371 76.1119 746.119 76.1119C746.354 76.1119 746.581 76.0899 746.801 76.0459C747.021 75.9872 747.241 75.9212 747.461 75.8479L747.813 77.5199C747.593 77.6519 747.285 77.7546 746.889 77.8279C746.508 77.9159 746.141 77.9599 745.789 77.9599Z" fill="black"/>
<path d="M1143 51H1171C1172.06 51 1173.08 50.5786 1173.83 49.8284C1174.58 49.0783 1175 48.0609 1175 47V29C1175 28.7368 1174.95 28.4759 1174.85 28.2322C1174.75 27.9885 1174.61 27.7669 1174.42 27.58L1158.42 11.58C1158.05 11.2075 1157.54 10.9984 1157.01 10.9984C1156.48 10.9984 1155.97 11.2075 1155.6 11.58L1139.6 27.58C1139.41 27.7652 1139.26 27.9861 1139.16 28.2299C1139.05 28.4736 1139 28.7354 1139 29V47C1139 48.0609 1139.42 49.0783 1140.17 49.8284C1140.92 50.5786 1141.94 51 1143 51ZM1153 47V37H1161V47H1153ZM1143 29.82L1157 15.82L1171 29.82V47H1165V37C1165 35.9391 1164.58 34.9217 1163.83 34.1716C1163.08 33.4214 1162.06 33 1161 33H1153C1151.94 33 1150.92 33.4214 1150.17 34.1716C1149.42 34.9217 1149 35.9391 1149 37V47H1143V29.82Z" fill="black"/>
<path d="M957.694 32.3147V16.8047H959.806L968.144 27.6287V16.8047H970.762V32.3147H968.672L960.312 21.4467V32.3147H957.694ZM979.453 32.5347C978.338 32.5347 977.37 32.3074 976.549 31.8527C975.728 31.398 975.09 30.7527 974.635 29.9167C974.18 29.066 973.953 28.0687 973.953 26.9247C973.953 25.7807 974.18 24.7907 974.635 23.9547C975.09 23.1187 975.728 22.4734 976.549 22.0187C977.37 21.564 978.338 21.3367 979.453 21.3367C980.568 21.3367 981.536 21.564 982.357 22.0187C983.178 22.4734 983.816 23.1187 984.271 23.9547C984.726 24.7907 984.953 25.7807 984.953 26.9247C984.953 28.0687 984.726 29.066 984.271 29.9167C983.816 30.7527 983.178 31.398 982.357 31.8527C981.536 32.3074 980.568 32.5347 979.453 32.5347ZM979.453 30.4447C980.274 30.4447 980.934 30.1514 981.433 29.5647C981.932 28.9634 982.181 28.0834 982.181 26.9247C982.181 25.7514 981.932 24.8787 981.433 24.3067C980.934 23.72 980.274 23.4267 979.453 23.4267C978.632 23.4267 977.972 23.72 977.473 24.3067C976.974 24.8787 976.725 25.7514 976.725 26.9247C976.725 28.0834 976.974 28.9634 977.473 29.5647C977.972 30.1514 978.632 30.4447 979.453 30.4447ZM987.254 32.3147V29.2567H990.334V32.3147H987.254ZM1005.11 32.5347C1003.99 32.5347 1003.03 32.3074 1002.2 31.8527C1001.38 31.398 1000.75 30.7527 1000.29 29.9167C999.836 29.066 999.609 28.0687 999.609 26.9247C999.609 25.7807 999.836 24.7907 1000.29 23.9547C1000.75 23.1187 1001.38 22.4734 1002.2 22.0187C1003.03 21.564 1003.99 21.3367 1005.11 21.3367C1006.22 21.3367 1007.19 21.564 1008.01 22.0187C1008.83 22.4734 1009.47 23.1187 1009.93 23.9547C1010.38 24.7907 1010.61 25.7807 1010.61 26.9247C1010.61 28.0687 1010.38 29.066 1009.93 29.9167C1009.47 30.7527 1008.83 31.398 1008.01 31.8527C1007.19 32.3074 1006.22 32.5347 1005.11 32.5347ZM1005.11 30.4447C1005.93 30.4447 1006.59 30.1514 1007.09 29.5647C1007.59 28.9634 1007.84 28.0834 1007.84 26.9247C1007.84 25.7514 1007.59 24.8787 1007.09 24.3067C1006.59 23.72 1005.93 23.4267 1005.11 23.4267C1004.29 23.4267 1003.63 23.72 1003.13 24.3067C1002.63 24.8787 1002.38 25.7514 1002.38 26.9247C1002.38 28.0834 1002.63 28.9634 1003.13 29.5647C1003.63 30.1514 1004.29 30.4447 1005.11 30.4447ZM1014.16 32.3147V23.6247H1012.09V21.5567H1014.16V21.5347C1014.16 20.0094 1014.55 18.858 1015.35 18.0807C1016.15 17.3034 1017.4 16.8634 1019.09 16.7607L1020.16 16.6947L1020.34 18.7187L1019.33 18.7847C1018.45 18.8434 1017.82 19.0634 1017.46 19.4447C1017.09 19.8114 1016.91 20.3614 1016.91 21.0947V21.5567H1019.83V23.6247H1016.91V32.3147H1014.16ZM1028.69 32.3147V21.5567H1031.38V23.4487C1031.91 22.1727 1033.04 21.4687 1034.77 21.3367L1035.6 21.2707L1035.78 23.6027L1034.19 23.7567C1032.39 23.9327 1031.49 24.8567 1031.49 26.5287V32.3147H1028.69ZM1042.7 32.5347C1041.59 32.5347 1040.62 32.3074 1039.8 31.8527C1038.98 31.398 1038.34 30.7527 1037.89 29.9167C1037.43 29.066 1037.2 28.0687 1037.2 26.9247C1037.2 25.7807 1037.43 24.7907 1037.89 23.9547C1038.34 23.1187 1038.98 22.4734 1039.8 22.0187C1040.62 21.564 1041.59 21.3367 1042.7 21.3367C1043.82 21.3367 1044.79 21.564 1045.61 22.0187C1046.43 22.4734 1047.07 23.1187 1047.52 23.9547C1047.98 24.7907 1048.2 25.7807 1048.2 26.9247C1048.2 28.0687 1047.98 29.066 1047.52 29.9167C1047.07 30.7527 1046.43 31.398 1045.61 31.8527C1044.79 32.3074 1043.82 32.5347 1042.7 32.5347ZM1042.7 30.4447C1043.53 30.4447 1044.19 30.1514 1044.68 29.5647C1045.18 28.9634 1045.43 28.0834 1045.43 26.9247C1045.43 25.7514 1045.18 24.8787 1044.68 24.3067C1044.19 23.72 1043.53 23.4267 1042.7 23.4267C1041.88 23.4267 1041.22 23.72 1040.72 24.3067C1040.23 24.8787 1039.98 25.7514 1039.98 26.9247C1039.98 28.0834 1040.23 28.9634 1040.72 29.5647C1041.22 30.1514 1041.88 30.4447 1042.7 30.4447ZM1056.04 32.5347C1054.93 32.5347 1053.96 32.3074 1053.14 31.8527C1052.31 31.398 1051.68 30.7527 1051.22 29.9167C1050.77 29.066 1050.54 28.0687 1050.54 26.9247C1050.54 25.7807 1050.77 24.7907 1051.22 23.9547C1051.68 23.1187 1052.31 22.4734 1053.14 22.0187C1053.96 21.564 1054.93 21.3367 1056.04 21.3367C1057.15 21.3367 1058.12 21.564 1058.94 22.0187C1059.77 22.4734 1060.4 23.1187 1060.86 23.9547C1061.31 24.7907 1061.54 25.7807 1061.54 26.9247C1061.54 28.0687 1061.31 29.066 1060.86 29.9167C1060.4 30.7527 1059.77 31.398 1058.94 31.8527C1058.12 32.3074 1057.15 32.5347 1056.04 32.5347ZM1056.04 30.4447C1056.86 30.4447 1057.52 30.1514 1058.02 29.5647C1058.52 28.9634 1058.77 28.0834 1058.77 26.9247C1058.77 25.7514 1058.52 24.8787 1058.02 24.3067C1057.52 23.72 1056.86 23.4267 1056.04 23.4267C1055.22 23.4267 1054.56 23.72 1054.06 24.3067C1053.56 24.8787 1053.31 25.7514 1053.31 26.9247C1053.31 28.0834 1053.56 28.9634 1054.06 29.5647C1054.56 30.1514 1055.22 30.4447 1056.04 30.4447ZM1064.51 32.3147V21.5567H1067.2V23.2067C1067.52 22.62 1067.97 22.1654 1068.54 21.8427C1069.11 21.5054 1069.77 21.3367 1070.52 21.3367C1072.13 21.3367 1073.19 22.0407 1073.69 23.4487C1074.02 22.7887 1074.51 22.2754 1075.14 21.9087C1075.77 21.5274 1076.49 21.3367 1077.3 21.3367C1079.72 21.3367 1080.93 22.8107 1080.93 25.7587V32.3147H1078.18V25.8687C1078.18 25.0474 1078.04 24.446 1077.76 24.0647C1077.49 23.6834 1077.04 23.4927 1076.39 23.4927C1075.67 23.4927 1075.11 23.7494 1074.7 24.2627C1074.29 24.7614 1074.08 25.458 1074.08 26.3527V32.3147H1071.33V25.8687C1071.33 25.0474 1071.19 24.446 1070.92 24.0647C1070.65 23.6834 1070.2 23.4927 1069.57 23.4927C1068.85 23.4927 1068.29 23.7494 1067.88 24.2627C1067.47 24.7614 1067.26 25.458 1067.26 26.3527V32.3147H1064.51ZM1088.36 32.5347C1087.45 32.5347 1086.6 32.4247 1085.81 32.2047C1085.02 31.9847 1084.36 31.6694 1083.83 31.2587L1084.53 29.4547C1085.08 29.8214 1085.68 30.1074 1086.36 30.3127C1087.03 30.5034 1087.71 30.5987 1088.38 30.5987C1089.09 30.5987 1089.61 30.4814 1089.94 30.2467C1090.3 29.9974 1090.47 29.6747 1090.47 29.2787C1090.47 28.6627 1090.02 28.2667 1089.11 28.0907L1086.91 27.6727C1085.05 27.3207 1084.11 26.3527 1084.11 24.7687C1084.11 24.0647 1084.31 23.456 1084.69 22.9427C1085.08 22.4294 1085.63 22.0334 1086.31 21.7547C1087 21.476 1087.8 21.3367 1088.69 21.3367C1089.45 21.3367 1090.19 21.4467 1090.89 21.6667C1091.59 21.872 1092.2 22.1874 1092.69 22.6127L1091.95 24.4167C1091.52 24.0647 1091.01 23.786 1090.41 23.5807C1089.82 23.3754 1089.26 23.2727 1088.71 23.2727C1087.99 23.2727 1087.46 23.3974 1087.11 23.6467C1086.77 23.896 1086.6 24.226 1086.6 24.6367C1086.6 25.282 1087.02 25.678 1087.85 25.8247L1090.05 26.2427C1091.01 26.4187 1091.73 26.7414 1092.21 27.2107C1092.71 27.68 1092.96 28.3107 1092.96 29.1027C1092.96 30.1734 1092.54 31.0167 1091.7 31.6327C1090.87 32.234 1089.75 32.5347 1088.36 32.5347Z" fill="black"/>
<path d="M958.574 77.7619V75.8479H962.094V64.8919L959.344 66.6079L958.42 64.9139L962.754 62.2519H964.36V75.8479H967.66V77.7619H958.574ZM977.853 77.7619V67.0259H980.009V68.9399C980.566 67.6639 981.725 66.9526 983.485 66.8059L984.211 66.7619L984.365 68.6539L983.023 68.7859C981.072 68.9766 980.097 69.9812 980.097 71.7999V77.7619H977.853ZM991.233 77.9599C990.148 77.9599 989.209 77.7326 988.417 77.2779C987.625 76.8232 987.009 76.1852 986.569 75.3639C986.144 74.5279 985.931 73.5379 985.931 72.3939C985.931 71.2499 986.144 70.2672 986.569 69.4459C987.009 68.6099 987.625 67.9646 988.417 67.5099C989.209 67.0552 990.148 66.8279 991.233 66.8279C992.289 66.8279 993.213 67.0552 994.005 67.5099C994.797 67.9646 995.413 68.6099 995.853 69.4459C996.293 70.2672 996.513 71.2499 996.513 72.3939C996.513 73.5379 996.293 74.5279 995.853 75.3639C995.413 76.1852 994.797 76.8232 994.005 77.2779C993.213 77.7326 992.289 77.9599 991.233 77.9599ZM991.233 76.2439C992.143 76.2439 992.876 75.9139 993.433 75.2539C993.991 74.5939 994.269 73.6406 994.269 72.3939C994.269 71.1472 993.991 70.2012 993.433 69.5559C992.876 68.8959 992.143 68.5659 991.233 68.5659C990.309 68.5659 989.569 68.8959 989.011 69.5559C988.454 70.2012 988.175 71.1472 988.175 72.3939C988.175 73.6406 988.454 74.5939 989.011 75.2539C989.569 75.9139 990.309 76.2439 991.233 76.2439ZM1004.33 77.9599C1003.25 77.9599 1002.31 77.7326 1001.52 77.2779C1000.72 76.8232 1000.11 76.1852 999.669 75.3639C999.243 74.5279 999.031 73.5379 999.031 72.3939C999.031 71.2499 999.243 70.2672 999.669 69.4459C1000.11 68.6099 1000.72 67.9646 1001.52 67.5099C1002.31 67.0552 1003.25 66.8279 1004.33 66.8279C1005.39 66.8279 1006.31 67.0552 1007.1 67.5099C1007.9 67.9646 1008.51 68.6099 1008.95 69.4459C1009.39 70.2672 1009.61 71.2499 1009.61 72.3939C1009.61 73.5379 1009.39 74.5279 1008.95 75.3639C1008.51 76.1852 1007.9 76.8232 1007.1 77.2779C1006.31 77.7326 1005.39 77.9599 1004.33 77.9599ZM1004.33 76.2439C1005.24 76.2439 1005.98 75.9139 1006.53 75.2539C1007.09 74.5939 1007.37 73.6406 1007.37 72.3939C1007.37 71.1472 1007.09 70.2012 1006.53 69.5559C1005.98 68.8959 1005.24 68.5659 1004.33 68.5659C1003.41 68.5659 1002.67 68.8959 1002.11 69.5559C1001.55 70.2012 1001.27 71.1472 1001.27 72.3939C1001.27 73.6406 1001.55 74.5939 1002.11 75.2539C1002.67 75.9139 1003.41 76.2439 1004.33 76.2439ZM1012.81 77.7619V67.0259H1014.97V68.7639C1015.29 68.1479 1015.74 67.6712 1016.31 67.3339C1016.88 66.9966 1017.55 66.8279 1018.31 66.8279C1019.95 66.8279 1021.02 67.5466 1021.5 68.9839C1021.84 68.3092 1022.32 67.7812 1022.95 67.3999C1023.58 67.0186 1024.3 66.8279 1025.11 66.8279C1027.52 66.8279 1028.72 68.2652 1028.72 71.1399V77.7619H1026.5V71.2499C1026.5 70.3406 1026.33 69.6732 1026.01 69.2479C1025.7 68.8226 1025.19 68.6099 1024.47 68.6099C1023.67 68.6099 1023.03 68.8959 1022.56 69.4679C1022.09 70.0252 1021.85 70.7879 1021.85 71.7559V77.7619H1019.63V71.2499C1019.63 70.3406 1019.48 69.6732 1019.17 69.2479C1018.86 68.8226 1018.35 68.6099 1017.63 68.6099C1016.82 68.6099 1016.19 68.8959 1015.72 69.4679C1015.26 70.0252 1015.03 70.7879 1015.03 71.7559V77.7619H1012.81Z" fill="black"/>
</g>
<defs>
<filter id="filter0_d_35_331" x="0" y="0" width="1213" height="112" filterUnits="userSpaceOnUse" color-interpolation-filters="sRGB">
<feFlood flood-opacity="0" result="BackgroundImageFix"/>
<feColorMatrix in="SourceAlpha" type="matrix" values="0 0 0 0 0 0 0 0 0 0 0 0 0 0 0 0 0 0 127 0" result="hardAlpha"/>
<feOffset dy="4"/>
<feGaussianBlur stdDeviation="2"/>
<feComposite in2="hardAlpha" operator="out"/>
<feColorMatrix type="matrix" values="0 0 0 0 0 0 0 0 0 0 0 0 0 0 0 0 0 0 0.25 0"/>
<feBlend mode="normal" in2="BackgroundImageFix" result="effect1_dropShadow_35_331"/>
<feBlend mode="normal" in="SourceGraphic" in2="effect1_dropShadow_35_331" result="shape"/>
</filter>
<filter id="filter1_d_35_331" x="0" y="0.120728" width="1213" height="111.879" filterUnits="userSpaceOnUse" color-interpolation-filters="sRGB">
<feFlood flood-opacity="0" result="BackgroundImageFix"/>
<feColorMatrix in="SourceAlpha" type="matrix" values="0 0 0 0 0 0 0 0 0 0 0 0 0 0 0 0 0 0 127 0" result="hardAlpha"/>
<feOffset dy="4"/>
<feGaussianBlur stdDeviation="2"/>
<feComposite in2="hardAlpha" operator="out"/>
<feColorMatrix type="matrix" values="0 0 0 0 0 0 0 0 0 0 0 0 0 0 0 0 0 0 0.25 0"/>
<feBlend mode="normal" in2="BackgroundImageFix" result="effect1_dropShadow_35_331"/>
<feBlend mode="normal" in="SourceGraphic" in2="effect1_dropShadow_35_331" result="shape"/>
</filter>
<clipPath id="clip0_35_331">
<rect width="31.1638" height="31.1638" fill="white" transform="translate(859.706 9.21014)"/>
</clipPath>
</defs>
</svg>
