<svg width="303" height="365" viewBox="0 0 303 365" fill="none" xmlns="http://www.w3.org/2000/svg">
<g filter="url(#filter0_d_95_309)">
<path fill-rule="evenodd" clip-rule="evenodd" d="M50.7272 14.1275L42.5 0L34.2728 14.1275H50.7272ZM13 14.3518C8.02944 14.3518 4 18.3812 4 23.3518V348C4 352.971 8.02943 357 13 357H290C294.971 357 299 352.971 299 348V23.3518C299 18.3812 294.971 14.3518 290 14.3518H13Z" fill="#F3F2EE"/>
<path d="M23.7729 103.273V112H25.29V105.991H25.3709L27.7828 111.974H28.9164L31.3283 106.004H31.4093V112H32.9263V103.273H30.9917L28.4007 109.597H28.2985L25.7076 103.273H23.7729ZM37.4348 112.128C39.3525 112.128 40.5712 110.777 40.5712 108.753C40.5712 106.724 39.3525 105.369 37.4348 105.369C35.5172 105.369 34.2985 106.724 34.2985 108.753C34.2985 110.777 35.5172 112.128 37.4348 112.128ZM37.4434 110.892C36.3823 110.892 35.8624 109.946 35.8624 108.749C35.8624 107.551 36.3823 106.592 37.4434 106.592C38.4874 106.592 39.0073 107.551 39.0073 108.749C39.0073 109.946 38.4874 110.892 37.4434 110.892Z" fill="black"/>
<path d="M65.3113 104.598H68.0087V112H69.5769V104.598H72.2743V103.273H65.3113V104.598ZM76.8297 109.247C76.8297 110.244 76.1181 110.739 75.4363 110.739C74.6948 110.739 74.2005 110.214 74.2005 109.384V105.455H72.6578V109.622C72.6578 111.195 73.5527 112.085 74.8397 112.085C75.8198 112.085 76.5101 111.57 76.8084 110.837H76.8766V112H78.3723V105.455H76.8297V109.247Z" fill="black"/>
<path d="M105.434 112H106.993L108.745 105.876H108.813L110.56 112H112.12L114.583 103.273H112.883L111.31 109.69H111.233L109.55 103.273H108.003L106.324 109.686H106.243L104.671 103.273H102.971L105.434 112ZM117.841 112.128C119.366 112.128 120.415 111.382 120.687 110.244L119.247 110.082C119.038 110.636 118.527 110.926 117.862 110.926C116.865 110.926 116.204 110.27 116.192 109.149H120.751V108.676C120.751 106.379 119.371 105.369 117.76 105.369C115.885 105.369 114.662 106.746 114.662 108.766C114.662 110.82 115.868 112.128 117.841 112.128ZM116.196 108.109C116.243 107.274 116.861 106.571 117.781 106.571C118.667 106.571 119.264 107.219 119.273 108.109H116.196Z" fill="black"/>
<path d="M144.837 104.598H147.534V112H149.102V104.598H151.8V103.273H144.837V104.598ZM154.616 108.165C154.616 107.219 155.205 106.673 156.031 106.673C156.841 106.673 157.318 107.189 157.318 108.071V112H158.861V107.832C158.861 106.251 157.966 105.369 156.607 105.369C155.601 105.369 154.962 105.825 154.659 106.567H154.582V103.273H153.074V112H154.616V108.165Z" fill="black"/>
<path d="M187.013 112H188.594V108.293H192.221V106.967H188.594V104.598H192.604V103.273H187.013V112ZM193.882 112H195.425V108.152C195.425 107.321 196.051 106.733 196.9 106.733C197.159 106.733 197.483 106.78 197.615 106.822V105.403C197.475 105.378 197.232 105.361 197.061 105.361C196.311 105.361 195.685 105.787 195.446 106.545H195.378V105.455H193.882V112Z" fill="black"/>
<path d="M230.262 105.672H231.783C231.753 104.197 230.496 103.153 228.638 103.153C226.806 103.153 225.43 104.185 225.434 105.727C225.434 106.98 226.324 107.7 227.76 108.071L228.753 108.327C229.695 108.565 230.317 108.859 230.322 109.537C230.317 110.283 229.61 110.781 228.579 110.781C227.59 110.781 226.823 110.338 226.759 109.422H225.204C225.268 111.156 226.559 112.132 228.591 112.132C230.684 112.132 231.898 111.088 231.903 109.55C231.898 108.037 230.65 107.347 229.337 107.036L228.519 106.831C227.803 106.661 227.028 106.358 227.036 105.629C227.04 104.973 227.628 104.491 228.617 104.491C229.559 104.491 230.181 104.93 230.262 105.672ZM235.127 112.132C236.154 112.132 236.768 111.651 237.049 111.101H237.1V112H238.583V107.619C238.583 105.889 237.173 105.369 235.924 105.369C234.548 105.369 233.491 105.983 233.15 107.176L234.59 107.381C234.744 106.933 235.178 106.55 235.933 106.55C236.649 106.55 237.041 106.916 237.041 107.56V107.585C237.041 108.028 236.576 108.05 235.421 108.173C234.151 108.31 232.937 108.689 232.937 110.163C232.937 111.45 233.879 112.132 235.127 112.132ZM235.528 110.999C234.884 110.999 234.424 110.705 234.424 110.138C234.424 109.545 234.94 109.298 235.63 109.2C236.035 109.145 236.845 109.043 237.045 108.881V109.652C237.045 110.381 236.457 110.999 235.528 110.999Z" fill="black"/>
<path d="M270.057 105.672H271.578C271.548 104.197 270.291 103.153 268.433 103.153C266.601 103.153 265.224 104.185 265.229 105.727C265.229 106.98 266.119 107.7 267.555 108.071L268.548 108.327C269.49 108.565 270.112 108.859 270.116 109.537C270.112 110.283 269.405 110.781 268.374 110.781C267.385 110.781 266.618 110.338 266.554 109.422H264.999C265.062 111.156 266.354 112.132 268.386 112.132C270.479 112.132 271.693 111.088 271.697 109.55C271.693 108.037 270.445 107.347 269.132 107.036L268.314 106.831C267.598 106.661 266.822 106.358 266.831 105.629C266.835 104.973 267.423 104.491 268.412 104.491C269.354 104.491 269.976 104.93 270.057 105.672ZM277.211 109.247C277.211 110.244 276.499 110.739 275.817 110.739C275.076 110.739 274.581 110.214 274.581 109.384V105.455H273.039V109.622C273.039 111.195 273.934 112.085 275.221 112.085C276.201 112.085 276.891 111.57 277.189 110.837H277.257V112H278.753V105.455H277.211V109.247Z" fill="black"/>
<path d="M33.1777 143.273H32.1209L29.9391 144.722V145.795L32.0698 144.381H32.1209V152H33.1777V143.273Z" fill="black"/>
<path d="M12 128V127.5H11.5V128H12ZM52 128H52.5V127.5H52V128ZM52 168V168.5H52.5V168H52ZM12 168H11.5V168.5H12V168ZM12 128.5H52V127.5H12V128.5ZM51.5 128V168H52.5V128H51.5ZM52 167.5H12V168.5H52V167.5ZM12.5 168V128H11.5V168H12.5Z" fill="#DFDFDF"/>
<path d="M69.2743 152H74.78V151.062H70.7232V150.994L72.6834 148.898C74.1834 147.291 74.6266 146.541 74.6266 145.574C74.6266 144.227 73.5357 143.153 72.0016 143.153C70.4718 143.153 69.3084 144.193 69.3084 145.727H70.3141C70.3141 144.734 70.9576 144.074 71.9675 144.074C72.9135 144.074 73.638 144.653 73.638 145.574C73.638 146.379 73.165 146.976 72.155 148.08L69.2743 151.233V152Z" fill="black"/>
<path d="M52 128V127.5H51.5V128H52ZM92 128H92.5V127.5H92V128ZM92 168V168.5H92.5V168H92ZM52 168H51.5V168.5H52V168ZM52 128.5H92V127.5H52V128.5ZM91.5 128V168H92.5V128H91.5ZM92 167.5H52V168.5H92V167.5ZM52.5 168V128H51.5V168H52.5Z" fill="#DFDFDF"/>
<path d="M112.036 152.119C113.727 152.119 114.985 151.058 114.985 149.631C114.985 148.523 114.328 147.717 113.229 147.534V147.466C114.111 147.197 114.661 146.473 114.661 145.489C114.661 144.253 113.685 143.153 112.07 143.153C110.561 143.153 109.308 144.082 109.257 145.455H110.28C110.318 144.585 111.145 144.074 112.053 144.074C113.016 144.074 113.638 144.658 113.638 145.54C113.638 146.46 112.918 147.057 111.882 147.057H111.183V147.994H111.882C113.208 147.994 113.945 148.668 113.945 149.631C113.945 150.555 113.139 151.182 112.019 151.182C111.009 151.182 110.208 150.662 110.144 149.818H109.07C109.134 151.19 110.344 152.119 112.036 152.119Z" fill="black"/>
<path d="M92 128V127.5H91.5V128H92ZM132 128H132.5V127.5H132V128ZM132 168V168.5H132.5V168H132ZM92 168H91.5V168.5H92V168ZM92 128.5H132V127.5H92V128.5ZM131.5 128V168H132.5V128H131.5ZM132 167.5H92V168.5H132V167.5ZM92.5 168V128H91.5V168H92.5Z" fill="#DFDFDF"/>
<path d="M148.848 150.21H152.956V152H153.962V150.21H155.155V149.273H153.962V143.273H152.683L148.848 149.341V150.21ZM152.956 149.273H149.99V149.205L152.888 144.619H152.956V149.273Z" fill="black"/>
<path d="M132 128V127.5H131.5V128H132ZM172 128H172.5V127.5H172V128ZM172 168V168.5H172.5V168H172ZM132 168H131.5V168.5H132V168ZM132 128.5H172V127.5H132V128.5ZM171.5 128V168H172.5V128H171.5ZM172 167.5H132V168.5H172V167.5ZM132.5 168V128H131.5V168H132.5Z" fill="#DFDFDF"/>
<path d="M191.968 152.119C193.629 152.119 194.848 150.892 194.848 149.222C194.848 147.53 193.672 146.29 192.07 146.29C191.482 146.29 190.911 146.499 190.553 146.784H190.502L190.808 144.21H194.456V143.273H189.922L189.394 147.568L190.382 147.688C190.744 147.428 191.362 147.24 191.899 147.244C193.012 147.253 193.825 148.097 193.825 149.239C193.825 150.359 193.041 151.182 191.968 151.182C191.073 151.182 190.361 150.607 190.28 149.818H189.257C189.321 151.148 190.468 152.119 191.968 152.119Z" fill="black"/>
<path d="M172 128V127.5H171.5V128H172ZM212 128H212.5V127.5H212V128ZM212 168V168.5H212.5V168H212ZM172 168H171.5V168.5H172V168ZM172 128.5H212V127.5H172V128.5ZM211.5 128V168H212.5V128H211.5ZM212 167.5H172V168.5H212V167.5ZM172.5 168V128H171.5V168H172.5Z" fill="#DFDFDF"/>
<path d="M232.053 152.119C233.817 152.141 234.968 150.811 234.968 149.188C234.968 147.5 233.719 146.29 232.223 146.29C231.324 146.29 230.553 146.729 230.075 147.449H230.007C230.012 145.322 230.838 144.091 232.189 144.091C233.11 144.091 233.664 144.67 233.86 145.455H234.899C234.686 144.099 233.655 143.153 232.189 143.153C230.225 143.153 229.019 144.892 229.019 147.977C229.019 151.203 230.621 152.102 232.053 152.119ZM232.053 151.182C230.958 151.182 230.156 150.249 230.161 149.205C230.165 148.161 231.004 147.227 232.087 147.227C233.156 147.227 233.945 148.105 233.945 149.188C233.945 150.295 233.122 151.182 232.053 151.182Z" fill="black"/>
<path d="M212 128V127.5H211.5V128H212ZM252 128H252.5V127.5H252V128ZM252 168V168.5H252.5V168H252ZM212 168H211.5V168.5H212V168ZM212 128.5H252V127.5H212V128.5ZM251.5 128V168H252.5V128H251.5ZM252 167.5H212V168.5H252V167.5ZM212.5 168V128H211.5V168H212.5Z" fill="#DFDFDF"/>
<path d="M269.752 152H270.86L274.746 144.261V143.273H269.155V144.21H273.655V144.278L269.752 152Z" fill="black"/>
<path d="M252 128V127.5H251.5V128H252ZM292 128H292.5V127.5H292V128ZM292 168V168.5H292.5V168H292ZM252 168H251.5V168.5H252V168ZM252 128.5H292V127.5H252V128.5ZM291.5 128V168H292.5V128H291.5ZM292 167.5H252V168.5H292V167.5ZM252.5 168V128H251.5V168H252.5Z" fill="#DFDFDF"/>
<path d="M32.0016 192.119C33.7445 192.119 34.959 191.101 34.9675 189.682C34.959 188.578 34.2218 187.641 33.28 187.466V187.415C34.0982 187.202 34.6351 186.401 34.6436 185.472C34.6351 184.142 33.5186 183.153 32.0016 183.153C30.4675 183.153 29.351 184.142 29.3596 185.472C29.351 186.401 29.888 187.202 30.7232 187.415V187.466C29.7644 187.641 29.0272 188.578 29.0357 189.682C29.0272 191.101 30.2417 192.119 32.0016 192.119ZM32.0016 191.182C30.8042 191.182 30.0669 190.568 30.0755 189.631C30.0669 188.646 30.8809 187.943 32.0016 187.943C33.1053 187.943 33.9192 188.646 33.9277 189.631C33.9192 190.568 33.182 191.182 32.0016 191.182ZM32.0016 187.04C31.0471 187.04 30.3738 186.443 30.3823 185.54C30.3738 184.653 31.0215 184.074 32.0016 184.074C32.9647 184.074 33.6124 184.653 33.6209 185.54C33.6124 186.443 32.9391 187.04 32.0016 187.04Z" fill="black"/>
<path d="M12 168V167.5H11.5V168H12ZM52 168H52.5V167.5H52V168ZM52 208V208.5H52.5V208H52ZM12 208H11.5V208.5H12V208ZM12 168.5H52V167.5H12V168.5ZM51.5 168V208H52.5V168H51.5ZM52 207.5H12V208.5H52V207.5ZM12.5 208V168H11.5V208H12.5Z" fill="#DFDFDF"/>
<path d="M71.9334 183.153C70.1607 183.132 69.0186 184.466 69.0186 186.068C69.0186 187.756 70.263 188.966 71.763 188.966C72.6664 188.966 73.4334 188.523 73.9107 187.807H73.9789C73.9789 189.955 73.1436 191.182 71.7971 191.182C70.8766 191.182 70.3141 190.602 70.1266 189.801H69.0868C69.2914 191.182 70.3311 192.119 71.7971 192.119C73.7573 192.119 74.9675 190.381 74.9675 187.278C74.9675 184.074 73.3652 183.17 71.9334 183.153ZM71.9334 184.091C73.0243 184.091 73.8255 185.028 73.8255 186.051C73.8255 187.091 72.9732 188.028 71.8993 188.028C70.8255 188.028 70.0414 187.159 70.0414 186.068C70.0414 184.977 70.8596 184.091 71.9334 184.091Z" fill="black"/>
<path d="M52 168V167.5H51.5V168H52ZM92 168H92.5V167.5H92V168ZM92 208V208.5H92.5V208H92ZM52 208H51.5V208.5H52V208ZM52 168.5H92V167.5H52V168.5ZM91.5 168V208H92.5V168H91.5ZM92 207.5H52V208.5H92V207.5ZM52.5 208V168H51.5V208H52.5Z" fill="#DFDFDF"/>
<path d="M109.293 183.273H108.236L106.054 184.722V185.795L108.185 184.381H108.236V192H109.293V183.273ZM115.886 192.119C117.812 192.119 118.92 190.487 118.92 187.636C118.92 184.807 117.795 183.153 115.886 183.153C113.977 183.153 112.852 184.807 112.852 187.636C112.852 190.487 113.96 192.119 115.886 192.119ZM115.886 191.182C114.616 191.182 113.875 189.908 113.875 187.636C113.875 185.369 114.625 184.074 115.886 184.074C117.148 184.074 117.898 185.369 117.898 187.636C117.898 189.908 117.156 191.182 115.886 191.182Z" fill="black"/>
<path d="M92 168V167.5H91.5V168H92ZM132 168H132.5V167.5H132V168ZM132 208V208.5H132.5V208H132ZM92 208H91.5V208.5H92V208ZM92 168.5H132V167.5H92V168.5ZM131.5 168V208H132.5V168H131.5ZM132 207.5H92V208.5H132V207.5ZM92.5 208V168H91.5V208H92.5Z" fill="#DFDFDF"/>
<path d="M149.293 183.273H148.236L146.054 184.722V185.795L148.185 184.381H148.236V192H149.293V183.273ZM157.062 183.273H156.006L153.824 184.722V185.795L155.955 184.381H156.006V192H157.062V183.273Z" fill="black"/>
<path d="M132 168V167.5H131.5V168H132ZM172 168H172.5V167.5H172V168ZM172 208V208.5H172.5V208H172ZM132 208H131.5V208.5H132V208ZM132 168.5H172V167.5H132V168.5ZM171.5 168V208H172.5V168H171.5ZM172 207.5H132V208.5H172V207.5ZM132.5 208V168H131.5V208H132.5Z" fill="#DFDFDF"/>
<path d="M189.293 183.273H188.236L186.054 184.722V185.795L188.185 184.381H188.236V192H189.293V183.273ZM193.159 192H198.665V191.062H194.608V190.994L196.568 188.898C198.068 187.291 198.511 186.541 198.511 185.574C198.511 184.227 197.42 183.153 195.886 183.153C194.357 183.153 193.193 184.193 193.193 185.727H194.199C194.199 184.734 194.842 184.074 195.852 184.074C196.798 184.074 197.523 184.653 197.523 185.574C197.523 186.379 197.05 186.976 196.04 188.08L193.159 191.233V192Z" fill="black"/>
<path d="M172 168V167.5H171.5V168H172ZM212 168H212.5V167.5H212V168ZM212 208V208.5H212.5V208H212ZM172 208H171.5V208.5H172V208ZM172 168.5H212V167.5H172V168.5ZM211.5 168V208H212.5V168H211.5ZM212 207.5H172V208.5H212V207.5ZM172.5 208V168H171.5V208H172.5Z" fill="#DFDFDF"/>
<path d="M229.293 183.273H228.236L226.054 184.722V185.795L228.185 184.381H228.236V192H229.293V183.273ZM235.92 192.119C237.612 192.119 238.869 191.058 238.869 189.631C238.869 188.523 238.213 187.717 237.114 187.534V187.466C237.996 187.197 238.545 186.473 238.545 185.489C238.545 184.253 237.57 183.153 235.955 183.153C234.446 183.153 233.193 184.082 233.142 185.455H234.165C234.203 184.585 235.03 184.074 235.938 184.074C236.901 184.074 237.523 184.658 237.523 185.54C237.523 186.46 236.803 187.057 235.767 187.057H235.068V187.994H235.767C237.092 187.994 237.83 188.668 237.83 189.631C237.83 190.555 237.024 191.182 235.903 191.182C234.893 191.182 234.092 190.662 234.028 189.818H232.955C233.018 191.19 234.229 192.119 235.92 192.119Z" fill="black"/>
<path d="M212 168V167.5H211.5V168H212ZM252 168H252.5V167.5H252V168ZM252 208V208.5H252.5V208H252ZM212 208H211.5V208.5H212V208ZM212 168.5H252V167.5H212V168.5ZM251.5 168V208H252.5V168H251.5ZM252 207.5H212V208.5H252V207.5ZM212.5 208V168H211.5V208H212.5Z" fill="#DFDFDF"/>
<path d="M269.293 183.273H268.236L266.054 184.722V185.795L268.185 184.381H268.236V192H269.293V183.273ZM272.733 190.21H276.841V192H277.847V190.21H279.04V189.273H277.847V183.273H276.568L272.733 189.341V190.21ZM276.841 189.273H273.875V189.205L276.773 184.619H276.841V189.273Z" fill="black"/>
<path d="M252 168V167.5H251.5V168H252ZM292 168H292.5V167.5H292V168ZM292 208V208.5H292.5V208H292ZM252 208H251.5V208.5H252V208ZM252 168.5H292V167.5H252V168.5ZM291.5 168V208H292.5V168H291.5ZM292 207.5H252V208.5H292V207.5ZM252.5 208V168H251.5V208H252.5Z" fill="#DFDFDF"/>
<path d="M29.293 223.273H28.2362L26.0543 224.722V225.795L28.185 224.381H28.2362V232H29.293V223.273ZM35.8523 232.119C37.5142 232.119 38.733 230.892 38.733 229.222C38.733 227.53 37.5568 226.29 35.9545 226.29C35.3665 226.29 34.7955 226.499 34.4375 226.784H34.3864L34.6932 224.21H38.3409V223.273H33.8068L33.2784 227.568L34.267 227.688C34.6293 227.428 35.2472 227.24 35.7841 227.244C36.8963 227.253 37.7102 228.097 37.7102 229.239C37.7102 230.359 36.9261 231.182 35.8523 231.182C34.9574 231.182 34.2457 230.607 34.1648 229.818H33.142C33.206 231.148 34.3523 232.119 35.8523 232.119Z" fill="black"/>
<path d="M12 208V207.5H11.5V208H12ZM52 208H52.5V207.5H52V208ZM52 248V248.5H52.5V248H52ZM12 248H11.5V248.5H12V248ZM12 208.5H52V207.5H12V208.5ZM51.5 208V248H52.5V208H51.5ZM52 247.5H12V248.5H52V247.5ZM12.5 248V208H11.5V248H12.5Z" fill="#DFDFDF"/>
<path d="M69.293 223.273H68.2362L66.0543 224.722V225.795L68.185 224.381H68.2362V232H69.293V223.273ZM75.9375 232.119C77.7017 232.141 78.8523 230.811 78.8523 229.188C78.8523 227.5 77.6037 226.29 76.108 226.29C75.2088 226.29 74.4375 226.729 73.9602 227.449H73.892C73.8963 225.322 74.723 224.091 76.0739 224.091C76.9943 224.091 77.5483 224.67 77.7443 225.455H78.7841C78.571 224.099 77.5398 223.153 76.0739 223.153C74.1094 223.153 72.9034 224.892 72.9034 227.977C72.9034 231.203 74.5057 232.102 75.9375 232.119ZM75.9375 231.182C74.8423 231.182 74.0412 230.249 74.0455 229.205C74.0497 228.161 74.8892 227.227 75.9716 227.227C77.0412 227.227 77.8295 228.105 77.8295 229.188C77.8295 230.295 77.0071 231.182 75.9375 231.182Z" fill="black"/>
<path d="M52 208V207.5H51.5V208H52ZM92 208H92.5V207.5H92V208ZM92 248V248.5H92.5V248H92ZM52 248H51.5V248.5H52V248ZM52 208.5H92V207.5H52V208.5ZM91.5 208V248H92.5V208H91.5ZM92 247.5H52V248.5H92V247.5ZM52.5 248V208H51.5V248H52.5Z" fill="#DFDFDF"/>
<path d="M109.293 223.273H108.236L106.054 224.722V225.795L108.185 224.381H108.236V232H109.293V223.273ZM113.636 232H114.744L118.631 224.261V223.273H113.04V224.21H117.54V224.278L113.636 232Z" fill="black"/>
<path d="M92 208V207.5H91.5V208H92ZM132 208H132.5V207.5H132V208ZM132 248V248.5H132.5V248H132ZM92 248H91.5V248.5H92V248ZM92 208.5H132V207.5H92V208.5ZM131.5 208V248H132.5V208H131.5ZM132 247.5H92V248.5H132V247.5ZM92.5 248V208H91.5V248H92.5Z" fill="#DFDFDF"/>
<path d="M132 208H172V248H132V208Z" fill="#F3F2EE"/>
<path d="M149.293 223.273H148.236L146.054 224.722V225.795L148.185 224.381H148.236V232H149.293V223.273ZM155.886 232.119C157.629 232.119 158.844 231.101 158.852 229.682C158.844 228.578 158.107 227.641 157.165 227.466V227.415C157.983 227.202 158.52 226.401 158.528 225.472C158.52 224.142 157.403 223.153 155.886 223.153C154.352 223.153 153.236 224.142 153.244 225.472C153.236 226.401 153.773 227.202 154.608 227.415V227.466C153.649 227.641 152.912 228.578 152.92 229.682C152.912 231.101 154.126 232.119 155.886 232.119ZM155.886 231.182C154.689 231.182 153.952 230.568 153.96 229.631C153.952 228.646 154.766 227.943 155.886 227.943C156.99 227.943 157.804 228.646 157.812 229.631C157.804 230.568 157.067 231.182 155.886 231.182ZM155.886 227.04C154.932 227.04 154.259 226.443 154.267 225.54C154.259 224.653 154.906 224.074 155.886 224.074C156.849 224.074 157.497 224.653 157.506 225.54C157.497 226.443 156.824 227.04 155.886 227.04Z" fill="black"/>
<path d="M132 208V207.5H131.5V208H132ZM172 208H172.5V207.5H172V208ZM172 248V248.5H172.5V248H172ZM132 248H131.5V248.5H132V248ZM132 208.5H172V207.5H132V208.5ZM171.5 208V248H172.5V208H171.5ZM172 247.5H132V248.5H172V247.5ZM132.5 248V208H131.5V248H132.5Z" fill="#DFDFDF"/>
<path d="M189.293 223.273H188.236L186.054 224.722V225.795L188.185 224.381H188.236V232H189.293V223.273ZM195.818 223.153C194.045 223.132 192.903 224.466 192.903 226.068C192.903 227.756 194.148 228.966 195.648 228.966C196.551 228.966 197.318 228.523 197.795 227.807H197.864C197.864 229.955 197.028 231.182 195.682 231.182C194.761 231.182 194.199 230.602 194.011 229.801H192.972C193.176 231.182 194.216 232.119 195.682 232.119C197.642 232.119 198.852 230.381 198.852 227.278C198.852 224.074 197.25 223.17 195.818 223.153ZM195.818 224.091C196.909 224.091 197.71 225.028 197.71 226.051C197.71 227.091 196.858 228.028 195.784 228.028C194.71 228.028 193.926 227.159 193.926 226.068C193.926 224.977 194.744 224.091 195.818 224.091Z" fill="black"/>
<path d="M172 208V207.5H171.5V208H172ZM212 208H212.5V207.5H212V208ZM212 248V248.5H212.5V248H212ZM172 248H171.5V248.5H172V248ZM172 208.5H212V207.5H172V208.5ZM211.5 208V248H212.5V208H211.5ZM212 247.5H172V248.5H212V247.5ZM172.5 248V208H171.5V248H172.5Z" fill="#DFDFDF"/>
<path d="M225.39 232H230.895V231.062H226.838V230.994L228.799 228.898C230.299 227.291 230.742 226.541 230.742 225.574C230.742 224.227 229.651 223.153 228.117 223.153C226.587 223.153 225.424 224.193 225.424 225.727H226.429C226.429 224.734 227.073 224.074 228.083 224.074C229.029 224.074 229.753 224.653 229.753 225.574C229.753 226.379 229.28 226.976 228.27 228.08L225.39 231.233V232ZM235.886 232.119C237.812 232.119 238.92 230.487 238.92 227.636C238.92 224.807 237.795 223.153 235.886 223.153C233.977 223.153 232.852 224.807 232.852 227.636C232.852 230.487 233.96 232.119 235.886 232.119ZM235.886 231.182C234.616 231.182 233.875 229.908 233.875 227.636C233.875 225.369 234.625 224.074 235.886 224.074C237.148 224.074 237.898 225.369 237.898 227.636C237.898 229.908 237.156 231.182 235.886 231.182Z" fill="black"/>
<path d="M212 208V207.5H211.5V208H212ZM252 208H252.5V207.5H252V208ZM252 248V248.5H252.5V248H252ZM212 248H211.5V248.5H212V248ZM212 208.5H252V207.5H212V208.5ZM251.5 208V248H252.5V208H251.5ZM252 247.5H212V248.5H252V247.5ZM212.5 248V208H211.5V248H212.5Z" fill="#DFDFDF"/>
<path d="M265.39 232H270.895V231.062H266.838V230.994L268.799 228.898C270.299 227.291 270.742 226.541 270.742 225.574C270.742 224.227 269.651 223.153 268.117 223.153C266.587 223.153 265.424 224.193 265.424 225.727H266.429C266.429 224.734 267.073 224.074 268.083 224.074C269.029 224.074 269.753 224.653 269.753 225.574C269.753 226.379 269.28 226.976 268.27 228.08L265.39 231.233V232ZM277.062 223.273H276.006L273.824 224.722V225.795L275.955 224.381H276.006V232H277.062V223.273Z" fill="black"/>
<path d="M252 208V207.5H251.5V208H252ZM292 208H292.5V207.5H292V208ZM292 248V248.5H292.5V248H292ZM252 248H251.5V248.5H252V248ZM252 208.5H292V207.5H252V208.5ZM291.5 208V248H292.5V208H291.5ZM292 247.5H252V248.5H292V247.5ZM252.5 248V208H251.5V248H252.5Z" fill="#DFDFDF"/>
<rect width="40" height="40" transform="translate(12 248)" fill="#00C2BA"/>
<path d="M25.0188 272H31.0018V270.679H27.2006V270.619L28.7049 269.089C30.4009 267.462 30.8697 266.669 30.8697 265.685C30.8697 264.223 29.6808 263.153 27.9251 263.153C26.195 263.153 24.9677 264.227 24.9677 265.885H26.4719C26.4719 264.994 27.0344 264.436 27.9038 264.436C28.7347 264.436 29.3526 264.943 29.3526 265.766C29.3526 266.494 28.9094 267.014 28.0487 267.888L25.0188 270.858V272ZM33.0696 272H39.0526V270.679H35.2514V270.619L36.7557 269.089C38.4517 267.462 38.9205 266.669 38.9205 265.685C38.9205 264.223 37.7315 263.153 35.9759 263.153C34.2457 263.153 33.0185 264.227 33.0185 265.885H34.5227C34.5227 264.994 35.0852 264.436 35.9545 264.436C36.7855 264.436 37.4034 264.943 37.4034 265.766C37.4034 266.494 36.9602 267.014 36.0994 267.888L33.0696 270.858V272Z" fill="white"/>
<path d="M65.3896 272H70.8952V271.062H66.8384V270.994L68.7987 268.898C70.2987 267.291 70.7418 266.541 70.7418 265.574C70.7418 264.227 69.6509 263.153 68.1168 263.153C66.587 263.153 65.4237 264.193 65.4237 265.727H66.4293C66.4293 264.734 67.0728 264.074 68.0827 264.074C69.0288 264.074 69.7532 264.653 69.7532 265.574C69.7532 266.379 69.2802 266.976 68.2702 268.08L65.3896 271.233V272ZM75.9205 272.119C77.6122 272.119 78.8693 271.058 78.8693 269.631C78.8693 268.523 78.2131 267.717 77.1136 267.534V267.466C77.9957 267.197 78.5455 266.473 78.5455 265.489C78.5455 264.253 77.5696 263.153 75.9545 263.153C74.446 263.153 73.1932 264.082 73.142 265.455H74.1648C74.2031 264.585 75.0298 264.074 75.9375 264.074C76.9006 264.074 77.5227 264.658 77.5227 265.54C77.5227 266.46 76.8026 267.057 75.767 267.057H75.0682V267.994H75.767C77.0923 267.994 77.8295 268.668 77.8295 269.631C77.8295 270.555 77.0241 271.182 75.9034 271.182C74.8935 271.182 74.0923 270.662 74.0284 269.818H72.9545C73.0185 271.19 74.2287 272.119 75.9205 272.119Z" fill="black"/>
<path d="M52 248V247.5H51.5V248H52ZM92 248H92.5V247.5H92V248ZM92 288V288.5H92.5V288H92ZM52 288H51.5V288.5H52V288ZM52 248.5H92V247.5H52V248.5ZM91.5 248V288H92.5V248H91.5ZM92 287.5H52V288.5H92V287.5ZM52.5 288V248H51.5V288H52.5Z" fill="#DFDFDF"/>
<path d="M105.39 272H110.895V271.062H106.838V270.994L108.799 268.898C110.299 267.291 110.742 266.541 110.742 265.574C110.742 264.227 109.651 263.153 108.117 263.153C106.587 263.153 105.424 264.193 105.424 265.727H106.429C106.429 264.734 107.073 264.074 108.083 264.074C109.029 264.074 109.753 264.653 109.753 265.574C109.753 266.379 109.28 266.976 108.27 268.08L105.39 271.233V272ZM112.733 270.21H116.841V272H117.847V270.21H119.04V269.273H117.847V263.273H116.568L112.733 269.341V270.21ZM116.841 269.273H113.875V269.205L116.773 264.619H116.841V269.273Z" fill="black"/>
<path d="M92 248V247.5H91.5V248H92ZM132 248H132.5V247.5H132V248ZM132 288V288.5H132.5V288H132ZM92 288H91.5V288.5H92V288ZM92 248.5H132V247.5H92V248.5ZM131.5 248V288H132.5V248H131.5ZM132 287.5H92V288.5H132V287.5ZM92.5 288V248H91.5V288H92.5Z" fill="#DFDFDF"/>
<path d="M145.39 272H150.895V271.062H146.838V270.994L148.799 268.898C150.299 267.291 150.742 266.541 150.742 265.574C150.742 264.227 149.651 263.153 148.117 263.153C146.587 263.153 145.424 264.193 145.424 265.727H146.429C146.429 264.734 147.073 264.074 148.083 264.074C149.029 264.074 149.753 264.653 149.753 265.574C149.753 266.379 149.28 266.976 148.27 268.08L145.39 271.233V272ZM155.852 272.119C157.514 272.119 158.733 270.892 158.733 269.222C158.733 267.53 157.557 266.29 155.955 266.29C155.366 266.29 154.795 266.499 154.438 266.784H154.386L154.693 264.21H158.341V263.273H153.807L153.278 267.568L154.267 267.688C154.629 267.428 155.247 267.24 155.784 267.244C156.896 267.253 157.71 268.097 157.71 269.239C157.71 270.359 156.926 271.182 155.852 271.182C154.957 271.182 154.246 270.607 154.165 269.818H153.142C153.206 271.148 154.352 272.119 155.852 272.119Z" fill="black"/>
<path d="M132 248V247.5H131.5V248H132ZM172 248H172.5V247.5H172V248ZM172 288V288.5H172.5V288H172ZM132 288H131.5V288.5H132V288ZM132 248.5H172V247.5H132V248.5ZM171.5 248V288H172.5V248H171.5ZM172 287.5H132V288.5H172V287.5ZM132.5 288V248H131.5V288H132.5Z" fill="#DFDFDF"/>
<path d="M185.39 272H190.895V271.062H186.838V270.994L188.799 268.898C190.299 267.291 190.742 266.541 190.742 265.574C190.742 264.227 189.651 263.153 188.117 263.153C186.587 263.153 185.424 264.193 185.424 265.727H186.429C186.429 264.734 187.073 264.074 188.083 264.074C189.029 264.074 189.753 264.653 189.753 265.574C189.753 266.379 189.28 266.976 188.27 268.08L185.39 271.233V272ZM195.938 272.119C197.702 272.141 198.852 270.811 198.852 269.188C198.852 267.5 197.604 266.29 196.108 266.29C195.209 266.29 194.438 266.729 193.96 267.449H193.892C193.896 265.322 194.723 264.091 196.074 264.091C196.994 264.091 197.548 264.67 197.744 265.455H198.784C198.571 264.099 197.54 263.153 196.074 263.153C194.109 263.153 192.903 264.892 192.903 267.977C192.903 271.203 194.506 272.102 195.938 272.119ZM195.938 271.182C194.842 271.182 194.041 270.249 194.045 269.205C194.05 268.161 194.889 267.227 195.972 267.227C197.041 267.227 197.83 268.105 197.83 269.188C197.83 270.295 197.007 271.182 195.938 271.182Z" fill="black"/>
<path d="M172 248V247.5H171.5V248H172ZM212 248H212.5V247.5H212V248ZM212 288V288.5H212.5V288H212ZM172 288H171.5V288.5H172V288ZM172 248.5H212V247.5H172V248.5ZM211.5 248V288H212.5V248H211.5ZM212 287.5H172V288.5H212V287.5ZM172.5 288V248H171.5V288H172.5Z" fill="#DFDFDF"/>
<path d="M225.39 272H230.895V271.062H226.838V270.994L228.799 268.898C230.299 267.291 230.742 266.541 230.742 265.574C230.742 264.227 229.651 263.153 228.117 263.153C226.587 263.153 225.424 264.193 225.424 265.727H226.429C226.429 264.734 227.073 264.074 228.083 264.074C229.029 264.074 229.753 264.653 229.753 265.574C229.753 266.379 229.28 266.976 228.27 268.08L225.39 271.233V272ZM233.636 272H234.744L238.631 264.261V263.273H233.04V264.21H237.54V264.278L233.636 272Z" fill="black"/>
<path d="M212 248V247.5H211.5V248H212ZM252 248H252.5V247.5H252V248ZM252 288V288.5H252.5V288H252ZM212 288H211.5V288.5H212V288ZM212 248.5H252V247.5H212V248.5ZM251.5 248V288H252.5V248H251.5ZM252 287.5H212V288.5H252V287.5ZM212.5 288V248H211.5V288H212.5Z" fill="#DFDFDF"/>
<path d="M265.39 272H270.895V271.062H266.838V270.994L268.799 268.898C270.299 267.291 270.742 266.541 270.742 265.574C270.742 264.227 269.651 263.153 268.117 263.153C266.587 263.153 265.424 264.193 265.424 265.727H266.429C266.429 264.734 267.073 264.074 268.083 264.074C269.029 264.074 269.753 264.653 269.753 265.574C269.753 266.379 269.28 266.976 268.27 268.08L265.39 271.233V272ZM275.886 272.119C277.629 272.119 278.844 271.101 278.852 269.682C278.844 268.578 278.107 267.641 277.165 267.466V267.415C277.983 267.202 278.52 266.401 278.528 265.472C278.52 264.142 277.403 263.153 275.886 263.153C274.352 263.153 273.236 264.142 273.244 265.472C273.236 266.401 273.773 267.202 274.608 267.415V267.466C273.649 267.641 272.912 268.578 272.92 269.682C272.912 271.101 274.126 272.119 275.886 272.119ZM275.886 271.182C274.689 271.182 273.952 270.568 273.96 269.631C273.952 268.646 274.766 267.943 275.886 267.943C276.99 267.943 277.804 268.646 277.812 269.631C277.804 270.568 277.067 271.182 275.886 271.182ZM275.886 267.04C274.932 267.04 274.259 266.443 274.267 265.54C274.259 264.653 274.906 264.074 275.886 264.074C276.849 264.074 277.497 264.653 277.506 265.54C277.497 266.443 276.824 267.04 275.886 267.04Z" fill="black"/>
<path d="M252 248V247.5H251.5V248H252ZM292 248H292.5V247.5H292V248ZM292 288V288.5H292.5V288H292ZM252 288H251.5V288.5H252V288ZM252 248.5H292V247.5H252V248.5ZM291.5 248V288H292.5V248H291.5ZM292 287.5H252V288.5H292V287.5ZM252.5 288V248H251.5V288H252.5Z" fill="#DFDFDF"/>
<path d="M25.3896 312H30.8952V311.062H26.8384V310.994L28.7987 308.898C30.2987 307.291 30.7418 306.541 30.7418 305.574C30.7418 304.227 29.6509 303.153 28.1168 303.153C26.587 303.153 25.4237 304.193 25.4237 305.727H26.4293C26.4293 304.734 27.0728 304.074 28.0827 304.074C29.0288 304.074 29.7532 304.653 29.7532 305.574C29.7532 306.379 29.2802 306.976 28.2702 308.08L25.3896 311.233V312ZM35.8182 303.153C34.0455 303.132 32.9034 304.466 32.9034 306.068C32.9034 307.756 34.1477 308.966 35.6477 308.966C36.5511 308.966 37.3182 308.523 37.7955 307.807H37.8636C37.8636 309.955 37.0284 311.182 35.6818 311.182C34.7614 311.182 34.1989 310.602 34.0114 309.801H32.9716C33.1761 311.182 34.2159 312.119 35.6818 312.119C37.642 312.119 38.8523 310.381 38.8523 307.278C38.8523 304.074 37.25 303.17 35.8182 303.153ZM35.8182 304.091C36.9091 304.091 37.7102 305.028 37.7102 306.051C37.7102 307.091 36.858 308.028 35.7841 308.028C34.7102 308.028 33.9261 307.159 33.9261 306.068C33.9261 304.977 34.7443 304.091 35.8182 304.091Z" fill="black"/>
<path d="M12 288V287.5H11.5V288H12ZM52 288H52.5V287.5H52V288ZM52 328V328.5H52.5V328H52ZM12 328H11.5V328.5H12V328ZM12 288.5H52V287.5H12V288.5ZM51.5 288V328H52.5V288H51.5ZM52 327.5H12V328.5H52V327.5ZM12.5 328V288H11.5V328H12.5Z" fill="#DFDFDF"/>
<path d="M68.1509 312.119C69.8427 312.119 71.0998 311.058 71.0998 309.631C71.0998 308.523 70.4435 307.717 69.3441 307.534V307.466C70.2262 307.197 70.7759 306.473 70.7759 305.489C70.7759 304.253 69.8001 303.153 68.185 303.153C66.6765 303.153 65.4237 304.082 65.3725 305.455H66.3952C66.4336 304.585 67.2603 304.074 68.168 304.074C69.131 304.074 69.7532 304.658 69.7532 305.54C69.7532 306.46 69.033 307.057 67.9975 307.057H67.2987V307.994H67.9975C69.3228 307.994 70.06 308.668 70.06 309.631C70.06 310.555 69.2546 311.182 68.1339 311.182C67.1239 311.182 66.3228 310.662 66.2589 309.818H65.185C65.2489 311.19 66.4592 312.119 68.1509 312.119ZM75.8864 312.119C77.8125 312.119 78.9205 310.487 78.9205 307.636C78.9205 304.807 77.7955 303.153 75.8864 303.153C73.9773 303.153 72.8523 304.807 72.8523 307.636C72.8523 310.487 73.9602 312.119 75.8864 312.119ZM75.8864 311.182C74.6165 311.182 73.875 309.908 73.875 307.636C73.875 305.369 74.625 304.074 75.8864 304.074C77.1477 304.074 77.8977 305.369 77.8977 307.636C77.8977 309.908 77.1562 311.182 75.8864 311.182Z" fill="black"/>
<path d="M52 288V287.5H51.5V288H52ZM92 288H92.5V287.5H92V288ZM92 328V328.5H92.5V328H92ZM52 328H51.5V328.5H52V328ZM52 288.5H92V287.5H52V288.5ZM91.5 288V328H92.5V288H91.5ZM92 327.5H52V328.5H92V327.5ZM52.5 328V288H51.5V328H52.5Z" fill="#DFDFDF"/>
<path d="M92 288H132V328H92V288Z" fill="#FCFCFC"/>
<path d="M113.178 303.273H112.121L109.939 304.722V305.795L112.07 304.381H112.121V312H113.178V303.273Z" fill="#747474"/>
<path d="M92 288V287.5H91.5V288H92ZM132 288H132.5V287.5H132V288ZM132 328V328.5H132.5V328H132ZM92 328H91.5V328.5H92V328ZM92 288.5H132V287.5H92V288.5ZM131.5 288V328H132.5V288H131.5ZM132 327.5H92V328.5H132V327.5ZM92.5 328V288H91.5V328H92.5Z" fill="#DFDFDF"/>
<path d="M132 288H172V328H132V288Z" fill="#FCFCFC"/>
<path d="M149.274 312H154.78V311.062H150.723V310.994L152.683 308.898C154.183 307.291 154.627 306.541 154.627 305.574C154.627 304.227 153.536 303.153 152.002 303.153C150.472 303.153 149.308 304.193 149.308 305.727H150.314C150.314 304.734 150.958 304.074 151.968 304.074C152.914 304.074 153.638 304.653 153.638 305.574C153.638 306.379 153.165 306.976 152.155 308.08L149.274 311.233V312Z" fill="#747474"/>
<path d="M132 288V287.5H131.5V288H132ZM172 288H172.5V287.5H172V288ZM172 328V328.5H172.5V328H172ZM132 328H131.5V328.5H132V328ZM132 288.5H172V287.5H132V288.5ZM171.5 288V328H172.5V288H171.5ZM172 327.5H132V328.5H172V327.5ZM132.5 328V288H131.5V328H132.5Z" fill="#DFDFDF"/>
<path d="M172 288H212V328H172V288Z" fill="#FCFCFC"/>
<path d="M192.036 312.119C193.727 312.119 194.985 311.058 194.985 309.631C194.985 308.523 194.328 307.717 193.229 307.534V307.466C194.111 307.197 194.661 306.473 194.661 305.489C194.661 304.253 193.685 303.153 192.07 303.153C190.561 303.153 189.308 304.082 189.257 305.455H190.28C190.318 304.585 191.145 304.074 192.053 304.074C193.016 304.074 193.638 304.658 193.638 305.54C193.638 306.46 192.918 307.057 191.882 307.057H191.183V307.994H191.882C193.208 307.994 193.945 308.668 193.945 309.631C193.945 310.555 193.139 311.182 192.019 311.182C191.009 311.182 190.208 310.662 190.144 309.818H189.07C189.134 311.19 190.344 312.119 192.036 312.119Z" fill="#747474"/>
<path d="M172 288V287.5H171.5V288H172ZM212 288H212.5V287.5H212V288ZM212 328V328.5H212.5V328H212ZM172 328H171.5V328.5H172V328ZM172 288.5H212V287.5H172V288.5ZM211.5 288V328H212.5V288H211.5ZM212 327.5H172V328.5H212V327.5ZM172.5 328V288H171.5V328H172.5Z" fill="#DFDFDF"/>
<path d="M212 288H252V328H212V288Z" fill="#FCFCFC"/>
<path d="M228.848 310.21H232.956V312H233.962V310.21H235.155V309.273H233.962V303.273H232.683L228.848 309.341V310.21ZM232.956 309.273H229.99V309.205L232.888 304.619H232.956V309.273Z" fill="#747474"/>
<path d="M212 288V287.5H211.5V288H212ZM252 288H252.5V287.5H252V288ZM252 328V328.5H252.5V328H252ZM212 328H211.5V328.5H212V328ZM212 288.5H252V287.5H212V288.5ZM251.5 288V328H252.5V288H251.5ZM252 327.5H212V328.5H252V327.5ZM212.5 328V288H211.5V328H212.5Z" fill="#DFDFDF"/>
<path d="M252 288H292V328H252V288Z" fill="#FCFCFC"/>
<path d="M271.968 312.119C273.629 312.119 274.848 310.892 274.848 309.222C274.848 307.53 273.672 306.29 272.07 306.29C271.482 306.29 270.911 306.499 270.553 306.784H270.502L270.808 304.21H274.456V303.273H269.922L269.394 307.568L270.382 307.688C270.744 307.428 271.362 307.24 271.899 307.244C273.012 307.253 273.825 308.097 273.825 309.239C273.825 310.359 273.041 311.182 271.968 311.182C271.073 311.182 270.361 310.607 270.28 309.818H269.257C269.321 311.148 270.468 312.119 271.968 312.119Z" fill="#747474"/>
<path d="M252 288V287.5H251.5V288H252ZM292 288H292.5V287.5H292V288ZM292 328V328.5H292.5V328H292ZM252 328H251.5V328.5H252V328ZM252 288.5H292V287.5H252V288.5ZM291.5 288V328H292.5V288H291.5ZM292 327.5H252V328.5H292V327.5ZM252.5 328V288H251.5V328H252.5Z" fill="#DFDFDF"/>
<path d="M13.386 60V47.31H18.102C20.226 47.31 21.864 47.856 23.016 48.948C24.18 50.04 24.762 51.606 24.762 53.646C24.762 55.674 24.18 57.24 23.016 58.344C21.864 59.448 20.226 60 18.102 60H13.386ZM15.69 58.092H17.958C20.886 58.092 22.35 56.61 22.35 53.646C22.35 50.694 20.886 49.218 17.958 49.218H15.69V58.092ZM31.2189 60.18C30.2229 60.18 29.3649 59.994 28.6449 59.622C27.9249 59.25 27.3669 58.722 26.9709 58.038C26.5869 57.354 26.3949 56.544 26.3949 55.608C26.3949 54.696 26.5809 53.898 26.9529 53.214C27.3369 52.53 27.8589 51.996 28.5189 51.612C29.1909 51.216 29.9529 51.018 30.8049 51.018C32.0529 51.018 33.0369 51.414 33.7569 52.206C34.4889 52.998 34.8549 54.078 34.8549 55.446V56.112H28.5549C28.7229 57.684 29.6229 58.47 31.2549 58.47C31.7469 58.47 32.2389 58.398 32.7309 58.254C33.2229 58.098 33.6729 57.858 34.0809 57.534L34.7109 59.046C34.2909 59.394 33.7629 59.67 33.1269 59.874C32.4909 60.078 31.8549 60.18 31.2189 60.18ZM30.8949 52.548C30.2349 52.548 29.7009 52.752 29.2929 53.16C28.8849 53.568 28.6389 54.12 28.5549 54.816H32.9829C32.9349 54.084 32.7309 53.526 32.3709 53.142C32.0229 52.746 31.5309 52.548 30.8949 52.548ZM40.7048 60.18C39.7808 60.18 38.9768 59.994 38.2928 59.622C37.6088 59.238 37.0808 58.698 36.7088 58.002C36.3368 57.306 36.1508 56.49 36.1508 55.554C36.1508 54.618 36.3368 53.814 36.7088 53.142C37.0808 52.458 37.6088 51.936 38.2928 51.576C38.9768 51.204 39.7808 51.018 40.7048 51.018C41.2688 51.018 41.8268 51.108 42.3788 51.288C42.9308 51.468 43.3868 51.72 43.7468 52.044L43.0808 53.61C42.7688 53.334 42.4148 53.124 42.0188 52.98C41.6348 52.836 41.2628 52.764 40.9028 52.764C40.1228 52.764 39.5168 53.01 39.0848 53.502C38.6648 53.982 38.4548 54.672 38.4548 55.572C38.4548 56.46 38.6648 57.162 39.0848 57.678C39.5168 58.182 40.1228 58.434 40.9028 58.434C41.2508 58.434 41.6228 58.362 42.0188 58.218C42.4148 58.074 42.7688 57.858 43.0808 57.57L43.7468 59.154C43.3868 59.466 42.9248 59.718 42.3608 59.91C41.8088 60.09 41.2568 60.18 40.7048 60.18ZM49.2893 60.18C48.2933 60.18 47.4353 59.994 46.7153 59.622C45.9953 59.25 45.4373 58.722 45.0413 58.038C44.6573 57.354 44.4653 56.544 44.4653 55.608C44.4653 54.696 44.6513 53.898 45.0233 53.214C45.4073 52.53 45.9293 51.996 46.5893 51.612C47.2613 51.216 48.0233 51.018 48.8753 51.018C50.1233 51.018 51.1073 51.414 51.8273 52.206C52.5593 52.998 52.9253 54.078 52.9253 55.446V56.112H46.6253C46.7933 57.684 47.6933 58.47 49.3253 58.47C49.8173 58.47 50.3093 58.398 50.8013 58.254C51.2933 58.098 51.7433 57.858 52.1513 57.534L52.7812 59.046C52.3613 59.394 51.8333 59.67 51.1973 59.874C50.5613 60.078 49.9253 60.18 49.2893 60.18ZM48.9653 52.548C48.3053 52.548 47.7713 52.752 47.3633 53.16C46.9553 53.568 46.7093 54.12 46.6253 54.816H51.0533C51.0053 54.084 50.8013 53.526 50.4413 53.142C50.0933 52.746 49.6013 52.548 48.9653 52.548ZM54.7431 60V51.198H56.9391V52.548C57.2031 52.068 57.5691 51.696 58.0371 51.432C58.5051 51.156 59.0451 51.018 59.6571 51.018C60.9771 51.018 61.8411 51.594 62.2491 52.746C62.5251 52.206 62.9211 51.786 63.4371 51.486C63.9531 51.174 64.5411 51.018 65.2011 51.018C67.1811 51.018 68.1711 52.224 68.1711 54.636V60H65.9211V54.726C65.9211 54.054 65.8071 53.562 65.5791 53.25C65.3631 52.938 64.9911 52.782 64.4631 52.782C63.8751 52.782 63.4131 52.992 63.0771 53.412C62.7411 53.82 62.5731 54.39 62.5731 55.122V60H60.3231V54.726C60.3231 54.054 60.2091 53.562 59.9811 53.25C59.7651 52.938 59.3991 52.782 58.8831 52.782C58.2951 52.782 57.8331 52.992 57.4971 53.412C57.1611 53.82 56.9931 54.39 56.9931 55.122V60H54.7431ZM75.5683 60.18C74.9203 60.18 74.3383 60.036 73.8223 59.748C73.3183 59.46 72.9403 59.07 72.6883 58.578V60H70.4923V47.31H72.7423V52.494C73.0063 52.05 73.3843 51.696 73.8763 51.432C74.3803 51.156 74.9443 51.018 75.5683 51.018C76.3483 51.018 77.0263 51.204 77.6023 51.576C78.1783 51.948 78.6283 52.476 78.9523 53.16C79.2763 53.832 79.4383 54.642 79.4383 55.59C79.4383 56.526 79.2763 57.342 78.9523 58.038C78.6283 58.722 78.1723 59.25 77.5843 59.622C77.0083 59.994 76.3363 60.18 75.5683 60.18ZM74.9383 58.47C75.6103 58.47 76.1503 58.23 76.5583 57.75C76.9663 57.258 77.1703 56.538 77.1703 55.59C77.1703 54.63 76.9663 53.916 76.5583 53.448C76.1503 52.968 75.6103 52.728 74.9383 52.728C74.2663 52.728 73.7263 52.968 73.3183 53.448C72.9103 53.916 72.7063 54.63 72.7063 55.59C72.7063 56.538 72.9103 57.258 73.3183 57.75C73.7263 58.23 74.2663 58.47 74.9383 58.47ZM85.6232 60.18C84.6272 60.18 83.7692 59.994 83.0492 59.622C82.3292 59.25 81.7712 58.722 81.3752 58.038C80.9912 57.354 80.7992 56.544 80.7992 55.608C80.7992 54.696 80.9852 53.898 81.3572 53.214C81.7412 52.53 82.2632 51.996 82.9232 51.612C83.5952 51.216 84.3572 51.018 85.2092 51.018C86.4572 51.018 87.4412 51.414 88.1612 52.206C88.8932 52.998 89.2592 54.078 89.2592 55.446V56.112H82.9592C83.1272 57.684 84.0272 58.47 85.6592 58.47C86.1512 58.47 86.6432 58.398 87.1352 58.254C87.6272 58.098 88.0772 57.858 88.4852 57.534L89.1152 59.046C88.6952 59.394 88.1672 59.67 87.5312 59.874C86.8952 60.078 86.2592 60.18 85.6232 60.18ZM85.2992 52.548C84.6392 52.548 84.1052 52.752 83.6972 53.16C83.2892 53.568 83.0432 54.12 82.9592 54.816H87.3872C87.3392 54.084 87.1352 53.526 86.7752 53.142C86.4272 52.746 85.9352 52.548 85.2992 52.548ZM91.0411 60V51.198H93.2371V52.746C93.6691 51.702 94.5931 51.126 96.0091 51.018L96.6931 50.964L96.8371 52.872L95.5411 52.998C94.0651 53.142 93.3271 53.898 93.3271 55.266V60H91.0411ZM103.211 60V58.29L107.315 53.916C107.867 53.316 108.263 52.788 108.503 52.332C108.743 51.864 108.863 51.39 108.863 50.91C108.863 49.686 108.125 49.074 106.649 49.074C105.497 49.074 104.435 49.506 103.463 50.37L102.689 48.642C103.193 48.186 103.823 47.82 104.579 47.544C105.335 47.268 106.121 47.13 106.937 47.13C108.293 47.13 109.331 47.436 110.051 48.048C110.783 48.66 111.149 49.536 111.149 50.676C111.149 51.444 110.963 52.182 110.591 52.89C110.231 53.598 109.661 54.36 108.881 55.176L106.091 58.092H111.635V60H103.211ZM117.964 60.18C116.464 60.18 115.318 59.616 114.526 58.488C113.734 57.348 113.338 55.728 113.338 53.628C113.338 51.504 113.734 49.89 114.526 48.786C115.318 47.682 116.464 47.13 117.964 47.13C119.476 47.13 120.622 47.682 121.402 48.786C122.194 49.89 122.59 51.498 122.59 53.61C122.59 55.722 122.194 57.348 121.402 58.488C120.61 59.616 119.464 60.18 117.964 60.18ZM117.964 58.29C118.78 58.29 119.38 57.918 119.764 57.174C120.16 56.418 120.358 55.23 120.358 53.61C120.358 52.002 120.16 50.838 119.764 50.118C119.38 49.386 118.78 49.02 117.964 49.02C117.16 49.02 116.56 49.386 116.164 50.118C115.768 50.838 115.57 52.002 115.57 53.61C115.57 55.23 115.768 56.418 116.164 57.174C116.56 57.918 117.16 58.29 117.964 58.29ZM125.319 60V58.092H128.181V49.938L125.967 51.27L125.067 49.578L128.847 47.31H130.485V58.092H133.167V60H125.319ZM138.578 60.18C137.906 60.18 137.24 60.054 136.58 59.802C135.92 59.538 135.35 59.184 134.87 58.74L135.644 57.012C136.076 57.42 136.544 57.726 137.048 57.93C137.564 58.134 138.08 58.236 138.596 58.236C139.652 58.236 140.456 57.87 141.008 57.138C141.56 56.406 141.836 55.314 141.836 53.862V53.322C141.596 53.982 141.194 54.504 140.63 54.888C140.066 55.26 139.406 55.446 138.65 55.446C137.93 55.446 137.288 55.272 136.724 54.924C136.16 54.576 135.71 54.096 135.374 53.484C135.05 52.86 134.888 52.158 134.888 51.378C134.888 50.55 135.068 49.818 135.428 49.182C135.788 48.546 136.28 48.048 136.904 47.688C137.54 47.316 138.266 47.13 139.082 47.13C140.666 47.13 141.884 47.682 142.736 48.786C143.588 49.878 144.014 51.426 144.014 53.43C144.014 55.566 143.534 57.228 142.574 58.416C141.614 59.592 140.282 60.18 138.578 60.18ZM139.226 53.61C139.874 53.61 140.396 53.4 140.792 52.98C141.2 52.548 141.404 51.984 141.404 51.288C141.404 50.592 141.2 50.028 140.792 49.596C140.396 49.164 139.874 48.948 139.226 48.948C138.578 48.948 138.05 49.164 137.642 49.596C137.246 50.028 137.048 50.592 137.048 51.288C137.048 51.984 137.246 52.548 137.642 52.98C138.05 53.4 138.578 53.61 139.226 53.61Z" fill="black"/>
<g opacity="0.2">
<path fill-rule="evenodd" clip-rule="evenodd" d="M281.457 59.9571L280.043 58.5429L285.836 52.75L280.043 46.9571L281.457 45.5429L288.664 52.75L281.457 59.9571Z" fill="black"/>
</g>
<path fill-rule="evenodd" clip-rule="evenodd" d="M262.543 45.5429L263.957 46.9571L258.164 52.75L263.957 58.5429L262.543 59.9571L255.336 52.75L262.543 45.5429Z" fill="black"/>
</g>
<defs>
<filter id="filter0_d_95_309" x="0" y="0" width="303" height="365" filterUnits="userSpaceOnUse" color-interpolation-filters="sRGB">
<feFlood flood-opacity="0" result="BackgroundImageFix"/>
<feColorMatrix in="SourceAlpha" type="matrix" values="0 0 0 0 0 0 0 0 0 0 0 0 0 0 0 0 0 0 127 0" result="hardAlpha"/>
<feOffset dy="4"/>
<feGaussianBlur stdDeviation="2"/>
<feComposite in2="hardAlpha" operator="out"/>
<feColorMatrix type="matrix" values="0 0 0 0 0 0 0 0 0 0 0 0 0 0 0 0 0 0 0.25 0"/>
<feBlend mode="normal" in2="BackgroundImageFix" result="effect1_dropShadow_95_309"/>
<feBlend mode="normal" in="SourceGraphic" in2="effect1_dropShadow_95_309" result="shape"/>
</filter>
</defs>
</svg>
