<svg width="225" height="94" viewBox="0 0 225 94" fill="none" xmlns="http://www.w3.org/2000/svg">
<path d="M209.824 9.73865H180.608C175.229 9.73865 170.869 14.0988 170.869 19.4773V43.824C170.869 49.2026 175.229 53.5627 180.608 53.5627H209.824C215.202 53.5627 219.563 49.2026 219.563 43.824V19.4773C219.563 14.0988 215.202 9.73865 209.824 9.73865Z" stroke="black" stroke-width="2" stroke-linecap="round" stroke-linejoin="round"/>
<path d="M185.477 4.86932V14.608" stroke="black" stroke-width="2" stroke-linecap="round" stroke-linejoin="round"/>
<path d="M204.955 4.86932V14.608" stroke="black" stroke-width="2" stroke-linecap="round" stroke-linejoin="round"/>
<path d="M170.869 24.3467H219.563" stroke="black" stroke-width="2" stroke-linecap="round" stroke-linejoin="round"/>
<path d="M8.96908 35.0271C7.35575 35.0271 5.96975 34.7045 4.81108 34.0591C3.66708 33.3991 2.78708 32.4751 2.17108 31.2871C1.55508 30.0845 1.24708 28.6691 1.24708 27.0411C1.24708 25.4131 1.55508 24.0051 2.17108 22.8171C2.78708 21.6291 3.66708 20.7125 4.81108 20.0671C5.96975 19.4071 7.35575 19.0771 8.96908 19.0771C10.0104 19.0771 10.9931 19.2385 11.9171 19.5611C12.8557 19.8838 13.6257 20.3458 14.2271 20.9471L13.3031 23.1911C12.6431 22.6338 11.9684 22.2305 11.2791 21.9811C10.5897 21.7171 9.84908 21.5851 9.05708 21.5851C7.48775 21.5851 6.29242 22.0618 5.47108 23.0151C4.64975 23.9538 4.23908 25.2958 4.23908 27.0411C4.23908 28.7865 4.64975 30.1358 5.47108 31.0891C6.29242 32.0425 7.48775 32.5191 9.05708 32.5191C9.84908 32.5191 10.5897 32.3945 11.2791 32.1451C11.9684 31.8811 12.6431 31.4705 13.3031 30.9131L14.2271 33.1571C13.6257 33.7438 12.8557 34.2058 11.9171 34.5431C10.9931 34.8658 10.0104 35.0271 8.96908 35.0271ZM17.0807 34.8071V19.2971H19.8307V25.6111C20.1974 25.0245 20.6887 24.5845 21.3047 24.2911C21.9207 23.9831 22.6027 23.8291 23.3507 23.8291C25.8881 23.8291 27.1567 25.3031 27.1567 28.2511V34.8071H24.4067V28.3831C24.4067 27.5471 24.2454 26.9385 23.9227 26.5571C23.6147 26.1758 23.1307 25.9851 22.4707 25.9851C21.6641 25.9851 21.0187 26.2418 20.5347 26.7551C20.0654 27.2538 19.8307 27.9211 19.8307 28.7571V34.8071H17.0807ZM35.9119 35.0271C34.6945 35.0271 33.6459 34.7998 32.7659 34.3451C31.8859 33.8905 31.2039 33.2451 30.7199 32.4091C30.2505 31.5731 30.0159 30.5831 30.0159 29.4391C30.0159 28.3245 30.2432 27.3491 30.6979 26.5131C31.1672 25.6771 31.8052 25.0245 32.6119 24.5551C33.4332 24.0711 34.3645 23.8291 35.4059 23.8291C36.9312 23.8291 38.1339 24.3131 39.0139 25.2811C39.9085 26.2491 40.3559 27.5691 40.3559 29.2411V30.0551H32.6559C32.8612 31.9765 33.9612 32.9371 35.9559 32.9371C36.5572 32.9371 37.1585 32.8491 37.7599 32.6731C38.3612 32.4825 38.9112 32.1891 39.4099 31.7931L40.1799 33.6411C39.6665 34.0665 39.0212 34.4038 38.2439 34.6531C37.4665 34.9025 36.6892 35.0271 35.9119 35.0271ZM35.5159 25.6991C34.7092 25.6991 34.0565 25.9485 33.5579 26.4471C33.0592 26.9458 32.7585 27.6205 32.6559 28.4711H38.0679C38.0092 27.5765 37.7599 26.8945 37.3199 26.4251C36.8945 25.9411 36.2932 25.6991 35.5159 25.6991ZM48.1657 35.0271C47.0364 35.0271 46.0537 34.7998 45.2177 34.3451C44.3817 33.8758 43.7364 33.2158 43.2817 32.3651C42.827 31.5145 42.5997 30.5171 42.5997 29.3731C42.5997 28.2291 42.827 27.2465 43.2817 26.4251C43.7364 25.5891 44.3817 24.9511 45.2177 24.5111C46.0537 24.0565 47.0364 23.8291 48.1657 23.8291C48.855 23.8291 49.537 23.9391 50.2117 24.1591C50.8864 24.3791 51.4437 24.6871 51.8837 25.0831L51.0697 26.9971C50.6884 26.6598 50.2557 26.4031 49.7717 26.2271C49.3024 26.0511 48.8477 25.9631 48.4077 25.9631C47.4544 25.9631 46.7137 26.2638 46.1857 26.8651C45.6724 27.4518 45.4157 28.2951 45.4157 29.3951C45.4157 30.4805 45.6724 31.3385 46.1857 31.9691C46.7137 32.5851 47.4544 32.8931 48.4077 32.8931C48.833 32.8931 49.2877 32.8051 49.7717 32.6291C50.2557 32.4531 50.6884 32.1891 51.0697 31.8371L51.8837 33.7731C51.4437 34.1545 50.879 34.4625 50.1897 34.6971C49.515 34.9171 48.8404 35.0271 48.1657 35.0271ZM54.2306 34.8071V19.2971H56.9806V28.6251H57.0246L61.3586 24.0491H64.6806L59.7966 29.1971L64.9886 34.8071H61.6226L57.0246 30.0111H56.9806V34.8071H54.2306ZM66.1285 30.0111V27.8111H72.6845V30.0111H66.1285ZM76.0856 21.7391V19.0551H79.1656V21.7391H76.0856ZM76.2616 34.8071V24.0491H79.0116V34.8071H76.2616ZM82.529 34.8071V24.0491H85.213V25.7211C85.5797 25.1051 86.071 24.6358 86.687 24.3131C87.3177 23.9905 88.0217 23.8291 88.799 23.8291C91.3363 23.8291 92.605 25.3031 92.605 28.2511V34.8071H89.855V28.3831C89.855 27.5471 89.6937 26.9385 89.371 26.5571C89.063 26.1758 88.579 25.9851 87.919 25.9851C87.1123 25.9851 86.467 26.2418 85.983 26.7551C85.5137 27.2538 85.279 27.9211 85.279 28.7571V34.8071H82.529Z" fill="black"/>
<path d="M4.46025 81.5529V66.0429H9.93825C12.4903 66.0429 14.4556 66.7102 15.8343 68.0449C17.2276 69.3795 17.9243 71.2935 17.9243 73.7869C17.9243 76.2802 17.2276 78.2015 15.8343 79.5509C14.4556 80.8855 12.4903 81.5529 9.93825 81.5529H4.46025ZM6.74825 79.6389H9.80625C13.6343 79.6389 15.5483 77.6882 15.5483 73.7869C15.5483 69.9002 13.6343 67.9569 9.80625 67.9569H6.74825V79.6389ZM26.4377 81.7509C24.6777 81.7509 23.2917 81.2595 22.2797 80.2769C21.2677 79.2795 20.7617 77.9229 20.7617 76.2069C20.7617 75.1069 20.9817 74.1389 21.4217 73.3029C21.8764 72.4522 22.4997 71.7922 23.2917 71.3229C24.0837 70.8535 24.9931 70.6189 26.0197 70.6189C27.5011 70.6189 28.6671 71.0955 29.5177 72.0489C30.3684 72.9875 30.7937 74.2855 30.7937 75.9429V76.6909H22.9177C23.0791 78.9202 24.2597 80.0349 26.4597 80.0349C27.0757 80.0349 27.6771 79.9395 28.2637 79.7489C28.8651 79.5582 29.4297 79.2429 29.9577 78.8029L30.6177 80.3429C30.1337 80.7829 29.5104 81.1275 28.7477 81.3769C27.9851 81.6262 27.2151 81.7509 26.4377 81.7509ZM26.1077 72.1809C25.1837 72.1809 24.4504 72.4669 23.9077 73.0389C23.3651 73.6109 23.0351 74.3735 22.9177 75.3269H28.9237C28.8797 74.3295 28.6157 73.5595 28.1317 73.0169C27.6477 72.4595 26.9731 72.1809 26.1077 72.1809ZM38.6061 81.7509C37.5061 81.7509 36.5528 81.5235 35.7461 81.0689C34.9541 80.5995 34.3381 79.9469 33.8981 79.1109C33.4581 78.2602 33.2381 77.2629 33.2381 76.1189C33.2381 74.4175 33.7221 73.0755 34.6901 72.0929C35.6581 71.1102 36.9635 70.6189 38.6061 70.6189C39.2808 70.6189 39.9481 70.7362 40.6081 70.9709C41.2681 71.2055 41.8108 71.5282 42.2361 71.9389L41.5321 73.5009C41.1215 73.1195 40.6668 72.8409 40.1681 72.6649C39.6841 72.4742 39.2221 72.3789 38.7821 72.3789C37.7408 72.3789 36.9341 72.7089 36.3621 73.3689C35.8048 74.0142 35.5261 74.9382 35.5261 76.1409C35.5261 77.3435 35.8048 78.2895 36.3621 78.9789C36.9341 79.6535 37.7408 79.9909 38.7821 79.9909C39.2221 79.9909 39.6841 79.9029 40.1681 79.7269C40.6668 79.5362 41.1215 79.2502 41.5321 78.8689L42.2361 80.4529C41.8108 80.8489 41.2608 81.1642 40.5861 81.3989C39.9261 81.6335 39.2661 81.7509 38.6061 81.7509ZM51.553 81.5529V79.8589L56.723 74.3149C57.4416 73.5375 57.955 72.8335 58.263 72.2029C58.5856 71.5722 58.747 70.9342 58.747 70.2889C58.747 68.6169 57.7643 67.7809 55.799 67.7809C54.303 67.7809 52.961 68.3455 51.773 69.4749L50.959 67.7369C51.5456 67.1649 52.2936 66.7102 53.203 66.3729C54.1123 66.0209 55.0583 65.8449 56.041 65.8449C57.6396 65.8449 58.8643 66.2115 59.715 66.9449C60.5803 67.6782 61.013 68.7269 61.013 70.0909C61.013 71.0149 60.7856 71.9169 60.331 72.7969C59.891 73.6769 59.1943 74.6155 58.241 75.6129L54.413 79.6389H61.629V81.5529H51.553ZM65.4044 81.5529V79.8589L70.5744 74.3149C71.293 73.5375 71.8064 72.8335 72.1144 72.2029C72.437 71.5722 72.5984 70.9342 72.5984 70.2889C72.5984 68.6169 71.6157 67.7809 69.6504 67.7809C68.1544 67.7809 66.8124 68.3455 65.6244 69.4749L64.8104 67.7369C65.397 67.1649 66.145 66.7102 67.0544 66.3729C67.9637 66.0209 68.9097 65.8449 69.8924 65.8449C71.491 65.8449 72.7157 66.2115 73.5664 66.9449C74.4317 67.6782 74.8644 68.7269 74.8644 70.0909C74.8644 71.0149 74.637 71.9169 74.1824 72.7969C73.7424 73.6769 73.0457 74.6155 72.0924 75.6129L68.2644 79.6389H75.4804V81.5529H65.4044Z" fill="black"/>
</svg>
