<svg width="240" height="95" viewBox="0 0 240 95" fill="none" xmlns="http://www.w3.org/2000/svg">
<path d="M228.824 6.73865H199.608C194.229 6.73865 189.869 11.0988 189.869 16.4773V40.824C189.869 46.2026 194.229 50.5627 199.608 50.5627H228.824C234.202 50.5627 238.563 46.2026 238.563 40.824V16.4773C238.563 11.0988 234.202 6.73865 228.824 6.73865Z" stroke="black" stroke-width="2" stroke-linecap="round" stroke-linejoin="round"/>
<path d="M204.478 1.86932V11.608" stroke="black" stroke-width="2" stroke-linecap="round" stroke-linejoin="round"/>
<path d="M223.954 1.86932V11.608" stroke="black" stroke-width="2" stroke-linecap="round" stroke-linejoin="round"/>
<path d="M189.869 21.3467H238.563" stroke="black" stroke-width="2" stroke-linecap="round" stroke-linejoin="round"/>
<path d="M9.26352 36.0271C7.65018 36.0271 6.26418 35.7045 5.10552 35.0591C3.96152 34.3991 3.08152 33.4751 2.46552 32.2871C1.84952 31.0845 1.54152 29.6691 1.54152 28.0411C1.54152 26.4131 1.84952 25.0051 2.46552 23.8171C3.08152 22.6291 3.96152 21.7125 5.10552 21.0671C6.26418 20.4071 7.65018 20.0771 9.26352 20.0771C10.3048 20.0771 11.2875 20.2385 12.2115 20.5611C13.1502 20.8838 13.9202 21.3458 14.5215 21.9471L13.5975 24.1911C12.9375 23.6338 12.2628 23.2305 11.5735 22.9811C10.8842 22.7171 10.1435 22.5851 9.35152 22.5851C7.78218 22.5851 6.58685 23.0618 5.76552 24.0151C4.94418 24.9538 4.53352 26.2958 4.53352 28.0411C4.53352 29.7865 4.94418 31.1358 5.76552 32.0891C6.58685 33.0425 7.78218 33.5191 9.35152 33.5191C10.1435 33.5191 10.8842 33.3945 11.5735 33.1451C12.2628 32.8811 12.9375 32.4705 13.5975 31.9131L14.5215 34.1571C13.9202 34.7438 13.1502 35.2058 12.2115 35.5431C11.2875 35.8658 10.3048 36.0271 9.26352 36.0271ZM17.3752 35.8071V20.2971H20.1252V26.6111C20.4918 26.0245 20.9832 25.5845 21.5992 25.2911C22.2152 24.9831 22.8972 24.8291 23.6452 24.8291C26.1825 24.8291 27.4512 26.3031 27.4512 29.2511V35.8071H24.7012V29.3831C24.7012 28.5471 24.5398 27.9385 24.2172 27.5571C23.9092 27.1758 23.4252 26.9851 22.7652 26.9851C21.9585 26.9851 21.3132 27.2418 20.8292 27.7551C20.3598 28.2538 20.1252 28.9211 20.1252 29.7571V35.8071H17.3752ZM36.2063 36.0271C34.989 36.0271 33.9403 35.7998 33.0603 35.3451C32.1803 34.8905 31.4983 34.2451 31.0143 33.4091C30.545 32.5731 30.3103 31.5831 30.3103 30.4391C30.3103 29.3245 30.5376 28.3491 30.9923 27.5131C31.4616 26.6771 32.0996 26.0245 32.9063 25.5551C33.7276 25.0711 34.659 24.8291 35.7003 24.8291C37.2256 24.8291 38.4283 25.3131 39.3083 26.2811C40.203 27.2491 40.6503 28.5691 40.6503 30.2411V31.0551H32.9503C33.1556 32.9765 34.2556 33.9371 36.2503 33.9371C36.8516 33.9371 37.453 33.8491 38.0543 33.6731C38.6556 33.4825 39.2056 33.1891 39.7043 32.7931L40.4743 34.6411C39.961 35.0665 39.3156 35.4038 38.5383 35.6531C37.761 35.9025 36.9836 36.0271 36.2063 36.0271ZM35.8103 26.6991C35.0036 26.6991 34.351 26.9485 33.8523 27.4471C33.3536 27.9458 33.053 28.6205 32.9503 29.4711H38.3623C38.3036 28.5765 38.0543 27.8945 37.6143 27.4251C37.189 26.9411 36.5876 26.6991 35.8103 26.6991ZM48.4601 36.0271C47.3308 36.0271 46.3481 35.7998 45.5121 35.3451C44.6761 34.8758 44.0308 34.2158 43.5761 33.3651C43.1215 32.5145 42.8941 31.5171 42.8941 30.3731C42.8941 29.2291 43.1215 28.2465 43.5761 27.4251C44.0308 26.5891 44.6761 25.9511 45.5121 25.5111C46.3481 25.0565 47.3308 24.8291 48.4601 24.8291C49.1495 24.8291 49.8315 24.9391 50.5061 25.1591C51.1808 25.3791 51.7381 25.6871 52.1781 26.0831L51.3641 27.9971C50.9828 27.6598 50.5501 27.4031 50.0661 27.2271C49.5968 27.0511 49.1421 26.9631 48.7021 26.9631C47.7488 26.9631 47.0081 27.2638 46.4801 27.8651C45.9668 28.4518 45.7101 29.2951 45.7101 30.3951C45.7101 31.4805 45.9668 32.3385 46.4801 32.9691C47.0081 33.5851 47.7488 33.8931 48.7021 33.8931C49.1275 33.8931 49.5821 33.8051 50.0661 33.6291C50.5501 33.4531 50.9828 33.1891 51.3641 32.8371L52.1781 34.7731C51.7381 35.1545 51.1735 35.4625 50.4841 35.6971C49.8095 35.9171 49.1348 36.0271 48.4601 36.0271ZM54.5251 35.8071V20.2971H57.2751V29.6251H57.3191L61.6531 25.0491H64.9751L60.0911 30.1971L65.2831 35.8071H61.9171L57.3191 31.0111H57.2751V35.8071H54.5251ZM66.423 31.0111V28.8111H72.979V31.0111H66.423ZM81.7843 36.0271C80.6696 36.0271 79.7016 35.7998 78.8803 35.3451C78.0589 34.8905 77.4209 34.2451 76.9663 33.4091C76.5116 32.5585 76.2843 31.5611 76.2843 30.4171C76.2843 29.2731 76.5116 28.2831 76.9663 27.4471C77.4209 26.6111 78.0589 25.9658 78.8803 25.5111C79.7016 25.0565 80.6696 24.8291 81.7843 24.8291C82.8989 24.8291 83.8669 25.0565 84.6883 25.5111C85.5096 25.9658 86.1476 26.6111 86.6023 27.4471C87.0569 28.2831 87.2843 29.2731 87.2843 30.4171C87.2843 31.5611 87.0569 32.5585 86.6023 33.4091C86.1476 34.2451 85.5096 34.8905 84.6883 35.3451C83.8669 35.7998 82.8989 36.0271 81.7843 36.0271ZM81.7843 33.9371C82.6056 33.9371 83.2656 33.6438 83.7643 33.0571C84.2629 32.4558 84.5123 31.5758 84.5123 30.4171C84.5123 29.2438 84.2629 28.3711 83.7643 27.7991C83.2656 27.2125 82.6056 26.9191 81.7843 26.9191C80.9629 26.9191 80.3029 27.2125 79.8043 27.7991C79.3056 28.3711 79.0563 29.2438 79.0563 30.4171C79.0563 31.5758 79.3056 32.4558 79.8043 33.0571C80.3029 33.6438 80.9629 33.9371 81.7843 33.9371ZM94.1081 36.0271C91.4681 36.0271 90.1481 34.5458 90.1481 31.5831V25.0491H92.8981V31.6271C92.8981 32.3898 93.0521 32.9545 93.3601 33.3211C93.6681 33.6878 94.1594 33.8711 94.8341 33.8711C95.5674 33.8711 96.1687 33.6218 96.6381 33.1231C97.1074 32.6098 97.3421 31.9351 97.3421 31.0991V25.0491H100.092V35.8071H97.4081V34.2011C96.6894 35.4185 95.5894 36.0271 94.1081 36.0271ZM108.542 36.0271C105.697 36.0271 104.274 34.6191 104.274 31.8031V27.1171H102.206V25.0491H104.274V21.8371H107.024V25.0491H110.28V27.1171H107.024V31.6491C107.024 32.3531 107.178 32.8811 107.486 33.2331C107.794 33.5851 108.293 33.7611 108.982 33.7611C109.188 33.7611 109.4 33.7391 109.62 33.6951C109.84 33.6365 110.068 33.5778 110.302 33.5191L110.72 35.5431C110.456 35.6898 110.119 35.8071 109.708 35.8951C109.312 35.9831 108.924 36.0271 108.542 36.0271Z" fill="black"/>
<path d="M2.15752 82.5529V67.0429H7.63552C10.1875 67.0429 12.1528 67.7102 13.5315 69.0449C14.9248 70.3795 15.6215 72.2935 15.6215 74.7869C15.6215 77.2802 14.9248 79.2015 13.5315 80.5509C12.1528 81.8855 10.1875 82.5529 7.63552 82.5529H2.15752ZM4.44552 80.6389H7.50352C11.3315 80.6389 13.2455 78.6882 13.2455 74.7869C13.2455 70.9002 11.3315 68.9569 7.50352 68.9569H4.44552V80.6389ZM24.135 82.7509C22.375 82.7509 20.989 82.2595 19.977 81.2769C18.965 80.2795 18.459 78.9229 18.459 77.2069C18.459 76.1069 18.679 75.1389 19.119 74.3029C19.5737 73.4522 20.197 72.7922 20.989 72.3229C21.781 71.8535 22.6903 71.6189 23.717 71.6189C25.1983 71.6189 26.3643 72.0955 27.215 73.0489C28.0657 73.9875 28.491 75.2855 28.491 76.9429V77.6909H20.615C20.7763 79.9202 21.957 81.0349 24.157 81.0349C24.773 81.0349 25.3743 80.9395 25.961 80.7489C26.5623 80.5582 27.127 80.2429 27.655 79.8029L28.315 81.3429C27.831 81.7829 27.2077 82.1275 26.445 82.3769C25.6823 82.6262 24.9123 82.7509 24.135 82.7509ZM23.805 73.1809C22.881 73.1809 22.1477 73.4669 21.605 74.0389C21.0623 74.6109 20.7323 75.3735 20.615 76.3269H26.621C26.577 75.3295 26.313 74.5595 25.829 74.0169C25.345 73.4595 24.6703 73.1809 23.805 73.1809ZM36.3034 82.7509C35.2034 82.7509 34.2501 82.5235 33.4434 82.0689C32.6514 81.5995 32.0354 80.9469 31.5954 80.1109C31.1554 79.2602 30.9354 78.2629 30.9354 77.1189C30.9354 75.4175 31.4194 74.0755 32.3874 73.0929C33.3554 72.1102 34.6607 71.6189 36.3034 71.6189C36.9781 71.6189 37.6454 71.7362 38.3054 71.9709C38.9654 72.2055 39.5081 72.5282 39.9334 72.9389L39.2294 74.5009C38.8187 74.1195 38.3641 73.8409 37.8654 73.6649C37.3814 73.4742 36.9194 73.3789 36.4794 73.3789C35.4381 73.3789 34.6314 73.7089 34.0594 74.3689C33.5021 75.0142 33.2234 75.9382 33.2234 77.1409C33.2234 78.3435 33.5021 79.2895 34.0594 79.9789C34.6314 80.6535 35.4381 80.9909 36.4794 80.9909C36.9194 80.9909 37.3814 80.9029 37.8654 80.7269C38.3641 80.5362 38.8187 80.2502 39.2294 79.8689L39.9334 81.4529C39.5081 81.8489 38.9581 82.1642 38.2834 82.3989C37.6234 82.6335 36.9634 82.7509 36.3034 82.7509ZM49.2502 82.5529V80.8589L54.4202 75.3149C55.1389 74.5375 55.6522 73.8335 55.9602 73.2029C56.2829 72.5722 56.4442 71.9342 56.4442 71.2889C56.4442 69.6169 55.4616 68.7809 53.4962 68.7809C52.0002 68.7809 50.6582 69.3455 49.4702 70.4749L48.6562 68.7369C49.2429 68.1649 49.9909 67.7102 50.9002 67.3729C51.8096 67.0209 52.7556 66.8449 53.7382 66.8449C55.3369 66.8449 56.5616 67.2115 57.4122 67.9449C58.2776 68.6782 58.7102 69.7269 58.7102 71.0909C58.7102 72.0149 58.4829 72.9169 58.0282 73.7969C57.5882 74.6769 56.8916 75.6155 55.9382 76.6129L52.1102 80.6389H59.3262V82.5529H49.2502ZM68.3816 82.7509C66.5043 82.7509 65.0523 82.0835 64.0256 80.7489C63.0136 79.4142 62.5076 77.5442 62.5076 75.1389C62.5076 72.4842 63.0796 70.4382 64.2236 69.0009C65.3676 67.5635 66.9516 66.8449 68.9756 66.8449C69.7676 66.8449 70.567 67.0062 71.3736 67.3289C72.1803 67.6369 72.855 68.0769 73.3976 68.6489L72.6056 70.3649C72.0776 69.8369 71.491 69.4409 70.8456 69.1769C70.215 68.9129 69.577 68.7809 68.9316 68.7809C67.5676 68.7809 66.519 69.2795 65.7856 70.2769C65.067 71.2595 64.7076 72.7335 64.7076 74.6989V75.5789C65.001 74.6842 65.507 73.9875 66.2256 73.4889C66.959 72.9755 67.8023 72.7189 68.7556 72.7189C69.665 72.7189 70.4643 72.9315 71.1536 73.3569C71.8576 73.7822 72.4076 74.3689 72.8036 75.1169C73.1996 75.8502 73.3976 76.6935 73.3976 77.6469C73.3976 78.6442 73.185 79.5315 72.7596 80.3089C72.3343 81.0715 71.7403 81.6729 70.9776 82.1129C70.2296 82.5382 69.3643 82.7509 68.3816 82.7509ZM68.2496 80.9029C69.1443 80.9029 69.8703 80.6095 70.4276 80.0229C70.985 79.4362 71.2636 78.6735 71.2636 77.7349C71.2636 76.7962 70.985 76.0335 70.4276 75.4469C69.8703 74.8602 69.1443 74.5669 68.2496 74.5669C67.355 74.5669 66.629 74.8602 66.0716 75.4469C65.5143 76.0335 65.2356 76.7962 65.2356 77.7349C65.2356 78.6735 65.5143 79.4362 66.0716 80.0229C66.629 80.6095 67.355 80.9029 68.2496 80.9029Z" fill="black"/>
</svg>
