<svg width="277" height="126" viewBox="0 0 277 126" fill="none" xmlns="http://www.w3.org/2000/svg">
<g clip-path="url(#clip0_93_327)">
<path d="M63.9997 28.1713C63.9997 12.6103 51.4627 -0.00366211 35.9997 -0.00366211C20.5297 -0.000162109 7.99268 12.6103 7.99268 28.1748C7.99268 42.2343 18.2337 53.8893 31.6177 56.0033V36.3158H24.5127V28.1748H31.6247V21.9623C31.6247 14.9028 35.8072 11.0038 42.2017 11.0038C45.2677 11.0038 48.4702 11.5533 48.4702 11.5533V18.4833H44.9387C41.4632 18.4833 40.3782 20.6568 40.3782 22.8863V28.1713H48.1412L46.9022 36.3123H40.3747V55.9998C53.7587 53.8858 63.9997 42.2308 63.9997 28.1713Z" fill="white"/>
</g>
<path d="M136 3.875C121.021 3.875 108.875 16.0207 108.875 31C108.875 45.9793 121.021 58.125 136 58.125C150.979 58.125 163.125 45.9793 163.125 31C163.125 16.0207 150.979 3.875 136 3.875ZM149.036 24.3217C149.054 24.6063 149.054 24.9029 149.054 25.1936C149.054 34.0818 142.285 44.3203 129.915 44.3203C126.101 44.3203 122.565 43.2123 119.586 41.3051C120.131 41.3656 120.651 41.3898 121.208 41.3898C124.357 41.3898 127.251 40.3242 129.558 38.5199C126.603 38.4594 124.121 36.5219 123.273 33.8578C124.308 34.0092 125.241 34.0092 126.306 33.7367C124.785 33.4276 123.418 32.6014 122.436 31.3983C121.455 30.1952 120.921 28.6896 120.924 27.1371V27.0523C121.814 27.5549 122.861 27.8637 123.957 27.9061C123.036 27.2921 122.28 26.4603 121.758 25.4844C121.235 24.5085 120.961 23.4186 120.96 22.3115C120.96 21.0582 121.287 19.9139 121.874 18.9209C123.563 20.9997 125.67 22.6999 128.059 23.911C130.448 25.122 133.065 25.8169 135.74 25.9504C134.789 21.3791 138.204 17.6797 142.309 17.6797C144.246 17.6797 145.99 18.491 147.219 19.7988C148.739 19.5143 150.192 18.9451 151.488 18.1822C150.985 19.7383 149.932 21.0521 148.533 21.8816C149.889 21.7363 151.197 21.3609 152.408 20.8342C151.494 22.1783 150.35 23.3711 149.036 24.3217Z" fill="white"/>
<path d="M247.001 30C247.001 32.3869 246.052 34.6761 244.365 36.3639C242.677 38.0517 240.388 39 238.001 39C235.614 39 233.325 38.0517 231.637 36.3639C229.949 34.6761 229.001 32.3869 229.001 30C229.001 29.487 229.055 28.986 229.148 28.5H226.001V40.491C226.001 41.325 226.676 42 227.51 42H248.495C248.894 41.9992 249.277 41.8398 249.56 41.5569C249.842 41.274 250.001 40.8906 250.001 40.491V28.5H246.854C246.947 28.986 247.001 29.487 247.001 30ZM238.001 36C238.789 35.9998 239.569 35.8443 240.297 35.5425C241.025 35.2408 241.687 34.7985 242.244 34.2411C242.801 33.6837 243.243 33.022 243.544 32.2937C243.846 31.5655 244.001 30.7851 244.001 29.997C244 29.2088 243.845 28.4285 243.543 27.7004C243.241 26.9723 242.799 26.3108 242.242 25.7537C241.684 25.1965 241.023 24.7546 240.294 24.4532C239.566 24.1518 238.786 23.9968 237.998 23.997C236.406 23.9973 234.88 24.63 233.754 25.7558C232.629 26.8816 231.997 28.4083 231.998 30C231.998 31.5916 232.631 33.118 233.757 34.2432C234.882 35.3684 236.409 36.0004 238.001 36ZM245.201 23.7H248.798C249.037 23.7 249.266 23.6052 249.435 23.4365C249.604 23.2678 249.7 23.0389 249.701 22.7999V19.203C249.701 18.9635 249.606 18.7338 249.436 18.5644C249.267 18.3951 249.037 18.2999 248.798 18.2999H245.201C244.961 18.2999 244.732 18.3951 244.562 18.5644C244.393 18.7338 244.298 18.9635 244.298 19.203V22.7999C244.301 23.295 244.706 23.7 245.201 23.7ZM238.001 1.19995C230.362 1.19995 223.037 4.23423 217.636 9.63527C212.235 15.0363 209.201 22.3617 209.201 30C209.201 37.6382 212.235 44.9636 217.636 50.3646C223.037 55.7657 230.362 58.8 238.001 58.8C241.783 58.8 245.528 58.055 249.022 56.6077C252.516 55.1603 255.691 53.039 258.365 50.3646C261.04 47.6903 263.161 44.5154 264.608 41.0212C266.056 37.5271 266.801 33.782 266.801 30C266.801 26.2179 266.056 22.4728 264.608 18.9787C263.161 15.4845 261.04 12.3096 258.365 9.63527C255.691 6.96095 252.516 4.83956 249.022 3.39222C245.528 1.94489 241.783 1.19995 238.001 1.19995ZM253.001 41.667C253.001 43.5 251.501 45 249.668 45H226.334C224.501 45 223.001 43.5 223.001 41.667V18.333C223.001 16.5 224.501 15 226.334 15H249.668C251.501 15 253.001 16.5 253.001 18.333V41.667Z" fill="white"/>
<path d="M8.976 118.198C7.84667 118.198 6.798 118 5.83 117.604C4.862 117.193 4.01867 116.629 3.3 115.91C2.58133 115.177 2.01667 114.333 1.606 113.38C1.21 112.412 1.012 111.363 1.012 110.234C1.012 109.105 1.21 108.063 1.606 107.11C2.01667 106.142 2.58133 105.299 3.3 104.58C4.01867 103.861 4.862 103.304 5.83 102.908C6.798 102.497 7.84667 102.292 8.976 102.292C10.1053 102.292 11.1467 102.497 12.1 102.908C13.068 103.304 13.9113 103.861 14.63 104.58C15.3487 105.299 15.906 106.142 16.302 107.11C16.7127 108.063 16.918 109.105 16.918 110.234C16.918 111.363 16.7127 112.412 16.302 113.38C15.906 114.333 15.3487 115.177 14.63 115.91C13.9113 116.629 13.068 117.193 12.1 117.604C11.1467 118 10.1053 118.198 8.976 118.198ZM8.976 117.23C9.95867 117.23 10.868 117.054 11.704 116.702C12.5547 116.35 13.288 115.859 13.904 115.228C14.5347 114.583 15.026 113.842 15.378 113.006C15.73 112.155 15.906 111.231 15.906 110.234C15.906 109.237 15.73 108.32 15.378 107.484C15.026 106.633 14.5347 105.893 13.904 105.262C13.288 104.631 12.5547 104.14 11.704 103.788C10.868 103.436 9.95867 103.26 8.976 103.26C7.99333 103.26 7.07667 103.436 6.226 103.788C5.37533 104.14 4.63467 104.631 4.004 105.262C3.388 105.893 2.904 106.633 2.552 107.484C2.2 108.32 2.024 109.237 2.024 110.234C2.024 111.231 2.2 112.155 2.552 113.006C2.904 113.842 3.388 114.583 4.004 115.228C4.63467 115.859 5.37533 116.35 6.226 116.702C7.07667 117.054 7.99333 117.23 8.976 117.23ZM9.262 114.986C7.854 114.986 6.73933 114.553 5.918 113.688C5.09667 112.808 4.686 111.642 4.686 110.19C4.686 108.738 5.09667 107.594 5.918 106.758C6.73933 105.922 7.854 105.504 9.262 105.504C9.84867 105.504 10.4207 105.607 10.978 105.812C11.55 106.017 12.0267 106.303 12.408 106.67L11.88 107.814C11.484 107.477 11.066 107.227 10.626 107.066C10.186 106.905 9.75333 106.824 9.328 106.824C8.37467 106.824 7.62667 107.117 7.084 107.704C6.54133 108.291 6.27 109.119 6.27 110.19C6.27 111.261 6.54133 112.111 7.084 112.742C7.62667 113.358 8.37467 113.666 9.328 113.666C9.75333 113.666 10.186 113.585 10.626 113.424C11.066 113.263 11.484 113.006 11.88 112.654L12.408 113.82C12.0267 114.172 11.55 114.458 10.978 114.678C10.406 114.883 9.834 114.986 9.262 114.986ZM33.5338 118.198C32.0085 118.198 30.7032 117.875 29.6178 117.23C28.5325 116.585 27.6965 115.668 27.1098 114.48C26.5378 113.292 26.2518 111.877 26.2518 110.234C26.2518 108.606 26.5378 107.198 27.1098 106.01C27.6965 104.822 28.5325 103.905 29.6178 103.26C30.7032 102.615 32.0085 102.292 33.5338 102.292C34.6045 102.292 35.5872 102.461 36.4818 102.798C37.3912 103.135 38.1612 103.627 38.7918 104.272L38.0878 105.746C37.4132 105.115 36.7092 104.661 35.9758 104.382C35.2572 104.089 34.4578 103.942 33.5778 103.942C31.8325 103.942 30.4978 104.492 29.5738 105.592C28.6498 106.692 28.1878 108.239 28.1878 110.234C28.1878 112.243 28.6498 113.798 29.5738 114.898C30.4978 115.998 31.8325 116.548 33.5778 116.548C34.4578 116.548 35.2572 116.409 35.9758 116.13C36.7092 115.837 37.4132 115.375 38.0878 114.744L38.7918 116.218C38.1612 116.849 37.3912 117.34 36.4818 117.692C35.5872 118.029 34.6045 118.198 33.5338 118.198ZM45.7151 118.198C44.6738 118.198 43.7718 117.971 43.0091 117.516C42.2465 117.061 41.6525 116.423 41.2271 115.602C40.8165 114.766 40.6111 113.783 40.6111 112.654C40.6111 111.525 40.8165 110.549 41.2271 109.728C41.6525 108.892 42.2465 108.247 43.0091 107.792C43.7718 107.337 44.6738 107.11 45.7151 107.11C46.7418 107.11 47.6365 107.337 48.3991 107.792C49.1765 108.247 49.7705 108.892 50.1811 109.728C50.6065 110.549 50.8191 111.525 50.8191 112.654C50.8191 113.783 50.6065 114.766 50.1811 115.602C49.7705 116.423 49.1765 117.061 48.3991 117.516C47.6365 117.971 46.7418 118.198 45.7151 118.198ZM45.7151 116.768C46.7125 116.768 47.5118 116.416 48.1131 115.712C48.7145 114.993 49.0151 113.974 49.0151 112.654C49.0151 111.319 48.7145 110.3 48.1131 109.596C47.5118 108.892 46.7125 108.54 45.7151 108.54C44.7031 108.54 43.8965 108.892 43.2951 109.596C42.7085 110.3 42.4151 111.319 42.4151 112.654C42.4151 113.974 42.7085 114.993 43.2951 115.712C43.8965 116.416 44.7031 116.768 45.7151 116.768ZM54.1557 121.96V107.308H55.8937V109.222C56.2164 108.562 56.6931 108.049 57.3237 107.682C57.9691 107.301 58.7171 107.11 59.5677 107.11C60.5211 107.11 61.3497 107.337 62.0538 107.792C62.7724 108.232 63.3224 108.87 63.7038 109.706C64.0997 110.527 64.2977 111.51 64.2977 112.654C64.2977 113.783 64.0997 114.766 63.7038 115.602C63.3224 116.423 62.7724 117.061 62.0538 117.516C61.3497 117.971 60.5211 118.198 59.5677 118.198C58.7464 118.198 58.0131 118.015 57.3677 117.648C56.7224 117.281 56.2457 116.775 55.9377 116.13V121.96H54.1557ZM59.1937 116.768C60.1911 116.768 60.9904 116.416 61.5918 115.712C62.1931 114.993 62.4937 113.974 62.4937 112.654C62.4937 111.319 62.1931 110.3 61.5918 109.596C60.9904 108.892 60.1911 108.54 59.1937 108.54C58.1964 108.54 57.3971 108.892 56.7957 109.596C56.1944 110.3 55.8937 111.319 55.8937 112.654C55.8937 113.974 56.1944 114.993 56.7957 115.712C57.3971 116.416 58.1964 116.768 59.1937 116.768ZM68.7235 121.96L70.5495 117.824L66.0395 107.308H67.9755L71.5175 115.976L75.0815 107.308H76.9515L70.5935 121.96H68.7235ZM79.4523 118V107.308H81.1903V109.222C81.7623 107.931 82.9356 107.22 84.7103 107.088L85.3483 107.022L85.4803 108.562L84.3583 108.694C83.3463 108.782 82.5763 109.105 82.0483 109.662C81.5203 110.205 81.2563 110.953 81.2563 111.906V118H79.4523ZM87.7771 104.646V102.644H89.9771V104.646H87.7771ZM87.9971 118V107.308H89.7791V118H87.9971ZM98.5004 122.158C97.5764 122.158 96.7037 122.033 95.8824 121.784C95.0757 121.549 94.357 121.19 93.7264 120.706L94.3204 119.408C94.9804 119.877 95.633 120.215 96.2784 120.42C96.9384 120.625 97.6497 120.728 98.4124 120.728C100.524 120.728 101.58 119.643 101.58 117.472V115.58C101.272 116.255 100.788 116.79 100.128 117.186C99.483 117.567 98.7424 117.758 97.9064 117.758C96.9237 117.758 96.073 117.531 95.3544 117.076C94.6357 116.621 94.0784 115.998 93.6824 115.206C93.301 114.399 93.1104 113.468 93.1104 112.412C93.1104 111.356 93.301 110.432 93.6824 109.64C94.0784 108.833 94.6357 108.21 95.3544 107.77C96.073 107.33 96.9237 107.11 97.9064 107.11C98.7424 107.11 99.483 107.301 100.128 107.682C100.788 108.063 101.272 108.584 101.58 109.244V107.308H103.318V117.23C103.318 118.873 102.908 120.105 102.086 120.926C101.28 121.747 100.084 122.158 98.5004 122.158ZM98.2364 116.306C99.263 116.306 100.077 115.954 100.678 115.25C101.28 114.546 101.58 113.6 101.58 112.412C101.58 111.224 101.28 110.285 100.678 109.596C100.077 108.892 99.263 108.54 98.2364 108.54C97.2244 108.54 96.4177 108.892 95.8164 109.596C95.215 110.285 94.9144 111.224 94.9144 112.412C94.9144 113.6 95.215 114.546 95.8164 115.25C96.4177 115.954 97.2244 116.306 98.2364 116.306ZM107.321 118V102.49H109.103V109.068C109.455 108.423 109.946 107.939 110.577 107.616C111.222 107.279 111.941 107.11 112.733 107.11C115.27 107.11 116.539 108.518 116.539 111.334V118H114.757V111.444C114.757 110.447 114.559 109.721 114.163 109.266C113.782 108.797 113.166 108.562 112.315 108.562C111.332 108.562 110.548 108.87 109.961 109.486C109.389 110.087 109.103 110.894 109.103 111.906V118H107.321ZM124.775 118.198C123.514 118.198 122.568 117.868 121.937 117.208C121.306 116.533 120.991 115.565 120.991 114.304V108.694H118.901V107.308H120.991V104.03H122.773V107.308H126.161V108.694H122.773V114.128C122.773 114.964 122.949 115.602 123.301 116.042C123.653 116.467 124.225 116.68 125.017 116.68C125.252 116.68 125.486 116.651 125.721 116.592C125.956 116.533 126.168 116.475 126.359 116.416L126.667 117.78C126.476 117.883 126.198 117.978 125.831 118.066C125.464 118.154 125.112 118.198 124.775 118.198ZM135.455 118V116.636L140.757 110.916C141.505 110.095 142.04 109.347 142.363 108.672C142.7 107.997 142.869 107.308 142.869 106.604C142.869 104.8 141.82 103.898 139.723 103.898C138.153 103.898 136.767 104.485 135.565 105.658L134.883 104.25C135.455 103.663 136.181 103.194 137.061 102.842C137.955 102.475 138.894 102.292 139.877 102.292C141.431 102.292 142.619 102.659 143.441 103.392C144.277 104.111 144.695 105.137 144.695 106.472C144.695 107.396 144.467 108.305 144.013 109.2C143.558 110.08 142.861 111.019 141.923 112.016L137.765 116.46H145.333V118H135.455ZM153.926 118.198C152.151 118.198 150.802 117.516 149.878 116.152C148.954 114.788 148.492 112.815 148.492 110.234C148.492 107.638 148.954 105.665 149.878 104.316C150.802 102.967 152.151 102.292 153.926 102.292C155.715 102.292 157.065 102.967 157.974 104.316C158.898 105.651 159.36 107.616 159.36 110.212C159.36 112.808 158.891 114.788 157.952 116.152C157.028 117.516 155.686 118.198 153.926 118.198ZM153.926 116.636C155.158 116.636 156.067 116.115 156.654 115.074C157.255 114.033 157.556 112.412 157.556 110.212C157.556 108.012 157.263 106.406 156.676 105.394C156.089 104.367 155.173 103.854 153.926 103.854C152.694 103.854 151.777 104.367 151.176 105.394C150.589 106.421 150.296 108.027 150.296 110.212C150.296 112.412 150.589 114.033 151.176 115.074C151.777 116.115 152.694 116.636 153.926 116.636ZM163.158 118V116.636L168.46 110.916C169.208 110.095 169.743 109.347 170.066 108.672C170.403 107.997 170.572 107.308 170.572 106.604C170.572 104.8 169.523 103.898 167.426 103.898C165.856 103.898 164.47 104.485 163.268 105.658L162.586 104.25C163.158 103.663 163.884 103.194 164.764 102.842C165.658 102.475 166.597 102.292 167.58 102.292C169.134 102.292 170.322 102.659 171.144 103.392C171.98 104.111 172.398 105.137 172.398 106.472C172.398 107.396 172.17 108.305 171.716 109.2C171.261 110.08 170.564 111.019 169.626 112.016L165.468 116.46H173.036V118H163.158ZM177.757 118V116.46H181.299V104.668L178.505 106.428L177.735 105.086L181.805 102.49H183.103V116.46H186.425V118H177.757ZM197.105 118V102.49H203.309C204.907 102.49 206.139 102.849 207.005 103.568C207.885 104.272 208.325 105.262 208.325 106.538C208.325 107.389 208.105 108.115 207.665 108.716C207.225 109.317 206.616 109.757 205.839 110.036C206.733 110.271 207.43 110.703 207.929 111.334C208.442 111.965 208.699 112.764 208.699 113.732C208.699 115.111 208.251 116.167 207.357 116.9C206.462 117.633 205.201 118 203.573 118H197.105ZM198.865 109.42H203.045C205.377 109.42 206.543 108.511 206.543 106.692C206.543 104.859 205.377 103.942 203.045 103.942H198.865V109.42ZM198.865 116.548H203.397C205.743 116.548 206.917 115.602 206.917 113.71C206.917 111.818 205.743 110.872 203.397 110.872H198.865V116.548ZM216.834 118.198C215.793 118.198 214.891 117.971 214.128 117.516C213.365 117.061 212.771 116.423 212.346 115.602C211.935 114.766 211.73 113.783 211.73 112.654C211.73 111.525 211.935 110.549 212.346 109.728C212.771 108.892 213.365 108.247 214.128 107.792C214.891 107.337 215.793 107.11 216.834 107.11C217.861 107.11 218.755 107.337 219.518 107.792C220.295 108.247 220.889 108.892 221.3 109.728C221.725 110.549 221.938 111.525 221.938 112.654C221.938 113.783 221.725 114.766 221.3 115.602C220.889 116.423 220.295 117.061 219.518 117.516C218.755 117.971 217.861 118.198 216.834 118.198ZM216.834 116.768C217.831 116.768 218.631 116.416 219.232 115.712C219.833 114.993 220.134 113.974 220.134 112.654C220.134 111.319 219.833 110.3 219.232 109.596C218.631 108.892 217.831 108.54 216.834 108.54C215.822 108.54 215.015 108.892 214.414 109.596C213.827 110.3 213.534 111.319 213.534 112.654C213.534 113.974 213.827 114.993 214.414 115.712C215.015 116.416 215.822 116.768 216.834 116.768ZM225.274 118V107.308H227.012V109.134C227.364 108.459 227.863 107.953 228.508 107.616C229.154 107.279 229.88 107.11 230.686 107.11C233.224 107.11 234.492 108.518 234.492 111.334V118H232.71V111.444C232.71 110.447 232.512 109.721 232.116 109.266C231.735 108.797 231.119 108.562 230.268 108.562C229.286 108.562 228.501 108.87 227.914 109.486C227.342 110.087 227.056 110.894 227.056 111.906V118H225.274ZM237.976 118V116.812L244.092 108.694H237.976V107.308H246.072V108.496L239.956 116.614H246.314V118H237.976ZM248.996 118V115.756H251.24V118H248.996ZM254.124 118L260.966 102.49H262.506L269.348 118H267.478L265.762 114.04H257.688L255.994 118H254.124ZM261.714 104.602L258.348 112.522H265.124L261.758 104.602H261.714ZM272.307 118V102.49H274.111V118H272.307Z" fill="white"/>
<defs>
<clipPath id="clip0_93_327">
<rect width="56" height="56" fill="white" transform="translate(8)"/>
</clipPath>
</defs>
</svg>
