<svg width="303" height="181" viewBox="0 0 303 181" fill="none" xmlns="http://www.w3.org/2000/svg">
<g filter="url(#filter0_d_95_894)">
<path fill-rule="evenodd" clip-rule="evenodd" d="M46.5494 6.95477L42.5 0L38.4506 6.95477H13C8.02944 6.95477 4 10.9842 4 15.9548V164C4 168.971 8.02943 173 13 173H290C294.971 173 299 168.971 299 164V15.9548C299 10.9842 294.971 6.95477 290 6.95477H46.5494Z" fill="#F3F2EE"/>
<path fill-rule="evenodd" clip-rule="evenodd" d="M46.5494 6.95477L42.5 0L38.4506 6.95477H13C8.02944 6.95477 4 10.9842 4 15.9548V164C4 168.971 8.02943 173 13 173H290C294.971 173 299 168.971 299 164V15.9548C299 10.9842 294.971 6.95477 290 6.95477H46.5494Z" fill="#F3F2EE"/>
<path d="M36.32 46.2C34.76 46.2 33.44 45.9067 32.36 45.32C31.2933 44.7333 30.48 43.9 29.92 42.82C29.36 41.74 29.08 40.46 29.08 38.98C29.08 37.4867 29.3667 36.2 29.94 35.12C30.5133 34.0267 31.34 33.1867 32.42 32.6C33.5 32 34.7933 31.7 36.3 31.7C37.2867 31.7 38.2133 31.8467 39.08 32.14C39.9467 32.42 40.6667 32.8133 41.24 33.32L40.38 35.32C39.7533 34.8267 39.1133 34.4733 38.46 34.26C37.8067 34.0467 37.0867 33.94 36.3 33.94C34.8067 33.94 33.6733 34.3733 32.9 35.24C32.14 36.1067 31.76 37.3533 31.76 38.98C31.76 40.62 32.1533 41.8667 32.94 42.72C33.7267 43.5733 34.8933 44 36.44 44C36.88 44 37.3267 43.9667 37.78 43.9C38.2467 43.82 38.7067 43.7067 39.16 43.56V40.28H35.92V38.38H41.3V45.16C40.6467 45.48 39.8733 45.7333 38.98 45.92C38.0867 46.1067 37.2 46.2 36.32 46.2ZM47.5666 46.2C45.1666 46.2 43.9666 44.8533 43.9666 42.16V36.22H46.4666V42.2C46.4666 42.8933 46.6066 43.4067 46.8866 43.74C47.1666 44.0733 47.6132 44.24 48.2266 44.24C48.8932 44.24 49.4399 44.0133 49.8666 43.56C50.2932 43.0933 50.5066 42.48 50.5066 41.72V36.22H53.0066V46H50.5666V44.54C49.9132 45.6467 48.9132 46.2 47.5666 46.2ZM60.4286 46.2C59.3219 46.2 58.3686 45.9933 57.5686 45.58C56.7686 45.1667 56.1486 44.58 55.7086 43.82C55.2819 43.06 55.0686 42.16 55.0686 41.12C55.0686 40.1067 55.2753 39.22 55.6886 38.46C56.1153 37.7 56.6953 37.1067 57.4286 36.68C58.1753 36.24 59.0219 36.02 59.9686 36.02C61.3553 36.02 62.4486 36.46 63.2486 37.34C64.0619 38.22 64.4686 39.42 64.4686 40.94V41.68H57.4686C57.6553 43.4267 58.6553 44.3 60.4686 44.3C61.0153 44.3 61.5619 44.22 62.1086 44.06C62.6553 43.8867 63.1553 43.62 63.6086 43.26L64.3086 44.94C63.8419 45.3267 63.2553 45.6333 62.5486 45.86C61.8419 46.0867 61.1353 46.2 60.4286 46.2ZM60.0686 37.72C59.3353 37.72 58.7419 37.9467 58.2886 38.4C57.8353 38.8533 57.5619 39.4667 57.4686 40.24H62.3886C62.3353 39.4267 62.1086 38.8067 61.7086 38.38C61.3219 37.94 60.7753 37.72 60.0686 37.72ZM70.0284 46.2C69.2018 46.2 68.4284 46.1 67.7084 45.9C66.9884 45.7 66.3884 45.4133 65.9084 45.04L66.5484 43.4C67.0418 43.7333 67.5951 43.9933 68.2084 44.18C68.8218 44.3533 69.4351 44.44 70.0484 44.44C70.6884 44.44 71.1618 44.3333 71.4684 44.12C71.7884 43.8933 71.9484 43.6 71.9484 43.24C71.9484 42.68 71.5351 42.32 70.7084 42.16L68.7084 41.78C67.0151 41.46 66.1684 40.58 66.1684 39.14C66.1684 38.5 66.3418 37.9467 66.6884 37.48C67.0484 37.0133 67.5418 36.6533 68.1684 36.4C68.7951 36.1467 69.5151 36.02 70.3284 36.02C71.0218 36.02 71.6884 36.12 72.3284 36.32C72.9684 36.5067 73.5151 36.7933 73.9684 37.18L73.2884 38.82C72.9018 38.5 72.4351 38.2467 71.8884 38.06C71.3551 37.8733 70.8418 37.78 70.3484 37.78C69.6951 37.78 69.2084 37.8933 68.8884 38.12C68.5818 38.3467 68.4284 38.6467 68.4284 39.02C68.4284 39.6067 68.8084 39.9667 69.5684 40.1L71.5684 40.48C72.4351 40.64 73.0884 40.9333 73.5284 41.36C73.9818 41.7867 74.2084 42.36 74.2084 43.08C74.2084 44.0533 73.8284 44.82 73.0684 45.38C72.3084 45.9267 71.2951 46.2 70.0284 46.2ZM80.5964 46.2C78.0097 46.2 76.7164 44.92 76.7164 42.36V38.1H74.8364V36.22H76.7164V33.3H79.2164V36.22H82.1764V38.1H79.2164V42.22C79.2164 42.86 79.3564 43.34 79.6364 43.66C79.9164 43.98 80.3697 44.14 80.9964 44.14C81.1831 44.14 81.3764 44.12 81.5764 44.08C81.7764 44.0267 81.9831 43.9733 82.1964 43.92L82.5764 45.76C82.3364 45.8933 82.0297 46 81.6564 46.08C81.2964 46.16 80.9431 46.2 80.5964 46.2ZM87.3722 46.2C86.5455 46.2 85.7722 46.1 85.0522 45.9C84.3322 45.7 83.7322 45.4133 83.2522 45.04L83.8922 43.4C84.3855 43.7333 84.9389 43.9933 85.5522 44.18C86.1655 44.3533 86.7789 44.44 87.3922 44.44C88.0322 44.44 88.5055 44.3333 88.8122 44.12C89.1322 43.8933 89.2922 43.6 89.2922 43.24C89.2922 42.68 88.8789 42.32 88.0522 42.16L86.0522 41.78C84.3589 41.46 83.5122 40.58 83.5122 39.14C83.5122 38.5 83.6855 37.9467 84.0322 37.48C84.3922 37.0133 84.8855 36.6533 85.5122 36.4C86.1389 36.1467 86.8589 36.02 87.6722 36.02C88.3655 36.02 89.0322 36.12 89.6722 36.32C90.3122 36.5067 90.8589 36.7933 91.3122 37.18L90.6322 38.82C90.2455 38.5 89.7789 38.2467 89.2322 38.06C88.6989 37.8733 88.1855 37.78 87.6922 37.78C87.0389 37.78 86.5522 37.8933 86.2322 38.12C85.9255 38.3467 85.7722 38.6467 85.7722 39.02C85.7722 39.6067 86.1522 39.9667 86.9122 40.1L88.9122 40.48C89.7789 40.64 90.4322 40.9333 90.8722 41.36C91.3255 41.7867 91.5522 42.36 91.5522 43.08C91.5522 44.0533 91.1722 44.82 90.4122 45.38C89.6522 45.9267 88.6389 46.2 87.3722 46.2Z" fill="black"/>
<path d="M28.198 83L33.85 70.31H35.398L41.068 83H39.16L37.828 79.904H31.402L30.088 83H28.198ZM34.606 72.38L32.068 78.392H37.198L34.642 72.38H34.606ZM45.792 83.162C45.024 83.162 44.346 82.982 43.758 82.622C43.182 82.25 42.732 81.722 42.408 81.038C42.084 80.354 41.922 79.544 41.922 78.608C41.922 77.672 42.084 76.868 42.408 76.196C42.732 75.512 43.182 74.984 43.758 74.612C44.334 74.24 45.012 74.054 45.792 74.054C46.452 74.054 47.04 74.198 47.556 74.486C48.072 74.774 48.456 75.164 48.708 75.656V70.31H50.526V83H48.744V81.47C48.492 81.998 48.102 82.412 47.574 82.712C47.058 83.012 46.464 83.162 45.792 83.162ZM46.26 81.758C47.004 81.758 47.604 81.488 48.06 80.948C48.516 80.408 48.744 79.628 48.744 78.608C48.744 77.588 48.516 76.814 48.06 76.286C47.604 75.746 47.004 75.476 46.26 75.476C45.504 75.476 44.898 75.746 44.442 76.286C43.986 76.814 43.758 77.588 43.758 78.608C43.758 79.628 43.986 80.408 44.442 80.948C44.898 81.488 45.504 81.758 46.26 81.758ZM56.2108 83.162C54.0868 83.162 53.0248 81.98 53.0248 79.616V74.216H54.8428V79.634C54.8428 80.342 54.9868 80.864 55.2748 81.2C55.5628 81.536 56.0188 81.704 56.6428 81.704C57.3268 81.704 57.8788 81.476 58.2988 81.02C58.7308 80.564 58.9468 79.952 58.9468 79.184V74.216H60.7648V83H59.0008V81.596C58.7128 82.112 58.3288 82.502 57.8488 82.766C57.3688 83.03 56.8228 83.162 56.2108 83.162ZM66.1888 83.162C65.2288 83.162 64.5088 82.892 64.0288 82.352C63.5608 81.812 63.3268 81.02 63.3268 79.976V70.31H65.1448V79.868C65.1448 81.056 65.6308 81.65 66.6028 81.65C66.7468 81.65 66.8788 81.644 66.9988 81.632C67.1308 81.62 67.2628 81.596 67.3948 81.56L67.3588 83.018C66.9508 83.114 66.5608 83.162 66.1888 83.162ZM72.3794 83.162C71.2754 83.162 70.4534 82.88 69.9134 82.316C69.3734 81.752 69.1034 80.936 69.1034 79.868V75.62H67.3934V74.216H69.1034V71.57H70.9214V74.216H73.6394V75.62H70.9214V79.724C70.9214 80.36 71.0534 80.84 71.3174 81.164C71.5934 81.488 72.0374 81.65 72.6494 81.65C72.8414 81.65 73.0274 81.632 73.2074 81.596C73.3874 81.548 73.5674 81.494 73.7474 81.434L74.0354 82.802C73.8554 82.91 73.6034 82.994 73.2794 83.054C72.9674 83.126 72.6674 83.162 72.3794 83.162ZM78.2876 83.162C77.5676 83.162 76.8956 83.072 76.2716 82.892C75.6476 82.7 75.1256 82.436 74.7056 82.1L75.2276 80.876C75.6716 81.188 76.1576 81.428 76.6856 81.596C77.2256 81.764 77.7656 81.848 78.3056 81.848C78.9416 81.848 79.4216 81.734 79.7456 81.506C80.0696 81.278 80.2316 80.972 80.2316 80.588C80.2316 80.276 80.1236 80.036 79.9076 79.868C79.6916 79.688 79.3676 79.55 78.9356 79.454L77.2256 79.112C75.7136 78.8 74.9576 78.02 74.9576 76.772C74.9576 75.944 75.2876 75.284 75.9476 74.792C76.6076 74.3 77.4716 74.054 78.5396 74.054C79.1516 74.054 79.7336 74.144 80.2856 74.324C80.8496 74.504 81.3176 74.774 81.6896 75.134L81.1676 76.358C80.8076 76.046 80.3936 75.806 79.9256 75.638C79.4576 75.47 78.9956 75.386 78.5396 75.386C77.9156 75.386 77.4416 75.506 77.1176 75.746C76.7936 75.974 76.6316 76.286 76.6316 76.682C76.6316 77.282 77.0276 77.666 77.8196 77.834L79.5296 78.176C80.3096 78.332 80.8976 78.596 81.2936 78.968C81.7016 79.34 81.9056 79.844 81.9056 80.48C81.9056 81.32 81.5756 81.98 80.9156 82.46C80.2556 82.928 79.3796 83.162 78.2876 83.162Z" fill="black"/>
<path d="M35.164 128.162C33.88 128.162 32.782 127.898 31.87 127.37C30.958 126.842 30.256 126.092 29.764 125.12C29.284 124.136 29.044 122.978 29.044 121.646C29.044 120.314 29.284 119.162 29.764 118.19C30.256 117.218 30.958 116.468 31.87 115.94C32.782 115.412 33.88 115.148 35.164 115.148C36.028 115.148 36.832 115.286 37.576 115.562C38.332 115.826 38.962 116.21 39.466 116.714L38.818 118.208C38.266 117.716 37.696 117.362 37.108 117.146C36.532 116.918 35.902 116.804 35.218 116.804C33.85 116.804 32.806 117.224 32.086 118.064C31.366 118.904 31.006 120.098 31.006 121.646C31.006 123.194 31.366 124.394 32.086 125.246C32.806 126.086 33.85 126.506 35.218 126.506C35.902 126.506 36.532 126.398 37.108 126.182C37.696 125.954 38.266 125.594 38.818 125.102L39.466 126.596C38.962 127.088 38.332 127.472 37.576 127.748C36.832 128.024 36.028 128.162 35.164 128.162ZM41.4421 128V115.31H43.2601V120.584C43.5601 120.08 43.9621 119.702 44.4661 119.45C44.9821 119.186 45.5581 119.054 46.1941 119.054C48.2701 119.054 49.3081 120.23 49.3081 122.582V128H47.4901V122.69C47.4901 121.934 47.3401 121.382 47.0401 121.034C46.7521 120.686 46.2961 120.512 45.6721 120.512C44.9401 120.512 44.3521 120.746 43.9081 121.214C43.4761 121.67 43.2601 122.276 43.2601 123.032V128H41.4421ZM51.6512 117.182V115.292H53.7752V117.182H51.6512ZM51.8132 128V119.216H53.6312V128H51.8132ZM59.0521 128.162C58.0921 128.162 57.3721 127.892 56.8921 127.352C56.4241 126.812 56.1901 126.02 56.1901 124.976V115.31H58.0081V124.868C58.0081 126.056 58.4941 126.65 59.4661 126.65C59.6101 126.65 59.7421 126.644 59.8621 126.632C59.9941 126.62 60.1261 126.596 60.2581 126.56L60.2221 128.018C59.8141 128.114 59.4241 128.162 59.0521 128.162ZM64.9522 128.162C64.1842 128.162 63.5062 127.982 62.9182 127.622C62.3422 127.25 61.8922 126.722 61.5682 126.038C61.2442 125.354 61.0822 124.544 61.0822 123.608C61.0822 122.672 61.2442 121.868 61.5682 121.196C61.8922 120.512 62.3422 119.984 62.9182 119.612C63.4942 119.24 64.1722 119.054 64.9522 119.054C65.6122 119.054 66.2002 119.198 66.7162 119.486C67.2322 119.774 67.6162 120.164 67.8682 120.656V115.31H69.6862V128H67.9042V126.47C67.6522 126.998 67.2622 127.412 66.7342 127.712C66.2182 128.012 65.6242 128.162 64.9522 128.162ZM65.4202 126.758C66.1642 126.758 66.7642 126.488 67.2202 125.948C67.6762 125.408 67.9042 124.628 67.9042 123.608C67.9042 122.588 67.6762 121.814 67.2202 121.286C66.7642 120.746 66.1642 120.476 65.4202 120.476C64.6642 120.476 64.0582 120.746 63.6022 121.286C63.1462 121.814 62.9182 122.588 62.9182 123.608C62.9182 124.628 63.1462 125.408 63.6022 125.948C64.0582 126.488 64.6642 126.758 65.4202 126.758ZM72.2389 128V119.216H74.0029V120.782C74.4589 119.738 75.4069 119.156 76.8469 119.036L77.4409 119L77.5669 120.548L76.4689 120.656C74.8729 120.812 74.0749 121.634 74.0749 123.122V128H72.2389ZM82.9527 128.162C81.5127 128.162 80.3787 127.76 79.5507 126.956C78.7227 126.14 78.3087 125.03 78.3087 123.626C78.3087 122.726 78.4887 121.934 78.8487 121.25C79.2207 120.554 79.7307 120.014 80.3787 119.63C81.0267 119.246 81.7707 119.054 82.6107 119.054C83.8227 119.054 84.7767 119.444 85.4727 120.224C86.1687 120.992 86.5167 122.054 86.5167 123.41V124.022H80.0727C80.2047 125.846 81.1707 126.758 82.9707 126.758C83.4747 126.758 83.9667 126.68 84.4467 126.524C84.9387 126.368 85.4007 126.11 85.8327 125.75L86.3727 127.01C85.9767 127.37 85.4667 127.652 84.8427 127.856C84.2187 128.06 83.5887 128.162 82.9527 128.162ZM82.6827 120.332C81.9267 120.332 81.3267 120.566 80.8827 121.034C80.4387 121.502 80.1687 122.126 80.0727 122.906H84.9867C84.9507 122.09 84.7347 121.46 84.3387 121.016C83.9427 120.56 83.3907 120.332 82.6827 120.332ZM88.4987 128V119.216H90.2627V120.674C90.5627 120.146 90.9707 119.744 91.4867 119.468C92.0147 119.192 92.6027 119.054 93.2507 119.054C95.3267 119.054 96.3647 120.23 96.3647 122.582V128H94.5467V122.69C94.5467 121.934 94.3967 121.382 94.0967 121.034C93.8087 120.686 93.3527 120.512 92.7287 120.512C91.9967 120.512 91.4087 120.746 90.9647 121.214C90.5327 121.67 90.3167 122.276 90.3167 123.032V128H88.4987Z" fill="black"/>
<path d="M231.125 60.5455H229.011L224.648 63.4432V65.5909L228.909 62.7614H229.011V78H231.125V60.5455Z" fill="black"/>
<path fill-rule="evenodd" clip-rule="evenodd" d="M209.543 62.5429L210.957 63.9571L205.164 69.75L210.957 75.5429L209.543 76.9571L202.336 69.75L209.543 62.5429Z" fill="black"/>
<path fill-rule="evenodd" clip-rule="evenodd" d="M248.457 62.5429L247.043 63.9571L252.836 69.75L247.043 75.5429L248.457 76.9571L255.664 69.75L248.457 62.5429Z" fill="black"/>
<path d="M228.773 126.239C232.625 126.239 234.841 122.974 234.841 117.273C234.841 111.614 232.591 108.307 228.773 108.307C224.955 108.307 222.705 111.614 222.705 117.273C222.705 122.974 224.92 126.239 228.773 126.239ZM228.773 124.364C226.233 124.364 224.75 121.815 224.75 117.273C224.75 112.739 226.25 110.148 228.773 110.148C231.295 110.148 232.795 112.739 232.795 117.273C232.795 121.815 231.312 124.364 228.773 124.364Z" fill="black"/>
<path fill-rule="evenodd" clip-rule="evenodd" d="M209.543 110.543L210.957 111.957L205.164 117.75L210.957 123.543L209.543 124.957L202.336 117.75L209.543 110.543Z" fill="black"/>
<path fill-rule="evenodd" clip-rule="evenodd" d="M248.457 110.543L247.043 111.957L252.836 117.75L247.043 123.543L248.457 124.957L255.664 117.75L248.457 110.543Z" fill="black"/>
</g>
<defs>
<filter id="filter0_d_95_894" x="0" y="0" width="303" height="181" filterUnits="userSpaceOnUse" color-interpolation-filters="sRGB">
<feFlood flood-opacity="0" result="BackgroundImageFix"/>
<feColorMatrix in="SourceAlpha" type="matrix" values="0 0 0 0 0 0 0 0 0 0 0 0 0 0 0 0 0 0 127 0" result="hardAlpha"/>
<feOffset dy="4"/>
<feGaussianBlur stdDeviation="2"/>
<feComposite in2="hardAlpha" operator="out"/>
<feColorMatrix type="matrix" values="0 0 0 0 0 0 0 0 0 0 0 0 0 0 0 0 0 0 0.25 0"/>
<feBlend mode="normal" in2="BackgroundImageFix" result="effect1_dropShadow_95_894"/>
<feBlend mode="normal" in="SourceGraphic" in2="effect1_dropShadow_95_894" result="shape"/>
</filter>
</defs>
</svg>
