<svg width="225" height="85" viewBox="0 0 225 85" fill="none" xmlns="http://www.w3.org/2000/svg">
<path d="M187 46H215C216.061 46 217.078 45.5786 217.828 44.8284C218.579 44.0783 219 43.0609 219 42V24C219.002 23.7368 218.951 23.4759 218.852 23.2322C218.752 22.9885 218.605 22.7669 218.42 22.58L202.42 6.58C202.045 6.2075 201.538 5.99841 201.01 5.99841C200.482 5.99841 199.975 6.2075 199.6 6.58L183.6 22.58C183.411 22.7652 183.261 22.9861 183.158 23.2299C183.055 23.4736 183.001 23.7354 183 24V42C183 43.0609 183.421 44.0783 184.172 44.8284C184.922 45.5786 185.939 46 187 46ZM197 42V32H205V42H197ZM187 24.82L201 10.82L215 24.82V42H209V32C209 30.9391 208.579 29.9217 207.828 29.1716C207.078 28.4214 206.061 28 205 28H197C195.939 28 194.922 28.4214 194.172 29.1716C193.421 29.9217 193 30.9391 193 32V42H187V24.82Z" fill="black"/>
<path d="M1.694 27.3147V11.8047H3.806L12.144 22.6287V11.8047H14.762V27.3147H12.672L4.312 16.4467V27.3147H1.694ZM23.453 27.5347C22.3384 27.5347 21.3704 27.3074 20.549 26.8527C19.7277 26.398 19.0897 25.7527 18.635 24.9167C18.1804 24.066 17.953 23.0687 17.953 21.9247C17.953 20.7807 18.1804 19.7907 18.635 18.9547C19.0897 18.1187 19.7277 17.4734 20.549 17.0187C21.3704 16.564 22.3384 16.3367 23.453 16.3367C24.5677 16.3367 25.5357 16.564 26.357 17.0187C27.1784 17.4734 27.8164 18.1187 28.271 18.9547C28.7257 19.7907 28.953 20.7807 28.953 21.9247C28.953 23.0687 28.7257 24.066 28.271 24.9167C27.8164 25.7527 27.1784 26.398 26.357 26.8527C25.5357 27.3074 24.5677 27.5347 23.453 27.5347ZM23.453 25.4447C24.2744 25.4447 24.9344 25.1514 25.433 24.5647C25.9317 23.9634 26.181 23.0834 26.181 21.9247C26.181 20.7514 25.9317 19.8787 25.433 19.3067C24.9344 18.72 24.2744 18.4267 23.453 18.4267C22.6317 18.4267 21.9717 18.72 21.473 19.3067C20.9744 19.8787 20.725 20.7514 20.725 21.9247C20.725 23.0834 20.9744 23.9634 21.473 24.5647C21.9717 25.1514 22.6317 25.4447 23.453 25.4447ZM31.2541 27.3147V24.2567H34.3341V27.3147H31.2541ZM49.1088 27.5347C47.9941 27.5347 47.0261 27.3074 46.2048 26.8527C45.3835 26.398 44.7455 25.7527 44.2908 24.9167C43.8361 24.066 43.6088 23.0687 43.6088 21.9247C43.6088 20.7807 43.8361 19.7907 44.2908 18.9547C44.7455 18.1187 45.3835 17.4734 46.2048 17.0187C47.0261 16.564 47.9941 16.3367 49.1088 16.3367C50.2235 16.3367 51.1915 16.564 52.0128 17.0187C52.8341 17.4734 53.4721 18.1187 53.9268 18.9547C54.3815 19.7907 54.6088 20.7807 54.6088 21.9247C54.6088 23.0687 54.3815 24.066 53.9268 24.9167C53.4721 25.7527 52.8341 26.398 52.0128 26.8527C51.1915 27.3074 50.2235 27.5347 49.1088 27.5347ZM49.1088 25.4447C49.9301 25.4447 50.5901 25.1514 51.0888 24.5647C51.5875 23.9634 51.8368 23.0834 51.8368 21.9247C51.8368 20.7514 51.5875 19.8787 51.0888 19.3067C50.5901 18.72 49.9301 18.4267 49.1088 18.4267C48.2875 18.4267 47.6275 18.72 47.1288 19.3067C46.6301 19.8787 46.3808 20.7514 46.3808 21.9247C46.3808 23.0834 46.6301 23.9634 47.1288 24.5647C47.6275 25.1514 48.2875 25.4447 49.1088 25.4447ZM58.1572 27.3147V18.6247H56.0892V16.5567H58.1572V16.5347C58.1572 15.0094 58.5532 13.858 59.3452 13.0807C60.1518 12.3034 61.3985 11.8634 63.0852 11.7607L64.1632 11.6947L64.3392 13.7187L63.3272 13.7847C62.4472 13.8434 61.8238 14.0634 61.4572 14.4447C61.0905 14.8114 60.9072 15.3614 60.9072 16.0947V16.5567H63.8332V18.6247H60.9072V27.3147H58.1572ZM72.6945 27.3147V16.5567H75.3785V18.4487C75.9065 17.1727 77.0359 16.4687 78.7665 16.3367L79.6025 16.2707L79.7785 18.6027L78.1945 18.7567C76.3905 18.9327 75.4885 19.8567 75.4885 21.5287V27.3147H72.6945ZM86.7039 27.5347C85.5892 27.5347 84.6212 27.3074 83.7999 26.8527C82.9786 26.398 82.3406 25.7527 81.8859 24.9167C81.4312 24.066 81.2039 23.0687 81.2039 21.9247C81.2039 20.7807 81.4312 19.7907 81.8859 18.9547C82.3406 18.1187 82.9786 17.4734 83.7999 17.0187C84.6212 16.564 85.5892 16.3367 86.7039 16.3367C87.8186 16.3367 88.7866 16.564 89.6079 17.0187C90.4292 17.4734 91.0672 18.1187 91.5219 18.9547C91.9766 19.7907 92.2039 20.7807 92.2039 21.9247C92.2039 23.0687 91.9766 24.066 91.5219 24.9167C91.0672 25.7527 90.4292 26.398 89.6079 26.8527C88.7866 27.3074 87.8186 27.5347 86.7039 27.5347ZM86.7039 25.4447C87.5252 25.4447 88.1852 25.1514 88.6839 24.5647C89.1826 23.9634 89.4319 23.0834 89.4319 21.9247C89.4319 20.7514 89.1826 19.8787 88.6839 19.3067C88.1852 18.72 87.5252 18.4267 86.7039 18.4267C85.8826 18.4267 85.2226 18.72 84.7239 19.3067C84.2252 19.8787 83.9759 20.7514 83.9759 21.9247C83.9759 23.0834 84.2252 23.9634 84.7239 24.5647C85.2226 25.1514 85.8826 25.4447 86.7039 25.4447ZM100.04 27.5347C98.925 27.5347 97.957 27.3074 97.1357 26.8527C96.3143 26.398 95.6763 25.7527 95.2217 24.9167C94.767 24.066 94.5397 23.0687 94.5397 21.9247C94.5397 20.7807 94.767 19.7907 95.2217 18.9547C95.6763 18.1187 96.3143 17.4734 97.1357 17.0187C97.957 16.564 98.925 16.3367 100.04 16.3367C101.154 16.3367 102.122 16.564 102.944 17.0187C103.765 17.4734 104.403 18.1187 104.858 18.9547C105.312 19.7907 105.54 20.7807 105.54 21.9247C105.54 23.0687 105.312 24.066 104.858 24.9167C104.403 25.7527 103.765 26.398 102.944 26.8527C102.122 27.3074 101.154 27.5347 100.04 27.5347ZM100.04 25.4447C100.861 25.4447 101.521 25.1514 102.02 24.5647C102.518 23.9634 102.768 23.0834 102.768 21.9247C102.768 20.7514 102.518 19.8787 102.02 19.3067C101.521 18.72 100.861 18.4267 100.04 18.4267C99.2183 18.4267 98.5583 18.72 98.0597 19.3067C97.561 19.8787 97.3117 20.7514 97.3117 21.9247C97.3117 23.0834 97.561 23.9634 98.0597 24.5647C98.5583 25.1514 99.2183 25.4447 100.04 25.4447ZM108.513 27.3147V16.5567H111.197V18.2067C111.52 17.62 111.967 17.1654 112.539 16.8427C113.111 16.5054 113.771 16.3367 114.519 16.3367C116.133 16.3367 117.189 17.0407 117.687 18.4487C118.025 17.7887 118.509 17.2754 119.139 16.9087C119.77 16.5274 120.489 16.3367 121.295 16.3367C123.715 16.3367 124.925 17.8107 124.925 20.7587V27.3147H122.175V20.8687C122.175 20.0474 122.036 19.446 121.757 19.0647C121.493 18.6834 121.039 18.4927 120.393 18.4927C119.675 18.4927 119.11 18.7494 118.699 19.2627C118.289 19.7614 118.083 20.458 118.083 21.3527V27.3147H115.333V20.8687C115.333 20.0474 115.194 19.446 114.915 19.0647C114.651 18.6834 114.204 18.4927 113.573 18.4927C112.855 18.4927 112.29 18.7494 111.879 19.2627C111.469 19.7614 111.263 20.458 111.263 21.3527V27.3147H108.513ZM132.36 27.5347C131.451 27.5347 130.6 27.4247 129.808 27.2047C129.016 26.9847 128.356 26.6694 127.828 26.2587L128.532 24.4547C129.075 24.8214 129.684 25.1074 130.358 25.3127C131.033 25.5034 131.708 25.5987 132.382 25.5987C133.086 25.5987 133.607 25.4814 133.944 25.2467C134.296 24.9974 134.472 24.6747 134.472 24.2787C134.472 23.6627 134.018 23.2667 133.108 23.0907L130.908 22.6727C129.046 22.3207 128.114 21.3527 128.114 19.7687C128.114 19.0647 128.305 18.456 128.686 17.9427C129.082 17.4294 129.625 17.0334 130.314 16.7547C131.004 16.476 131.796 16.3367 132.69 16.3367C133.453 16.3367 134.186 16.4467 134.89 16.6667C135.594 16.872 136.196 17.1874 136.694 17.6127L135.946 19.4167C135.521 19.0647 135.008 18.786 134.406 18.5807C133.82 18.3754 133.255 18.2727 132.712 18.2727C131.994 18.2727 131.458 18.3974 131.106 18.6467C130.769 18.896 130.6 19.226 130.6 19.6367C130.6 20.282 131.018 20.678 131.854 20.8247L134.054 21.2427C135.008 21.4187 135.726 21.7414 136.21 22.2107C136.709 22.68 136.958 23.3107 136.958 24.1027C136.958 25.1734 136.54 26.0167 135.704 26.6327C134.868 27.234 133.754 27.5347 132.36 27.5347Z" fill="black"/>
<path d="M2.574 72.7619V70.8479H6.094V59.8919L3.344 61.6079L2.42 59.9139L6.754 57.2519H8.36V70.8479H11.66V72.7619H2.574ZM21.8527 72.7619V62.0259H24.0087V63.9399C24.566 62.6639 25.7247 61.9526 27.4847 61.8059L28.2107 61.7619L28.3647 63.6539L27.0227 63.7859C25.072 63.9766 24.0967 64.9812 24.0967 66.7999V72.7619H21.8527ZM35.2333 72.9599C34.148 72.9599 33.2093 72.7326 32.4173 72.2779C31.6253 71.8232 31.0093 71.1852 30.5693 70.3639C30.144 69.5279 29.9313 68.5379 29.9313 67.3939C29.9313 66.2499 30.144 65.2672 30.5693 64.4459C31.0093 63.6099 31.6253 62.9646 32.4173 62.5099C33.2093 62.0552 34.148 61.8279 35.2333 61.8279C36.2893 61.8279 37.2133 62.0552 38.0053 62.5099C38.7973 62.9646 39.4133 63.6099 39.8533 64.4459C40.2933 65.2672 40.5133 66.2499 40.5133 67.3939C40.5133 68.5379 40.2933 69.5279 39.8533 70.3639C39.4133 71.1852 38.7973 71.8232 38.0053 72.2779C37.2133 72.7326 36.2893 72.9599 35.2333 72.9599ZM35.2333 71.2439C36.1427 71.2439 36.876 70.9139 37.4333 70.2539C37.9907 69.5939 38.2693 68.6406 38.2693 67.3939C38.2693 66.1472 37.9907 65.2012 37.4333 64.5559C36.876 63.8959 36.1427 63.5659 35.2333 63.5659C34.3093 63.5659 33.5687 63.8959 33.0113 64.5559C32.454 65.2012 32.1753 66.1472 32.1753 67.3939C32.1753 68.6406 32.454 69.5939 33.0113 70.2539C33.5687 70.9139 34.3093 71.2439 35.2333 71.2439ZM48.3328 72.9599C47.2475 72.9599 46.3088 72.7326 45.5168 72.2779C44.7248 71.8232 44.1088 71.1852 43.6688 70.3639C43.2435 69.5279 43.0308 68.5379 43.0308 67.3939C43.0308 66.2499 43.2435 65.2672 43.6688 64.4459C44.1088 63.6099 44.7248 62.9646 45.5168 62.5099C46.3088 62.0552 47.2475 61.8279 48.3328 61.8279C49.3888 61.8279 50.3128 62.0552 51.1048 62.5099C51.8968 62.9646 52.5128 63.6099 52.9528 64.4459C53.3928 65.2672 53.6128 66.2499 53.6128 67.3939C53.6128 68.5379 53.3928 69.5279 52.9528 70.3639C52.5128 71.1852 51.8968 71.8232 51.1048 72.2779C50.3128 72.7326 49.3888 72.9599 48.3328 72.9599ZM48.3328 71.2439C49.2421 71.2439 49.9755 70.9139 50.5328 70.2539C51.0901 69.5939 51.3688 68.6406 51.3688 67.3939C51.3688 66.1472 51.0901 65.2012 50.5328 64.5559C49.9755 63.8959 49.2421 63.5659 48.3328 63.5659C47.4088 63.5659 46.6681 63.8959 46.1108 64.5559C45.5535 65.2012 45.2748 66.1472 45.2748 67.3939C45.2748 68.6406 45.5535 69.5939 46.1108 70.2539C46.6681 70.9139 47.4088 71.2439 48.3328 71.2439ZM56.8122 72.7619V62.0259H58.9682V63.7639C59.2909 63.1479 59.7382 62.6712 60.3102 62.3339C60.8822 61.9966 61.5496 61.8279 62.3122 61.8279C63.9549 61.8279 65.0182 62.5466 65.5022 63.9839C65.8396 63.3092 66.3236 62.7812 66.9543 62.3999C67.5849 62.0186 68.3036 61.8279 69.1102 61.8279C71.5156 61.8279 72.7183 63.2652 72.7183 66.1399V72.7619H70.4963V66.2499C70.4963 65.3406 70.3349 64.6732 70.0123 64.2479C69.7042 63.8226 69.1909 63.6099 68.4723 63.6099C67.6656 63.6099 67.0276 63.8959 66.5582 64.4679C66.0889 65.0252 65.8542 65.7879 65.8542 66.7559V72.7619H63.6322V66.2499C63.6322 65.3406 63.4782 64.6732 63.1702 64.2479C62.8622 63.8226 62.3489 63.6099 61.6302 63.6099C60.8236 63.6099 60.1856 63.8959 59.7162 64.4679C59.2616 65.0252 59.0342 65.7879 59.0342 66.7559V72.7619H56.8122Z" fill="black"/>
</svg>
