<svg width="285" height="181" viewBox="0 0 285 181" fill="none" xmlns="http://www.w3.org/2000/svg">
<g filter="url(#filter0_d_56_991)">
<path fill-rule="evenodd" clip-rule="evenodd" d="M43.9532 6.95477L40.1508 0L36.3485 6.95477H13C8.02944 6.95477 4 10.9842 4 15.9548V164C4 168.971 8.02944 173 13 173H272C276.971 173 281 168.971 281 164V15.9548C281 10.9842 276.971 6.95477 272 6.95477H43.9532Z" fill="#F3F2EE"/>
<path d="M18.02 44L24.4 29.9H26.5L32.88 44H30.28L28.88 40.74H22L20.62 44H18.02ZM25.42 32.68L22.88 38.7H28L25.46 32.68H25.42ZM37.8452 44.2C36.9918 44.2 36.2385 43.9933 35.5852 43.58C34.9452 43.1667 34.4452 42.58 34.0852 41.82C33.7252 41.0467 33.5452 40.14 33.5452 39.1C33.5452 38.0467 33.7252 37.1467 34.0852 36.4C34.4452 35.64 34.9452 35.0533 35.5852 34.64C36.2385 34.2267 36.9918 34.02 37.8452 34.02C38.5385 34.02 39.1652 34.1733 39.7252 34.48C40.2852 34.7867 40.7052 35.1933 40.9852 35.7V29.9H43.4852V44H41.0452V42.38C40.7785 42.94 40.3585 43.3867 39.7852 43.72C39.2118 44.04 38.5652 44.2 37.8452 44.2ZM38.5452 42.3C39.2918 42.3 39.8918 42.0333 40.3452 41.5C40.7985 40.9533 41.0252 40.1533 41.0252 39.1C41.0252 38.0333 40.7985 37.24 40.3452 36.72C39.8918 36.1867 39.2918 35.92 38.5452 35.92C37.7985 35.92 37.1985 36.1867 36.7452 36.72C36.2918 37.24 36.0652 38.0333 36.0652 39.1C36.0652 40.1533 36.2918 40.9533 36.7452 41.5C37.1985 42.0333 37.7985 42.3 38.5452 42.3ZM49.8373 44.2C48.984 44.2 48.2307 43.9933 47.5773 43.58C46.9373 43.1667 46.4373 42.58 46.0773 41.82C45.7173 41.0467 45.5373 40.14 45.5373 39.1C45.5373 38.0467 45.7173 37.1467 46.0773 36.4C46.4373 35.64 46.9373 35.0533 47.5773 34.64C48.2307 34.2267 48.984 34.02 49.8373 34.02C50.5307 34.02 51.1573 34.1733 51.7173 34.48C52.2773 34.7867 52.6973 35.1933 52.9773 35.7V29.9H55.4773V44H53.0373V42.38C52.7707 42.94 52.3507 43.3867 51.7773 43.72C51.204 44.04 50.5573 44.2 49.8373 44.2ZM50.5373 42.3C51.284 42.3 51.884 42.0333 52.3373 41.5C52.7907 40.9533 53.0173 40.1533 53.0173 39.1C53.0173 38.0333 52.7907 37.24 52.3373 36.72C51.884 36.1867 51.284 35.92 50.5373 35.92C49.7907 35.92 49.1907 36.1867 48.7373 36.72C48.284 37.24 48.0573 38.0333 48.0573 39.1C48.0573 40.1533 48.284 40.9533 48.7373 41.5C49.1907 42.0333 49.7907 42.3 50.5373 42.3ZM66.6802 44.2C65.9735 44.2 65.3402 44.0667 64.7802 43.8C64.2335 43.52 63.8002 43.1467 63.4802 42.68C63.1735 42.2133 63.0202 41.6867 63.0202 41.1C63.0202 40.38 63.2068 39.8133 63.5802 39.4C63.9535 38.9733 64.5602 38.6667 65.4002 38.48C66.2402 38.2933 67.3668 38.2 68.7802 38.2H69.4802V37.78C69.4802 37.1133 69.3335 36.6333 69.0402 36.34C68.7468 36.0467 68.2535 35.9 67.5602 35.9C67.0135 35.9 66.4535 35.9867 65.8802 36.16C65.3068 36.32 64.7268 36.5733 64.1402 36.92L63.4202 35.22C63.7668 34.98 64.1735 34.7733 64.6402 34.6C65.1202 34.4133 65.6202 34.2733 66.1402 34.18C66.6735 34.0733 67.1735 34.02 67.6402 34.02C69.0668 34.02 70.1268 34.3533 70.8202 35.02C71.5135 35.6733 71.8602 36.6933 71.8602 38.08V44H69.5202V42.44C69.2935 42.9867 68.9335 43.42 68.4402 43.74C67.9468 44.0467 67.3602 44.2 66.6802 44.2ZM67.2002 42.48C67.8535 42.48 68.3935 42.2533 68.8202 41.8C69.2602 41.3467 69.4802 40.7733 69.4802 40.08V39.64H68.8002C67.5468 39.64 66.6735 39.74 66.1802 39.94C65.7002 40.1267 65.4602 40.4733 65.4602 40.98C65.4602 41.42 65.6135 41.78 65.9202 42.06C66.2268 42.34 66.6535 42.48 67.2002 42.48ZM74.3977 44V34.22H76.8377V35.74C77.171 35.18 77.6177 34.7533 78.1777 34.46C78.751 34.1667 79.391 34.02 80.0977 34.02C82.4043 34.02 83.5577 35.36 83.5577 38.04V44H81.0577V38.16C81.0577 37.4 80.911 36.8467 80.6177 36.5C80.3377 36.1533 79.8977 35.98 79.2977 35.98C78.5643 35.98 77.9777 36.2133 77.5377 36.68C77.111 37.1333 76.8977 37.74 76.8977 38.5V44H74.3977ZM90.5569 44.2C89.5435 44.2 88.6635 43.9933 87.9169 43.58C87.1702 43.1667 86.5902 42.58 86.1769 41.82C85.7635 41.0467 85.5569 40.14 85.5569 39.1C85.5569 38.06 85.7635 37.16 86.1769 36.4C86.5902 35.64 87.1702 35.0533 87.9169 34.64C88.6635 34.2267 89.5435 34.02 90.5569 34.02C91.5702 34.02 92.4502 34.2267 93.1969 34.64C93.9435 35.0533 94.5235 35.64 94.9369 36.4C95.3502 37.16 95.5569 38.06 95.5569 39.1C95.5569 40.14 95.3502 41.0467 94.9369 41.82C94.5235 42.58 93.9435 43.1667 93.1969 43.58C92.4502 43.9933 91.5702 44.2 90.5569 44.2ZM90.5569 42.3C91.3035 42.3 91.9035 42.0333 92.3569 41.5C92.8102 40.9533 93.0369 40.1533 93.0369 39.1C93.0369 38.0333 92.8102 37.24 92.3569 36.72C91.9035 36.1867 91.3035 35.92 90.5569 35.92C89.8102 35.92 89.2102 36.1867 88.7569 36.72C88.3035 37.24 88.0769 38.0333 88.0769 39.1C88.0769 40.1533 88.3035 40.9533 88.7569 41.5C89.2102 42.0333 89.8102 42.3 90.5569 42.3ZM102.003 44.2C99.416 44.2 98.1227 42.92 98.1227 40.36V36.1H96.2427V34.22H98.1227V31.3H100.623V34.22H103.583V36.1H100.623V40.22C100.623 40.86 100.763 41.34 101.043 41.66C101.323 41.98 101.776 42.14 102.403 42.14C102.589 42.14 102.783 42.12 102.983 42.08C103.183 42.0267 103.389 41.9733 103.603 41.92L103.983 43.76C103.743 43.8933 103.436 44 103.063 44.08C102.703 44.16 102.349 44.2 102.003 44.2ZM105.198 44V29.9H107.698V35.64C108.032 35.1067 108.478 34.7067 109.038 34.44C109.598 34.16 110.218 34.02 110.898 34.02C113.205 34.02 114.358 35.36 114.358 38.04V44H111.858V38.16C111.858 37.4 111.712 36.8467 111.418 36.5C111.138 36.1533 110.698 35.98 110.098 35.98C109.365 35.98 108.778 36.2133 108.338 36.68C107.912 37.1333 107.698 37.74 107.698 38.5V44H105.198ZM121.718 44.2C120.611 44.2 119.658 43.9933 118.858 43.58C118.058 43.1667 117.438 42.58 116.998 41.82C116.571 41.06 116.358 40.16 116.358 39.12C116.358 38.1067 116.564 37.22 116.978 36.46C117.404 35.7 117.984 35.1067 118.718 34.68C119.464 34.24 120.311 34.02 121.258 34.02C122.644 34.02 123.738 34.46 124.538 35.34C125.351 36.22 125.758 37.42 125.758 38.94V39.68H118.758C118.944 41.4267 119.944 42.3 121.758 42.3C122.304 42.3 122.851 42.22 123.398 42.06C123.944 41.8867 124.444 41.62 124.898 41.26L125.598 42.94C125.131 43.3267 124.544 43.6333 123.838 43.86C123.131 44.0867 122.424 44.2 121.718 44.2ZM121.358 35.72C120.624 35.72 120.031 35.9467 119.578 36.4C119.124 36.8533 118.851 37.4667 118.758 38.24H123.678C123.624 37.4267 123.398 36.8067 122.998 36.38C122.611 35.94 122.064 35.72 121.358 35.72ZM127.738 44V34.22H130.178V35.94C130.658 34.78 131.684 34.14 133.258 34.02L134.018 33.96L134.178 36.08L132.738 36.22C131.098 36.38 130.278 37.22 130.278 38.74V44H127.738ZM140.96 44V34.22H143.4V35.94C143.88 34.78 144.907 34.14 146.48 34.02L147.24 33.96L147.4 36.08L145.96 36.22C144.32 36.38 143.5 37.22 143.5 38.74V44H140.96ZM153.096 44.2C152.083 44.2 151.203 43.9933 150.456 43.58C149.709 43.1667 149.129 42.58 148.716 41.82C148.303 41.0467 148.096 40.14 148.096 39.1C148.096 38.06 148.303 37.16 148.716 36.4C149.129 35.64 149.709 35.0533 150.456 34.64C151.203 34.2267 152.083 34.02 153.096 34.02C154.109 34.02 154.989 34.2267 155.736 34.64C156.483 35.0533 157.063 35.64 157.476 36.4C157.889 37.16 158.096 38.06 158.096 39.1C158.096 40.14 157.889 41.0467 157.476 41.82C157.063 42.58 156.483 43.1667 155.736 43.58C154.989 43.9933 154.109 44.2 153.096 44.2ZM153.096 42.3C153.843 42.3 154.443 42.0333 154.896 41.5C155.349 40.9533 155.576 40.1533 155.576 39.1C155.576 38.0333 155.349 37.24 154.896 36.72C154.443 36.1867 153.843 35.92 153.096 35.92C152.349 35.92 151.749 36.1867 151.296 36.72C150.843 37.24 150.616 38.0333 150.616 39.1C150.616 40.1533 150.843 40.9533 151.296 41.5C151.749 42.0333 152.349 42.3 153.096 42.3ZM164.619 44.2C163.606 44.2 162.726 43.9933 161.979 43.58C161.233 43.1667 160.653 42.58 160.239 41.82C159.826 41.0467 159.619 40.14 159.619 39.1C159.619 38.06 159.826 37.16 160.239 36.4C160.653 35.64 161.233 35.0533 161.979 34.64C162.726 34.2267 163.606 34.02 164.619 34.02C165.633 34.02 166.513 34.2267 167.259 34.64C168.006 35.0533 168.586 35.64 168.999 36.4C169.413 37.16 169.619 38.06 169.619 39.1C169.619 40.14 169.413 41.0467 168.999 41.82C168.586 42.58 168.006 43.1667 167.259 43.58C166.513 43.9933 165.633 44.2 164.619 44.2ZM164.619 42.3C165.366 42.3 165.966 42.0333 166.419 41.5C166.873 40.9533 167.099 40.1533 167.099 39.1C167.099 38.0333 166.873 37.24 166.419 36.72C165.966 36.1867 165.366 35.92 164.619 35.92C163.873 35.92 163.273 36.1867 162.819 36.72C162.366 37.24 162.139 38.0333 162.139 39.1C162.139 40.1533 162.366 40.9533 162.819 41.5C163.273 42.0333 163.873 42.3 164.619 42.3ZM171.723 44V34.22H174.163V35.72C174.456 35.1867 174.863 34.7733 175.383 34.48C175.903 34.1733 176.503 34.02 177.183 34.02C178.649 34.02 179.609 34.66 180.063 35.94C180.369 35.34 180.809 34.8733 181.383 34.54C181.956 34.1933 182.609 34.02 183.343 34.02C185.543 34.02 186.643 35.36 186.643 38.04V44H184.143V38.14C184.143 37.3933 184.016 36.8467 183.763 36.5C183.523 36.1533 183.109 35.98 182.523 35.98C181.869 35.98 181.356 36.2133 180.983 36.68C180.609 37.1333 180.423 37.7667 180.423 38.58V44H177.923V38.14C177.923 37.3933 177.796 36.8467 177.543 36.5C177.303 36.1533 176.896 35.98 176.323 35.98C175.669 35.98 175.156 36.2133 174.783 36.68C174.409 37.1333 174.223 37.7667 174.223 38.58V44H171.723Z" fill="black"/>
<path d="M240.125 29.5455H238.011L233.648 32.4432V34.5909L237.909 31.7614H238.011V47H240.125V29.5455Z" fill="black"/>
<path fill-rule="evenodd" clip-rule="evenodd" d="M218.543 31.5429L219.957 32.9571L214.164 38.75L219.957 44.5429L218.543 45.9571L211.336 38.75L218.543 31.5429Z" fill="black"/>
<path fill-rule="evenodd" clip-rule="evenodd" d="M257.457 31.5429L256.043 32.9571L261.836 38.75L256.043 44.5429L257.457 45.9571L264.664 38.75L257.457 31.5429Z" fill="black"/>
</g>
<defs>
<filter id="filter0_d_56_991" x="0" y="0" width="285" height="181" filterUnits="userSpaceOnUse" color-interpolation-filters="sRGB">
<feFlood flood-opacity="0" result="BackgroundImageFix"/>
<feColorMatrix in="SourceAlpha" type="matrix" values="0 0 0 0 0 0 0 0 0 0 0 0 0 0 0 0 0 0 127 0" result="hardAlpha"/>
<feOffset dy="4"/>
<feGaussianBlur stdDeviation="2"/>
<feComposite in2="hardAlpha" operator="out"/>
<feColorMatrix type="matrix" values="0 0 0 0 0 0 0 0 0 0 0 0 0 0 0 0 0 0 0.25 0"/>
<feBlend mode="normal" in2="BackgroundImageFix" result="effect1_dropShadow_56_991"/>
<feBlend mode="normal" in="SourceGraphic" in2="effect1_dropShadow_56_991" result="shape"/>
</filter>
</defs>
</svg>
