<svg width="224" height="85" viewBox="0 0 224 85" fill="none" xmlns="http://www.w3.org/2000/svg">
<path d="M9.62075 27.5347C7.90475 27.5347 6.45275 27.212 5.26475 26.5667C4.09142 25.9214 3.19675 25.0047 2.58075 23.8167C1.96475 22.6287 1.65675 21.2207 1.65675 19.5927C1.65675 17.95 1.97208 16.5347 2.60275 15.3467C3.23342 14.144 4.14275 13.22 5.33075 12.5747C6.51875 11.9147 7.94142 11.5847 9.59875 11.5847C10.6841 11.5847 11.7034 11.746 12.6568 12.0687C13.6101 12.3767 14.4021 12.8094 15.0328 13.3667L14.0868 15.5667C13.3974 15.024 12.6934 14.6354 11.9748 14.4007C11.2561 14.166 10.4641 14.0487 9.59875 14.0487C7.95608 14.0487 6.70942 14.5254 5.85875 15.4787C5.02275 16.432 4.60475 17.8034 4.60475 19.5927C4.60475 21.3967 5.03742 22.768 5.90275 23.7067C6.76808 24.6454 8.05142 25.1147 9.75275 25.1147C10.2368 25.1147 10.7281 25.078 11.2268 25.0047C11.7401 24.9167 12.2461 24.792 12.7448 24.6307V21.0227H9.18075V18.9327H15.0988V26.3907C14.3801 26.7427 13.5294 27.0214 12.5468 27.2267C11.5641 27.432 10.5888 27.5347 9.62075 27.5347ZM22.652 27.5347C20.012 27.5347 18.692 26.0534 18.692 23.0907V16.5567H21.442V23.1347C21.442 23.8974 21.596 24.462 21.904 24.8287C22.212 25.1954 22.7033 25.3787 23.378 25.3787C24.1113 25.3787 24.7126 25.1294 25.182 24.6307C25.6513 24.1174 25.886 23.4427 25.886 22.6067V16.5567H28.636V27.3147H25.952V25.7087C25.2333 26.926 24.1333 27.5347 22.652 27.5347ZM37.4602 27.5347C36.2429 27.5347 35.1942 27.3074 34.3142 26.8527C33.4342 26.398 32.7522 25.7527 32.2682 24.9167C31.7989 24.0807 31.5642 23.0907 31.5642 21.9467C31.5642 20.832 31.7915 19.8567 32.2462 19.0207C32.7155 18.1847 33.3535 17.532 34.1602 17.0627C34.9815 16.5787 35.9129 16.3367 36.9542 16.3367C38.4795 16.3367 39.6822 16.8207 40.5622 17.7887C41.4569 18.7567 41.9042 20.0767 41.9042 21.7487V22.5627H34.2042C34.4095 24.484 35.5095 25.4447 37.5042 25.4447C38.1055 25.4447 38.7069 25.3567 39.3082 25.1807C39.9095 24.99 40.4595 24.6967 40.9582 24.3007L41.7282 26.1487C41.2149 26.574 40.5695 26.9114 39.7922 27.1607C39.0149 27.41 38.2375 27.5347 37.4602 27.5347ZM37.0642 18.2067C36.2575 18.2067 35.6049 18.456 35.1062 18.9547C34.6075 19.4534 34.3069 20.128 34.2042 20.9787H39.6162C39.5575 20.084 39.3082 19.402 38.8682 18.9327C38.4429 18.4487 37.8415 18.2067 37.0642 18.2067ZM48.68 27.5347C47.7707 27.5347 46.92 27.4247 46.128 27.2047C45.336 26.9847 44.676 26.6694 44.148 26.2587L44.852 24.4547C45.3947 24.8214 46.0034 25.1074 46.678 25.3127C47.3527 25.5034 48.0274 25.5987 48.702 25.5987C49.406 25.5987 49.9267 25.4814 50.264 25.2467C50.616 24.9974 50.792 24.6747 50.792 24.2787C50.792 23.6627 50.3374 23.2667 49.428 23.0907L47.228 22.6727C45.3654 22.3207 44.434 21.3527 44.434 19.7687C44.434 19.0647 44.6247 18.456 45.006 17.9427C45.402 17.4294 45.9447 17.0334 46.634 16.7547C47.3234 16.476 48.1154 16.3367 49.01 16.3367C49.7727 16.3367 50.506 16.4467 51.21 16.6667C51.914 16.872 52.5154 17.1874 53.014 17.6127L52.266 19.4167C51.8407 19.0647 51.3274 18.786 50.726 18.5807C50.1394 18.3754 49.5747 18.2727 49.032 18.2727C48.3134 18.2727 47.778 18.3974 47.426 18.6467C47.0887 18.896 46.92 19.226 46.92 19.6367C46.92 20.282 47.338 20.678 48.174 20.8247L50.374 21.2427C51.3274 21.4187 52.046 21.7414 52.53 22.2107C53.0287 22.68 53.278 23.3107 53.278 24.1027C53.278 25.1734 52.86 26.0167 52.024 26.6327C51.188 27.234 50.0734 27.5347 48.68 27.5347ZM60.9648 27.5347C58.1195 27.5347 56.6968 26.1267 56.6968 23.3107V18.6247H54.6288V16.5567H56.6968V13.3447H59.4468V16.5567H62.7028V18.6247H59.4468V23.1567C59.4468 23.8607 59.6008 24.3887 59.9088 24.7407C60.2168 25.0927 60.7155 25.2687 61.4048 25.2687C61.6101 25.2687 61.8228 25.2467 62.0428 25.2027C62.2628 25.144 62.4901 25.0854 62.7248 25.0267L63.1428 27.0507C62.8788 27.1974 62.5415 27.3147 62.1308 27.4027C61.7348 27.4907 61.3461 27.5347 60.9648 27.5347ZM69.0782 27.5347C68.1688 27.5347 67.3182 27.4247 66.5262 27.2047C65.7342 26.9847 65.0742 26.6694 64.5462 26.2587L65.2502 24.4547C65.7928 24.8214 66.4015 25.1074 67.0762 25.3127C67.7508 25.5034 68.4255 25.5987 69.1002 25.5987C69.8042 25.5987 70.3248 25.4814 70.6622 25.2467C71.0142 24.9974 71.1902 24.6747 71.1902 24.2787C71.1902 23.6627 70.7355 23.2667 69.8262 23.0907L67.6262 22.6727C65.7635 22.3207 64.8322 21.3527 64.8322 19.7687C64.8322 19.0647 65.0228 18.456 65.4042 17.9427C65.8002 17.4294 66.3428 17.0334 67.0322 16.7547C67.7215 16.476 68.5135 16.3367 69.4082 16.3367C70.1708 16.3367 70.9042 16.4467 71.6082 16.6667C72.3122 16.872 72.9135 17.1874 73.4122 17.6127L72.6642 19.4167C72.2388 19.0647 71.7255 18.786 71.1242 18.5807C70.5375 18.3754 69.9728 18.2727 69.4302 18.2727C68.7115 18.2727 68.1762 18.3974 67.8242 18.6467C67.4868 18.896 67.3182 19.226 67.3182 19.6367C67.3182 20.282 67.7362 20.678 68.5722 20.8247L70.7722 21.2427C71.7255 21.4187 72.4442 21.7414 72.9282 22.2107C73.4268 22.68 73.6762 23.3107 73.6762 24.1027C73.6762 25.1734 73.2582 26.0167 72.4222 26.6327C71.5862 27.234 70.4715 27.5347 69.0782 27.5347Z" fill="black"/>
<g clip-path="url(#clip0_460_1262)">
<path d="M214.781 31.4784V28.8815C214.781 27.5039 214.234 26.1828 213.259 25.2088C212.285 24.2347 210.964 23.6875 209.587 23.6875H199.199C197.821 23.6875 196.5 24.2347 195.526 25.2088C194.552 26.1828 194.005 27.5039 194.005 28.8815V31.4784" stroke="black" stroke-width="2" stroke-linecap="round" stroke-linejoin="round"/>
<path d="M204.393 18.4935C207.262 18.4935 209.587 16.1681 209.587 13.2996C209.587 10.431 207.262 8.10559 204.393 8.10559C201.525 8.10559 199.199 10.431 199.199 13.2996C199.199 16.1681 201.525 18.4935 204.393 18.4935Z" stroke="black" stroke-width="2" stroke-linecap="round" stroke-linejoin="round"/>
<path d="M222.571 31.4784V28.8814C222.57 27.7306 222.187 26.6127 221.482 25.7031C220.777 24.7936 219.79 24.144 218.676 23.8563" stroke="black" stroke-width="2" stroke-linecap="round" stroke-linejoin="round"/>
<path d="M213.482 8.27441C214.6 8.56047 215.59 9.21024 216.297 10.1213C217.004 11.0323 217.388 12.1528 217.388 13.3061C217.388 14.4593 217.004 15.5798 216.297 16.4909C215.59 17.4019 214.6 18.0517 213.482 18.3377" stroke="black" stroke-width="2" stroke-linecap="round" stroke-linejoin="round"/>
</g>
<path d="M4.34158 72.7619V70.8479H7.86158V59.8919L5.11158 61.6079L4.18758 59.9139L8.52158 57.2519H10.1276V70.8479H13.4276V72.7619H4.34158ZM28.4823 76.9199C27.5143 76.9199 26.6123 76.8026 25.7763 76.5679C24.9403 76.3479 24.1996 75.9959 23.5543 75.5119L24.2363 73.9279C24.8816 74.3679 25.5416 74.6906 26.2163 74.8959C26.8909 75.1012 27.5949 75.2039 28.3283 75.2039C30.3816 75.2039 31.4083 74.1772 31.4083 72.1239V70.4299C31.1003 71.0752 30.6163 71.5812 29.9563 71.9479C29.3109 72.3146 28.5849 72.4979 27.7783 72.4979C26.8103 72.4979 25.9669 72.2779 25.2483 71.8379C24.5296 71.3832 23.9723 70.7599 23.5763 69.9679C23.1803 69.1612 22.9823 68.2226 22.9823 67.1519C22.9823 66.0959 23.1803 65.1719 23.5763 64.3799C23.9723 63.5732 24.5296 62.9499 25.2483 62.5099C25.9669 62.0552 26.8103 61.8279 27.7783 61.8279C28.5996 61.8279 29.3329 62.0112 29.9783 62.3779C30.6236 62.7446 31.1003 63.2506 31.4083 63.8959V62.0259H33.5643V71.8599C33.5643 73.5466 33.1316 74.8079 32.2663 75.6439C31.4009 76.4946 30.1396 76.9199 28.4823 76.9199ZM28.3063 70.7599C29.2449 70.7599 29.9929 70.4372 30.5503 69.7919C31.1076 69.1466 31.3863 68.2666 31.3863 67.1519C31.3863 66.0372 31.1076 65.1646 30.5503 64.5339C29.9929 63.8886 29.2449 63.5659 28.3063 63.5659C27.3676 63.5659 26.6196 63.8886 26.0623 64.5339C25.5049 65.1646 25.2263 66.0372 25.2263 67.1519C25.2263 68.2666 25.5049 69.1466 26.0623 69.7919C26.6196 70.4372 27.3676 70.7599 28.3063 70.7599ZM41.1708 72.9599C38.5748 72.9599 37.2768 71.5152 37.2768 68.6259V62.0259H39.4988V68.6479C39.4988 69.5132 39.6748 70.1512 40.0268 70.5619C40.3788 70.9726 40.9361 71.1779 41.6988 71.1779C42.5348 71.1779 43.2094 70.8992 43.7228 70.3419C44.2508 69.7846 44.5148 69.0366 44.5148 68.0979V62.0259H46.7368V72.7619H44.5808V71.0459C44.2288 71.6766 43.7594 72.1532 43.1728 72.4759C42.5861 72.7986 41.9188 72.9599 41.1708 72.9599ZM55.5662 72.9599C53.8062 72.9599 52.4202 72.4686 51.4082 71.4859C50.3962 70.4886 49.8902 69.1319 49.8902 67.4159C49.8902 66.3159 50.1102 65.3479 50.5502 64.5119C51.0048 63.6612 51.6282 63.0012 52.4202 62.5319C53.2122 62.0626 54.1215 61.8279 55.1482 61.8279C56.6295 61.8279 57.7955 62.3046 58.6462 63.2579C59.4968 64.1966 59.9222 65.4946 59.9222 67.1519V67.8999H52.0462C52.2075 70.1292 53.3882 71.2439 55.5882 71.2439C56.2042 71.2439 56.8055 71.1486 57.3922 70.9579C57.9935 70.7672 58.5582 70.4519 59.0862 70.0119L59.7462 71.5519C59.2622 71.9919 58.6388 72.3366 57.8762 72.5859C57.1135 72.8352 56.3435 72.9599 55.5662 72.9599ZM55.2362 63.3899C54.3122 63.3899 53.5788 63.6759 53.0362 64.2479C52.4935 64.8199 52.1635 65.5826 52.0462 66.5359H58.0522C58.0082 65.5386 57.7442 64.7686 57.2602 64.2259C56.7762 63.6686 56.1015 63.3899 55.2362 63.3899ZM66.7666 72.9599C65.8866 72.9599 65.0652 72.8499 64.3026 72.6299C63.5399 72.3952 62.9019 72.0726 62.3886 71.6619L63.0266 70.1659C63.5692 70.5472 64.1632 70.8406 64.8086 71.0459C65.4686 71.2512 66.1286 71.3539 66.7886 71.3539C67.5659 71.3539 68.1526 71.2146 68.5486 70.9359C68.9446 70.6572 69.1426 70.2832 69.1426 69.8139C69.1426 69.4326 69.0106 69.1392 68.7466 68.9339C68.4826 68.7139 68.0866 68.5452 67.5586 68.4279L65.4686 68.0099C63.6206 67.6286 62.6966 66.6752 62.6966 65.1499C62.6966 64.1379 63.0999 63.3312 63.9066 62.7299C64.7132 62.1286 65.7692 61.8279 67.0746 61.8279C67.8226 61.8279 68.5339 61.9379 69.2086 62.1579C69.8979 62.3779 70.4699 62.7079 70.9246 63.1479L70.2866 64.6439C69.8466 64.2626 69.3406 63.9692 68.7686 63.7639C68.1966 63.5586 67.6319 63.4559 67.0746 63.4559C66.3119 63.4559 65.7326 63.6026 65.3366 63.8959C64.9406 64.1746 64.7426 64.5559 64.7426 65.0399C64.7426 65.7732 65.2266 66.2426 66.1946 66.4479L68.2846 66.8659C69.2379 67.0566 69.9566 67.3792 70.4406 67.8339C70.9392 68.2886 71.1886 68.9046 71.1886 69.6819C71.1886 70.7086 70.7852 71.5152 69.9786 72.1019C69.1719 72.6739 68.1012 72.9599 66.7666 72.9599ZM78.7894 72.9599C77.4401 72.9599 76.4354 72.6152 75.7754 71.9259C75.1154 71.2366 74.7854 70.2392 74.7854 68.9339V63.7419H72.6954V62.0259H74.7854V58.7919H77.0074V62.0259H80.3294V63.7419H77.0074V68.7579C77.0074 69.5352 77.1687 70.1219 77.4914 70.5179C77.8287 70.9139 78.3714 71.1119 79.1194 71.1119C79.3541 71.1119 79.5814 71.0899 79.8014 71.0459C80.0214 70.9872 80.2414 70.9212 80.4614 70.8479L80.8134 72.5199C80.5934 72.6519 80.2854 72.7546 79.8894 72.8279C79.5081 72.9159 79.1414 72.9599 78.7894 72.9599Z" fill="black"/>
<defs>
<clipPath id="clip0_460_1262">
<rect width="31.1638" height="31.1638" fill="white" transform="translate(192.706 4.21014)"/>
</clipPath>
</defs>
</svg>
